<?xml version="1.0" encoding="UTF-8"?>
<svg id="Capa_2" data-name="Capa 2" xmlns="http://www.w3.org/2000/svg" viewBox="0 0 285.16 110.24">
  <defs>
    <style>
      .cls-1 {
        fill: #fff;
      }
    </style>
  </defs>
  <g id="Capa_1-2" data-name="Capa 1">
    <g>
      <path class="cls-1" d="m70.96,56.99l4.63,1.76h0c.17.1.36.17.57.19.76.08,1.44-.48,1.52-1.24.08-.76-.48-1.44-1.24-1.52-.14-.01-.28,0-.41.03h0s-5.06.78-5.06.78Z"/>
      <path class="cls-1" d="m77.8,62.7c.26-.8-.18-1.65-.97-1.91-.18-.06-.37-.08-.55-.07h0s-6.01-.48-6.01-.48l5.13,3.17h0c.14.11.3.21.49.27.8.26,1.65-.18,1.91-.97"/>
      <path class="cls-1" d="m76.94,67.95c.45-.79.17-1.8-.63-2.25-.14-.08-.28-.13-.43-.16h0s-6.96-2.28-6.96-2.28l5.36,4.98h0c.12.12.25.24.41.33.79.45,1.8.17,2.25-.63"/>
      <path class="cls-1" d="m75.11,73.31c.66-.73.61-1.85-.12-2.51-.12-.11-.26-.2-.4-.27h0s-7.63-4.57-7.63-4.57l5.33,7.13h0c.08.12.17.24.29.34.73.66,1.85.61,2.52-.12"/>
      <path class="cls-1" d="m72.21,75.7h0l-7.71-7.52,4.66,9.68h0c.06.13.12.26.21.38.62.85,1.82,1.04,2.67.42.85-.62,1.04-1.82.42-2.67-.08-.11-.16-.2-.26-.29"/>
      <path class="cls-1" d="m68.56,80.72s-.04-.07-.07-.1l-6.43-9.78,2.88,11.36c.01.05.03.1.04.16v.04h.01c.02.08.05.17.08.25.45,1,1.63,1.45,2.64,1,1-.45,1.45-1.63,1-2.64-.04-.08-.09-.15-.13-.23h0l-.03-.05Z"/>
      <path class="cls-1" d="m59.54,85.98v.05h0c0,.09,0,.18.03.27.24,1.1,1.32,1.81,2.43,1.57,1.11-.24,1.81-1.32,1.57-2.43-.02-.09-.05-.17-.08-.26h0s-.02-.06-.02-.06c-.01-.03-.02-.07-.04-.1l-4.52-11.99.61,12.81s0,.09,0,.14"/>
      <path class="cls-1" d="m55.1,90.92c1.2,0,2.17-.98,2.17-2.18,0-.1-.02-.19-.03-.28h0v-.07s-.02-.08-.03-.11l-2.07-13.5-2.18,13.49s-.01.09-.02.14v.06s0,0,0,0c-.01.09-.03.19-.03.28,0,1.2.98,2.17,2.18,2.17"/>
      <path class="cls-1" d="m45.69,88.94c-.08.16-.14.33-.17.51-.26,1.25.53,2.47,1.78,2.73,1.24.26,2.47-.53,2.73-1.78.04-.18.05-.35.05-.52l.75-14.19-5.14,13.25Z"/>
      <path class="cls-1" d="m42.11,90.48c.08-.18.13-.36.17-.54l3.82-14.27-8.15,12.32c-.11.15-.22.31-.3.49-.55,1.23,0,2.67,1.23,3.22,1.23.55,2.67,0,3.22-1.23"/>
      <path class="cls-1" d="m29.53,86.13c-.84,1.14-.59,2.75.56,3.59,1.15.84,2.75.59,3.59-.56.12-.16.22-.34.29-.51l7.25-14.16-11.29,11.21c-.15.13-.28.27-.4.43"/>
      <path class="cls-1" d="m11.18,83.65l21.01-15.07-23.65,10.46c-.16.06-.32.13-.48.22-1.28.76-1.71,2.42-.95,3.7.76,1.28,2.42,1.71,3.7.94.13-.08.25-.16.36-.26"/>
      <path class="cls-1" d="m21.51,81.93c-1.11,1-1.19,2.71-.18,3.82,1,1.1,2.71,1.19,3.82.18.15-.14.28-.28.39-.44l11.05-13.45-14.57,9.53c-.18.1-.35.22-.5.36"/>
      <path class="cls-1" d="m4.26,68.89c-1.49.49-2.3,2.09-1.81,3.58.49,1.49,2.09,2.3,3.58,1.81.17-.06.33-.13.48-.21l21.69-9.98-23.4,4.69c-.18.02-.36.06-.55.12"/>
      <path class="cls-1" d="m3.28,63.73c.21-.02.41-.07.61-.13l20.98-5.09-21.58-.68c-.2-.02-.41-.02-.63,0-1.63.17-2.81,1.63-2.64,3.26.17,1.63,1.63,2.81,3.26,2.64"/>
      <path class="cls-1" d="m2.49,52.58c.21.02.41.02.61,0l19.49-.67-18.91-4.76c-.18-.06-.38-.1-.58-.13-1.53-.17-2.91.94-3.08,2.47-.17,1.53.94,2.91,2.47,3.08"/>
      <path class="cls-1" d="m4.43,42.11c.26.08.53.13.79.14l16.47,2.2-14.62-7.89c-.22-.14-.47-.27-.73-.35-1.63-.53-3.38.37-3.9,1.99-.53,1.63.36,3.37,1.99,3.9"/>
      <path class="cls-1" d="m8.19,31.68c.26.15.54.26.82.32l13.58,4.55-10.82-9.41c-.19-.21-.42-.39-.67-.53-1.4-.81-3.2-.32-4,1.08-.81,1.4-.32,3.19,1.08,4"/>
      <path class="cls-1" d="m31.69,9.72h0s5.28,4.81,5.28,4.81l-.16-7c0-.41-.08-.82-.26-1.22-.67-1.53-2.46-2.23-3.99-1.55-1.53.67-2.23,2.46-1.56,3.99.17.38.4.7.68.97"/>
      <path class="cls-1" d="m22.78,16.36h0s7.67,4.98,7.67,4.98l-2.43-8.7c-.1-.46-.29-.91-.59-1.31-1.13-1.56-3.32-1.9-4.88-.77-1.56,1.13-1.91,3.32-.77,4.88.28.38.62.69,1,.93"/>
      <path class="cls-1" d="m15.13,23.69l10.42,5-6-9.62c-.18-.38-.44-.73-.78-1.04-1.4-1.27-3.55-1.16-4.82.24-1.26,1.39-1.16,3.55.24,4.81.28.26.6.46.94.6"/>
      <path class="cls-1" d="m42.35,5.6l2.87,3.01,1.31-4c.16-.44.21-.93.11-1.42-.28-1.4-1.65-2.31-3.06-2.02-1.4.29-2.31,1.65-2.02,3.05.11.55.4,1.03.78,1.38"/>
      <path class="cls-1" d="m48.69,40.82l-1.02-5.5h0c-.02-.1-.05-.21-.1-.31-.32-.7-1.14-1-1.84-.69-.7.31-1.01,1.14-.69,1.83.05.11.12.21.2.31l3.44,4.36Z"/>
      <path class="cls-1" d="m48.87,33.41c.02.11.06.22.11.31h0l2.88,6.07.02-6.69v-.09h0c0-.08,0-.16-.03-.24-.18-.82-.98-1.34-1.8-1.17-.82.18-1.34.98-1.17,1.8"/>
      <path class="cls-1" d="m55.12,29.51c-.91,0-1.64.75-1.64,1.66,0,.14.02.28.06.41h0l1.62,7.87,1.59-7.96s0,0,0,0v-.02s0,0,0,0c.02-.1.03-.2.03-.31,0-.91-.75-1.64-1.66-1.64"/>
      <path class="cls-1" d="m58.46,39.79l3.62-8.97c.05-.12.1-.24.13-.37.21-.96-.4-1.91-1.36-2.12-.96-.21-1.91.4-2.12,1.36-.03.13-.04.26-.04.39l-.23,9.71Z"/>
      <path class="cls-1" d="m67.17,28.27c-.97-.43-2.1,0-2.53.97-.05.12-.09.24-.12.35l-2.9,11.22,6.34-9.71h0c.07-.1.13-.2.18-.31.43-.96,0-2.09-.97-2.52"/>
      <path class="cls-1" d="m73.82,29.52c-.89-.52-2.14-.35-2.78.36-.05.06-.09.12-.13.18h0l-.02.03s-.04.07-.06.1l-5.21,8.41,8.35-6.59s.07-.05.1-.08l.04-.03h0c.06-.05.12-.1.17-.16.65-.71.45-1.71-.45-2.23"/>
      <path class="cls-1" d="m77.59,32.35c-.07.06-.12.13-.18.2h0s-.04.04-.04.04c-.03.03-.05.06-.08.09l-8.07,9.99,10.75-7.04s.07-.04.1-.07l.05-.03h0c.07-.05.15-.1.22-.16.84-.76.9-2.05.14-2.89-.76-.84-2.05-.9-2.89-.14"/>
      <path class="cls-1" d="m86.63,37.14c-.6-1.04-1.94-1.39-2.98-.78-.08.05-.16.11-.23.17h0s-.05.04-.05.04c-.03.03-.07.05-.1.08l-10.65,8.62,12.78-4.95s.08-.03.12-.05l.06-.02h0c.09-.04.18-.07.26-.12,1.04-.6,1.39-1.94.79-2.97"/>
      <path class="cls-1" d="m90.19,46.36c1.21-.4,1.87-1.7,1.47-2.91-.39-1.21-1.7-1.87-2.91-1.47-.17.06-.33.13-.48.22l-12.66,6.49,14.06-2.23c.17-.02.35-.05.52-.1"/>
      <path class="cls-1" d="m93.21,53.79c1.34-.14,2.31-1.34,2.17-2.68-.14-1.34-1.34-2.31-2.68-2.17-.2.02-.38.06-.55.13l-14.26,3.87,14.75.84c.19.02.38.03.57,0"/>
      <path class="cls-1" d="m95.07,62.12c1.41.15,2.68-.87,2.83-2.28.15-1.41-.87-2.68-2.28-2.83-.2-.02-.4-.02-.59,0l-15.9.83,15.37,4.14c.18.06.37.11.57.13"/>
      <path class="cls-1" d="m103.05,83c.73-1.3.27-2.95-1.03-3.68-.13-.08-.27-.13-.41-.18l-23.31-10.45,20.64,15.05c.13.11.27.21.43.3,1.3.73,2.95.27,3.68-1.03"/>
      <path class="cls-1" d="m95.34,71.21c1.42.45,2.94-.33,3.4-1.75.45-1.42-.33-2.94-1.76-3.39-.19-.06-.39-.1-.58-.12l-17.18-2.8,15.56,7.81c.17.1.36.19.56.26"/>
      <path class="cls-1" d="m95.98,88.36c-.13-.12-.28-.22-.42-.31l-19.31-13.74,15.56,17.85c.11.15.24.29.38.42,1.16,1.04,2.96.95,4-.22,1.05-1.16.95-2.95-.21-4"/>
      <path class="cls-1" d="m88.27,95.89c-.12-.17-.26-.32-.41-.46l-14.87-15.57,10.18,18.98c.08.19.19.37.31.54.96,1.32,2.82,1.62,4.15.65,1.32-.96,1.62-2.82.65-4.14"/>
      <path class="cls-1" d="m73.98,104.45c.63,1.41,2.28,2.04,3.69,1.41,1.41-.63,2.04-2.28,1.41-3.69-.08-.18-.18-.35-.3-.51l-10.4-16.63,5.41,18.85c.04.19.1.38.18.57"/>
      <path class="cls-1" d="m62.96,107.05c.36,1.67,2.01,2.73,3.68,2.37,1.67-.36,2.73-2.01,2.37-3.68-.06-.26-.14-.5-.26-.72l-6.36-15.65.5,16.86c-.01.27,0,.54.06.82"/>
      <path class="cls-1" d="m55.17,110.24c1.62,0,2.92-1.32,2.92-2.94,0-.28-.04-.56-.12-.82l-2.79-14.13-2.81,14.09c-.09.28-.13.57-.13.88,0,1.62,1.32,2.92,2.94,2.92"/>
      <path class="cls-1" d="m22.54,100.1c1.35.99,3.25.69,4.24-.66.24-.33.41-.7.5-1.08h0s2.02-7.46,2.02-7.46l-6.49,4.13c-.35.2-.67.48-.93.83-.99,1.35-.69,3.25.66,4.23"/>
      <path class="cls-1" d="m37.21,104.09c.19-.43.29-.88.3-1.33h0s.83-9.68.83-9.68l-6.68,7.02c-.35.32-.64.71-.84,1.16-.78,1.76.01,3.83,1.78,4.61,1.76.78,3.83-.01,4.61-1.78"/>
      <path class="cls-1" d="m47.7,106.85c.08-.36.09-.72.06-1.07l-.75-12.13-5.48,10.6c-.23.35-.41.74-.5,1.17-.4,1.84.78,3.65,2.62,4.05,1.84.39,3.65-.78,4.05-2.62"/>
      <path class="cls-1" d="m13.94,92.34c.95,1.07,2.59,1.17,3.66.22.34-.3.58-.67.72-1.06l1.8-4.64-4.75,1.23c-.43.09-.85.28-1.2.6-1.07.95-1.17,2.58-.22,3.65"/>
      <path class="cls-1" d="m41.76,71.32c-.45.62-.3,1.49.32,1.93.62.45,1.49.3,1.94-.32.07-.09.12-.19.16-.29h0s1.64-4.47,1.64-4.47l-3.65,2.77c-.16.09-.29.22-.4.37"/>
      <path class="cls-1" d="m38.15,68.65c-.14.06-.27.14-.39.24-.62.56-.67,1.52-.11,2.14.56.62,1.52.67,2.14.11.1-.09.17-.18.24-.28h0s3.31-4.91,3.31-4.91l-5.2,2.69h0Z"/>
      <path class="cls-1" d="m33.49,67.81c.46.79,1.47,1.05,2.26.59.15-.09.28-.2.39-.32h0s5.26-4.81,5.26-4.81l-6.85,2.1h0c-.16.04-.31.1-.46.18-.79.46-1.05,1.47-.59,2.26"/>
      <path class="cls-1" d="m31.89,64.76c.14-.04.26-.1.37-.18h0s7.77-4.35,7.77-4.35l-8.78,1.05h0c-.15.01-.3.03-.46.08-.94.3-1.45,1.3-1.15,2.24.3.94,1.3,1.45,2.24,1.15"/>
      <path class="cls-1" d="m28.96,59.94h0s10.39-2.94,10.39-2.94l-10.75-.74h0c-.16-.02-.32-.03-.49-.01-1.05.11-1.81,1.05-1.7,2.1.11,1.05,1.05,1.81,2.1,1.7.16-.02.31-.06.45-.11"/>
      <path class="cls-1" d="m25.89,54.27c.09,0,.18,0,.26,0h0s.05,0,.05,0c.05,0,.1,0,.14,0l11.61-.74-11.21-3.12s-.09-.02-.14-.04h-.04s0,0,0,0c-.08-.02-.17-.04-.26-.05-1.1-.12-2.08.68-2.19,1.77-.12,1.1.68,2.08,1.78,2.19"/>
      <path class="cls-1" d="m23.13,44.95c-.35,1.07.24,2.23,1.32,2.57.09.03.18.04.26.06h0s.06.01.06.01c.04,0,.08.02.12.02l12.6,1.98-11.38-5.77s-.07-.04-.11-.06l-.05-.03h0c-.08-.04-.16-.08-.25-.1-1.07-.35-2.23.24-2.57,1.32"/>
      <path class="cls-1" d="m23.86,37.32c-.6,1.04-.24,2.37.8,2.97.08.05.17.08.26.12h0s.06.02.06.02c.04.02.08.04.12.05l12.74,4.86-10.62-8.54s-.06-.05-.1-.08l-.05-.04h0c-.08-.06-.15-.12-.23-.16-1.04-.6-2.37-.24-2.97.8"/>
      <path class="cls-1" d="m30.11,29.78l-.04-.05h0c-.07-.07-.13-.15-.2-.22-.95-.85-2.41-.78-3.26.17-.85.95-.78,2.41.17,3.26.08.07.16.12.24.18h0s.05.04.05.04c.04.03.08.06.12.08l12,7.73-8.99-11.07s-.06-.07-.09-.11"/>
      <path class="cls-1" d="m34.87,23.43l-.03-.06h0c-.05-.09-.1-.19-.16-.27-.79-1.09-2.31-1.34-3.41-.55-1.09.79-1.34,2.31-.55,3.4.06.09.14.16.21.24h0s.04.04.04.04c.04.04.08.08.13.12l10.51,10.35-6.67-13.14s-.04-.08-.06-.13"/>
      <path class="cls-1" d="m36.26,19.28c.08.18.18.34.3.49l8.63,13.19-4.06-15.22c-.04-.2-.1-.39-.18-.59-.59-1.29-2.11-1.86-3.41-1.27-1.29.59-1.86,2.11-1.27,3.4"/>
      <path class="cls-1" d="m55.16,28.07l2.66-24.89c.03-.16.04-.32.04-.48C57.85,1.2,56.64,0,55.15,0c-1.49,0-2.7,1.22-2.7,2.71,0,.16.02.32.04.47l2.66,24.89Z"/>
      <path class="cls-1" d="m45.47,10.04c-1.46.31-2.39,1.75-2.07,3.21.04.2.11.39.19.57l6.2,16.27-1.05-17.38c0-.2-.02-.4-.06-.6-.32-1.46-1.75-2.38-3.21-2.07"/>
      <path class="cls-1" d="m68.63,5.06c.07-.16.13-.34.17-.52.33-1.53-.65-3.03-2.18-3.36-1.53-.33-3.04.65-3.36,2.18-.04.19-.06.39-.06.57l-1.98,22.95,7.43-21.82Z"/>
      <path class="cls-1" d="m67.8,26.93l11.01-17.71c.12-.17.23-.35.32-.54.67-1.49,0-3.25-1.5-3.92-1.5-.67-3.25,0-3.92,1.5-.09.2-.15.4-.2.61l-5.71,20.06Z"/>
      <path class="cls-1" d="m74.73,28.4l13.13-13.5c.15-.13.28-.28.4-.44.91-1.24.63-2.99-.61-3.9-1.25-.91-3-.64-3.91.61-.12.17-.22.35-.3.53l-8.72,16.7Z"/>
      <path class="cls-1" d="m81.62,31.52l13.73-8.36c.26-.13.5-.29.72-.49,1.26-1.15,1.36-3.11.21-4.37s-3.11-1.36-4.38-.21c-.21.19-.38.4-.52.62l-9.76,12.81Z"/>
      <path class="cls-1" d="m87.94,36.41l13.23-4.43c.29-.06.57-.17.84-.33,1.4-.81,1.88-2.6,1.06-4-.81-1.4-2.6-1.87-4-1.06-.27.15-.5.34-.7.56l-10.43,9.26Z"/>
      <path class="cls-1" d="m102.47,36.53l-9.4,6.48,11.2-.36c.43.03.87-.02,1.3-.16,1.79-.58,2.77-2.51,2.19-4.3s-2.51-2.77-4.3-2.18c-.37.12-.7.3-.99.52"/>
      <path class="cls-1" d="m110.29,61.12c.18-1.66-1.02-3.16-2.68-3.34-.41-.05-.81,0-1.18.1h0l-7.06,2.09,6.39,3.44c.35.2.75.34,1.18.39,1.66.18,3.16-1.02,3.34-2.68"/>
      <path class="cls-1" d="m106.35,46.43c-.47.05-.91.19-1.3.41h0l-8.2,4.11,8.81,2.28h0c.45.14.93.2,1.43.15,1.92-.2,3.31-1.92,3.11-3.84-.2-1.92-1.92-3.31-3.84-3.11"/>
      <path class="cls-1" d="m106.1,69.17c-.44-.14-.89-.16-1.31-.08l-4.5.9,3.04,3.31c.3.35.7.63,1.17.79,1.36.44,2.82-.3,3.27-1.66.44-1.36-.3-2.82-1.66-3.26"/>
      <path class="cls-1" d="m140.23,37.74c0,2.09-1.66,3.29-4.83,3.29h-6.24v-12.07h5.9c3.02,0,4.57,1.26,4.57,3.14,0,1.21-.62,2.14-1.6,2.65,1.35.43,2.21,1.47,2.21,2.98m-8.3-6.67v2.85h2.78c1.36,0,2.11-.48,2.11-1.43s-.74-1.41-2.11-1.41h-2.78Zm5.49,6.38c0-1.02-.78-1.5-2.23-1.5h-3.26v2.98h3.26c1.45,0,2.23-.45,2.23-1.48"/>
      <rect class="cls-1" x="144.06" y="28.97" width="2.79" height="12.07"/>
      <path class="cls-1" d="m150.67,35c0-3.64,2.79-6.24,6.55-6.24,2.09,0,3.83.76,4.97,2.14l-1.79,1.65c-.81-.93-1.83-1.41-3.04-1.41-2.26,0-3.86,1.59-3.86,3.86s1.6,3.86,3.86,3.86c1.21,0,2.23-.48,3.04-1.43l1.79,1.65c-1.14,1.4-2.88,2.16-4.99,2.16-3.74,0-6.54-2.6-6.54-6.24"/>
      <polygon class="cls-1" points="175.13 38.79 175.13 41.04 165.78 41.04 165.78 28.97 174.91 28.97 174.91 31.21 168.56 31.21 168.56 33.83 174.17 33.83 174.17 36 168.56 36 168.56 38.79 175.13 38.79"/>
      <polygon class="cls-1" points="190.14 28.97 190.14 41.04 187.85 41.04 181.83 33.71 181.83 41.04 179.07 41.04 179.07 28.97 181.38 28.97 187.38 36.29 187.38 28.97 190.14 28.97"/>
      <polygon class="cls-1" points="197.22 31.24 193.35 31.24 193.35 28.97 203.88 28.97 203.88 31.24 200.01 31.24 200.01 41.04 197.22 41.04 197.22 31.24"/>
      <polygon class="cls-1" points="216.44 38.79 216.44 41.04 207.09 41.04 207.09 28.97 216.21 28.97 216.21 31.21 209.86 31.21 209.86 33.83 215.47 33.83 215.47 36 209.86 36 209.86 38.79 216.44 38.79"/>
      <polygon class="cls-1" points="231.45 28.97 231.45 41.04 229.15 41.04 223.13 33.71 223.13 41.04 220.37 41.04 220.37 28.97 222.68 28.97 228.69 36.29 228.69 28.97 231.45 28.97"/>
      <path class="cls-1" d="m243.97,38.45h-5.61l-1.07,2.59h-2.86l5.38-12.07h2.76l5.4,12.07h-2.93l-1.07-2.59Zm-.88-2.12l-1.92-4.62-1.91,4.62h3.83Z"/>
      <path class="cls-1" d="m258.64,41.04l-2.33-3.36h-2.57v3.36h-2.8v-12.07h5.23c3.23,0,5.24,1.67,5.24,4.38,0,1.81-.91,3.14-2.48,3.81l2.71,3.88h-3Zm-2.62-9.79h-2.28v4.21h2.28c1.71,0,2.57-.79,2.57-2.1s-.86-2.1-2.57-2.1"/>
      <rect class="cls-1" x="265.34" y="28.97" width="2.79" height="12.07"/>
      <path class="cls-1" d="m271.94,35c0-3.59,2.79-6.24,6.61-6.24s6.61,2.64,6.61,6.24-2.81,6.24-6.61,6.24-6.61-2.65-6.61-6.24m10.39,0c0-2.29-1.62-3.86-3.78-3.86s-3.78,1.57-3.78,3.86,1.62,3.86,3.78,3.86,3.78-1.57,3.78-3.86"/>
      <path class="cls-1" d="m129.15,50.52h5.49c3.95,0,6.66,2.38,6.66,6.03s-2.71,6.03-6.66,6.03h-5.49v-12.07Zm5.35,9.78c2.4,0,3.97-1.43,3.97-3.74s-1.57-3.74-3.97-3.74h-2.55v7.48h2.55Z"/>
      <polygon class="cls-1" points="154.46 60.35 154.46 62.59 145.11 62.59 145.11 50.52 154.24 50.52 154.24 52.76 147.89 52.76 147.89 55.38 153.49 55.38 153.49 57.55 147.89 57.55 147.89 60.35 154.46 60.35"/>
      <polygon class="cls-1" points="158.4 50.52 161.19 50.52 161.19 60.31 167.25 60.31 167.25 62.59 158.4 62.59 158.4 50.52"/>
      <path class="cls-1" d="m187.59,54.9c0,2.69-2.02,4.36-5.24,4.36h-2.43v3.33h-2.79v-12.07h5.23c3.22,0,5.24,1.67,5.24,4.38m-2.83,0c0-1.33-.86-2.1-2.57-2.1h-2.28v4.19h2.28c1.71,0,2.57-.78,2.57-2.09"/>
      <polygon class="cls-1" points="200.63 60.35 200.63 62.59 191.28 62.59 191.28 50.52 200.41 50.52 200.41 52.76 194.06 52.76 194.06 55.38 199.67 55.38 199.67 57.55 194.06 57.55 194.06 60.35 200.63 60.35"/>
      <path class="cls-1" d="m212.26,62.59l-2.33-3.36h-2.57v3.36h-2.8v-12.07h5.23c3.23,0,5.24,1.67,5.24,4.38,0,1.81-.91,3.14-2.48,3.81l2.71,3.88h-3Zm-2.62-9.79h-2.28v4.21h2.28c1.71,0,2.57-.79,2.57-2.1s-.86-2.1-2.57-2.1"/>
      <path class="cls-1" d="m218.85,57.28v-6.76h2.79v6.65c0,2.29,1,3.24,2.69,3.24s2.69-.95,2.69-3.24v-6.65h2.76v6.76c0,3.55-2.04,5.52-5.47,5.52s-5.47-1.96-5.47-5.52m6.24-10.22h2.9l-3.12,2.48h-2.1l2.33-2.48Z"/>
      <path class="cls-1" d="m137.44,81.35v1.99h-7.99v-1.58l4.08-3.85c.94-.89,1.1-1.43,1.1-1.94,0-.83-.57-1.31-1.69-1.31-.91,0-1.68.35-2.19,1.06l-1.78-1.15c.81-1.19,2.29-1.96,4.2-1.96,2.36,0,3.93,1.21,3.93,3.12,0,1.03-.29,1.96-1.77,3.34l-2.43,2.29h4.54Z"/>
      <path class="cls-1" d="m139.91,78.06c0-3.49,1.93-5.46,4.53-5.46s4.53,1.98,4.53,5.46-1.92,5.46-4.53,5.46-4.53-1.98-4.53-5.46m6.6,0c0-2.4-.85-3.4-2.07-3.4s-2.05,1-2.05,3.4.84,3.4,2.05,3.4,2.07-1,2.07-3.4"/>
      <path class="cls-1" d="m159.46,81.35v1.99h-7.99v-1.58l4.08-3.85c.94-.89,1.1-1.43,1.1-1.94,0-.83-.57-1.31-1.69-1.31-.91,0-1.68.35-2.19,1.06l-1.78-1.15c.81-1.19,2.29-1.96,4.2-1.96,2.36,0,3.93,1.21,3.93,3.12,0,1.03-.29,1.96-1.77,3.34l-2.43,2.29h4.54Z"/>
      <polygon class="cls-1" points="166.05 72.77 166.05 83.34 163.6 83.34 163.6 74.74 161.49 74.74 161.49 72.77 166.05 72.77"/>
      <rect class="cls-1" x="174.47" y="78.15" width="4.27" height="1.88"/>
      <path class="cls-1" d="m195.64,81.35v1.99h-7.99v-1.58l4.08-3.85c.94-.89,1.1-1.43,1.1-1.94,0-.83-.57-1.31-1.69-1.31-.91,0-1.68.35-2.19,1.06l-1.78-1.15c.81-1.19,2.29-1.96,4.2-1.96,2.36,0,3.93,1.21,3.93,3.12,0,1.03-.29,1.96-1.77,3.34l-2.43,2.29h4.54Z"/>
      <path class="cls-1" d="m198.12,78.06c0-3.49,1.93-5.46,4.53-5.46s4.53,1.98,4.53,5.46-1.92,5.46-4.53,5.46-4.53-1.98-4.53-5.46m6.6,0c0-2.4-.85-3.4-2.07-3.4s-2.05,1-2.05,3.4.84,3.4,2.05,3.4,2.07-1,2.07-3.4"/>
      <path class="cls-1" d="m217.67,81.35v1.99h-7.99v-1.58l4.08-3.85c.94-.89,1.1-1.43,1.1-1.94,0-.83-.57-1.31-1.69-1.31-.91,0-1.68.35-2.19,1.06l-1.78-1.15c.81-1.19,2.29-1.96,4.2-1.96,2.36,0,3.93,1.21,3.93,3.12,0,1.03-.29,1.96-1.77,3.34l-2.43,2.29h4.54Z"/>
      <polygon class="cls-1" points="229.7 81.12 227.98 81.12 227.98 83.34 225.59 83.34 225.59 81.12 219.9 81.12 219.9 79.47 224.88 72.77 227.45 72.77 222.83 79.13 225.67 79.13 225.67 77.15 227.98 77.15 227.98 79.13 229.7 79.13 229.7 81.12"/>
    </g>
  </g>
</svg>