<?xml version="1.0" encoding="UTF-8"?>
<svg id="Capa_2" data-name="Capa 2" xmlns="http://www.w3.org/2000/svg" viewBox="0 0 188.58 110.24">
  <defs>
    <style>
      .cls-1 {
        fill: #fff;
      }
    </style>
  </defs>
  <g id="Capa_1-2" data-name="Capa 1">
    <g>
      <path class="cls-1" d="m61.71,92.49c-.06-.17-.18-.47-.48-.69-.11-.08-.21-.12-.3-.16-.1-.05-.23-.2-.36-.35l-.06-.07c-.5-.57-1.08-1.08-1.71-1.5l2.25-11.8,1.22-1.4c.79-.9.85-2.21.13-3.17l-3.32-4.51c-.57-.77-1.48-1.23-2.44-1.23l-2.31.02v-5.02c0-.62-.36-1.16-.93-1.4-.57-.25-1.22-.14-1.68.28l-1.86,1.71-3.39.02v-1.11c0-.85-.7-1.53-1.55-1.53h-3.13l.26-.35.38-.47c.4-.52.42-1.24.05-1.78l-3.97-4.7,5.67-11.32c2.91-.75,4.95-1.28,6.39-1.65l.95-.24c1.46-.38,2.18-.56,2.38-.61l2.66.09c.44.02.86-.15,1.16-.46.3-.31.47-.73.44-1.15l-.54-2.62c-.07-.72-.66-1.31-1.4-1.38l-1.97-.15,1.8-2.46c.27-.38.36-.85.24-1.3-.12-.45-.44-.81-.87-1l-6.55-2.88c-.54-.24-1.19-.15-1.64.23l-1.79,1.51-3.31-.29-6.24-8.44c-.1-.14-.23-.26-.37-.36l-3.44-2.34c-.4-.27-.91-.34-1.37-.19l-1.19.39c-.47.16-.83.51-.98.98-.15.47-.08.96.21,1.36l1.09,1.51v1.52l-5.88,6.51-7.36,3.75c-.32.16-.57.43-.71.75l-2.91,6.63-1.01-.1-.2-1.31c-.09-.62-.55-1.11-1.16-1.26l-1.16-.29c-.09-.02-.19-.04-.3-.06-.09-.01-.23-.04-.27-.06-.06-.03-.15-.1-.24-.18-.14-.12-.32-.26-.54-.38-.02,0-.04-.02-.05-.03l.26-.27c.08-.08.22-.23.3-.46.09-.26.05-.49.03-.6-.19-1.09-.54-2.14-1.04-3.13l-.28-.56-.61.15c-.39.1-.84.21-1.26.42-.5.25-.91.59-1.27.9-1.23,1.05-2.51,2.13-3.49,3.51-.14.19-.28.41-.39.66-.08.19-.14.39-.19.64-.4,2.11.62,3.6,1.61,5.04.19.28.38.56.57.82l-1.22.5c-.42.17-.74.52-.88.95s-.08.9.18,1.29l1.43,2.14c.32.49.88.76,1.46.71l2.78-.27,19.39,32.01c.14.22.22.48.24.75l.36,3.72c.09,1.07.65,2.04,1.57,2.66l26.55,16.98c.26.18.57.27.89.27.11,0,.23-.01.34-.04.42-.09.79-.36,1.01-.73l3.34-5.73,1.09-1.58c.15-.08.28-.19.41-.35l.38-.49c.61-.1,1.09-.66,1.12-1.33.02-.51-.2-.95-.33-1.19l-.64-.92Zm-21.14-2.02h-.02c-.44-.4-1.61-1.33-4.78-3.82-.04-.03-3.68-3.33-4.57-4.8-.91-1.5-6.72-11.76-6.78-11.87l-5.23-8.51-4.29-7.56c-.09-.53-.73-4.29-1.58-5.55-.12-.18-.24-.36-.36-.56-.4-.63-.86-1.34-1.81-2.51-.75-.93-.75-1.72-.75-2.64,0-.47,0-.96-.11-1.49-.11-.52,0-.91.16-1.28.15.62.68,1.09,1.33,1.16l.58.06.45,1.59c.02.06.05.12.1.16,1.03.84,3.74,3.09,3.99,3.33.15.15.56,1.16.85,2.01.02.06.06.12.11.15l1.15.85,2.13,6.3c.03.09.1.16.19.2.99.36,2.15.88,2.29,1.06.3.6,3.35,7.23,3.39,7.29.02.05.05.09.09.12,1.17.9,2.5,2.03,2.63,2.28l.24.7c.68,1.94.93,2.61,1.1,2.78.04.04.09.07.15.08.31.08.67.17.92.23.16.04.31.12.43.23l2.38,2.09-.26,1.03c-.02.09,0,.19.05.27l4.32,5.78c.04.06.11.1.18.12l1.23.3c.15.04.31-.04.38-.18l.86-1.98,3.73-.85,5.24,2.87c.12.06.22.14.31.24l.87.89c.06.07.15.11.25.1l.57-.02s.04,0,.07,0c.28-.07.58-.05.84.06l4.88,2.03-1.25,6.57c-.02.11-.03.22-.02.35l.02.4.51.32c.61.38,1.15.85,1.63,1.39l.06.06c.11.13.24.27.39.41l.22.89c.1.41.41.75.82.91,0,0,0,0,0,0-.21.11-.33.26-.38.33l-.18.23-2.77,4.32-4.84-2.01-6.28-5.06c-.24-.21-2.36-2.07-3.44-2.33-.89-.22-1.87.26-2.35.49Zm.1.12h0s-.01,0-.02-.01c0,0,.01,0,.02.01ZM14.39,40.27l2.92-6.63,7.36-3.75c.17-.09.32-.2.45-.34l6.28-6.95v-2.61l-1.38-1.89,1.18-.39,3.44,2.33,6.24,8.44c.26.36.67.58,1.11.62l3.32.3c.41.04.83-.09,1.15-.36l1.79-1.51,6.54,2.86-1.8,2.46c-.33.45-.39,1.02-.15,1.53.23.51.71.84,1.27.89l1.97.16.52,2.54-2.62-.09q-.22-.02-2.83.66l-.95.25c-1.44.37-3.48.9-6.39,1.65-.44.11-.8.4-1,.8l-5.69,11.34c-.25.49-.21,1.08.1,1.53l3.97,4.7-.37.45-.44.6s-.06.09-.08.14l-.1.16v1.06l.11.18c.26.43.72.69,1.22.69h3.39s0,1.09,0,1.09c0,.84.7,1.53,1.55,1.53h3.4c.39,0,.77-.15,1.06-.41l.94-.86.91-.86v5.02c0,.84.7,1.53,1.55,1.53h2.32c.46,0,.9.22,1.17.59l3.32,4.51c.28.38.26.9-.05,1.25l-1.22,1.4c-.18.2-.3.45-.35.72l-.95,4.95-4.75-1.98c-.38-.16-.81-.19-1.22-.1l-.39.02-.77-.79c-.14-.14-.29-.26-.47-.35l-5.34-2.92c-.07-.04-.15-.05-.23-.03l-4.01.91c-.1.02-.18.09-.22.19l-.82,1.88-.85-.21-4.16-5.57.27-1.07c.03-.12,0-.24-.1-.32l-2.52-2.22c-.2-.18-.45-.3-.71-.37-.21-.05-.51-.12-.78-.19-.18-.36-.64-1.67-.93-2.49l-.25-.7c-.16-.44-1.78-1.75-2.78-2.52-.35-.76-3.07-6.66-3.36-7.24-.2-.39-1.44-.92-2.5-1.32l-2.11-6.25c-.02-.06-.06-.12-.11-.15l-1.15-.85c-.18-.53-.66-1.85-.97-2.16-.29-.29-3.33-2.79-3.95-3.3l-.36-1.27c.59-.02,1.11-.37,1.36-.92Zm40.6,63.02l-26.55-16.98c-.51-.35-.83-.9-.88-1.52l-.36-3.72c-.04-.49-.2-.98-.46-1.41L7.36,47.64c-.28-.46-.79-.75-1.33-.75-.05,0-.1,0-.15,0l-2.78.26-1.43-2.12,1.22-.5c.42-.17.74-.52.88-.95.14-.43.08-.9-.17-1.28-.19-.3-.4-.6-.6-.89-.89-1.28-1.65-2.39-1.37-3.88.03-.14.06-.25.09-.33.05-.12.14-.25.23-.37.87-1.22,2.07-2.24,3.23-3.23.32-.27.62-.53.95-.69.1-.05.21-.09.32-.13.27.63.47,1.28.6,1.97l-1.11,1.14c-.81.83-.72,1.49-.51,1.9l.39.75,1.69-1.06s.07.06.11.09c.14.12.31.25.52.36.25.13.52.17.73.21.07.01.13.02.19.04l1.13.27s0,.02,0,.02c.05.29-.07.57-.22.91-.21.48-.48,1.07-.31,1.92.09.46.09.92.09,1.36,0,.95,0,1.93.9,3.04.92,1.14,1.37,1.84,1.77,2.45.13.2.25.38.37.57.82,1.21,1.48,5.31,1.49,5.35,0,.04.02.07.04.11l4.32,7.62,5.23,8.51c.06.1,5.87,10.37,6.79,11.88.94,1.54,4.53,4.8,4.7,4.95,1.75,1.37,4.57,3.6,4.87,3.89.02.04.06.07.09.09.17.11.31.04.55-.08.37-.18,1.24-.61,1.9-.45.79.19,2.55,1.65,3.18,2.2l6.33,5.1s.05.04.08.05l4.79,1.99-2.15,3.35Z"/>
      <path id="PUNCHE" class="cls-1" d="m186.19,18.95c-.2-1.35-.35-2.42-.43-3.08-.5-4.41-2.1-6.55-5.26-9.43-.41-.37-.77-.71-1.09-1.01-2.06-1.91-2.75-2.55-6.24-4.1-2.65-1.18-7.72-1.97-9.29-.63-1.33,1.13-2.29,2.17-2.57,5.17-.07.77-.11,1.87-.1,3.08-.02.34-.05.67-.06,1.01-.7,1.02-1.26,2.16-1.66,3.39-.41,1.27-.71,2.64.1,3.79.5.72,1.23,1.21,1.94,1.61.89.5,1.84.87,2.8,1.14,1.09.31,2.2.48,3.32.47.19,0,.4-.04.6-.12.14.56.36,1.07.75,1.37.59.46,1.35.4,2.04.18.13.67.35,1.31.82,1.66.81.62,1.94.28,2.77-.12.06-.03.13-.07.2-.13-.04.18-.07.36-.11.55-.56,2.78-1.94,10.03-2.51,17.36-.39,4.96-.33,8.97.17,12.01-3-3.04-6.49-4.46-9.31-5.25-3.69-1.03-6.56-.99-6.68-.99h-.72s1.03,1.95,1.03,1.95l.78-.02c7.33.47,12.97,4.38,15.34,6.32.53,1.91,1.3,3.28,2.31,4.1l.54-.77s-3.76-4.32-1.41-23.87c.26-1.21,1.34-9.33,1.97-14.14.36-2.23.46-3.5.46-3.57l-.87-.16s-.19,1.47-.46,3.5c-.11.72-.26,1.53-.43,2.44-.2-.19-.64-.06-.83.03-.24.12-.52.24-.79.21-.37-.05-.62-.41-.75-.8-.32-.95-.4-2.08-.47-3.09-.16-2.21.03-4.43.51-6.57.13-.56-1.21-.34-1.33.19-.57,2.5-.72,5.12-.43,7.69.02.2.04.42.07.64-.15.06-.31.09-.47.07-.37-.05-.62-.4-.74-.79-.32-.95-.4-2.08-.47-3.09-.16-2.2.03-4.43.51-6.56.13-.58-1.21-.36-1.33.18-.57,2.5-.71,5.12-.43,7.69,0,.05.01.1.02.15-.6.28-1.19.3-1.48-.52-.32-.94-.4-2.09-.47-3.09-.16-2.19.03-4.42.52-6.54.08-.37-.39-.47-.6-.45-.3.03-.66.22-.74.59-.52,2.29-.68,4.67-.48,7.03-.1.03-.18.06-.23.09-.35.17-.68.3-1.04.07-.42-.27-.57-.85-.67-1.37-.08-.41-.15-.82-.21-1.23-.07-2.44-.08-6.64.52-8.46.9-2.73,2.22-3.13,3.5-3.16,1.51-.03,5.51.5,8.27,2.29,2.89,1.88,7.09,5.93,8.18,7.88,1.01,1.82,4.71,21.76,4.17,37.04-.52,14.82-5.7,22.4-10.03,24.42-1.11-.12-10.63-1.24-20.51-4.22l-.4-.12-.59,1.84.5.15c6.28,1.84,14.68,3.93,20.28,3.93.44,0,.87-.01,1.28-.04h.06s.06-.03.06-.03c.27-.11,6.59-2.87,9.6-16.94,2.57-12.03-.16-30.8-1.33-38.82Zm-18.03.79c-.12,0-.24,0-.37-.01.12-.03.23-.07.35-.12,0,.04.01.08.02.13Zm-3.34-3.51s0,.05,0,.07c.11,1.01.19,2.42.93,3.11-.94-.24-1.86-.59-2.72-1.04-.7-.37-1.4-.81-1.96-1.44-.36-.41-.61-.95-.68-1.53-.09-.69.11-1.38.3-2.02.13-.43.27-.84.44-1.25.01.26.03.51.06.76.05.46.12.92.2,1.38.1.57.18,1.18.48,1.65.66,1.04,2.02.71,2.94.3Z"/>
      <g>
        <path class="cls-1" d="m90.07,99.18c.06,0,.12,0,.18,0,.79,0,1.7-.53,2.05-1.63.19-.59.15-2.38.07-5.25-.04-1.48-.1-3.41-.04-4.2,4.23.4,7.42-1.92,9.01-6.55,2.3-6.7.48-16.5-3.48-18.72-1.34-.75-3.46-1.01-6.11,1.82-.75-.65-1.43-.58-1.81-.46-.84.27-1.48,1.21-1.55,2.27-.01.16-.19,27.11.12,30.93.08.99.69,1.69,1.55,1.78Zm2.21-15.77c0-10,0-10.83,1.17-13.8.66-1.69,1.46-2.59,2.17-2.46,1.22.22,2.61,3.11,2.66,6.65.06,5.02-.69,8.03-2.31,9.23-.91.67-2.12.8-3.69.38Z"/>
        <path class="cls-1" d="m107.46,91.8c1.27.6,2.61.82,3.78.82,1.33,0,2.43-.27,2.94-.56,1.35-.76,1.57-2.31,1-3.36-.44-.8-1.39-1.36-2.52-.8-.75.37-2.55,0-3.35-.27-1.33-.46-1.93-1.3-1.95-2.79,2.04.08,3.67-.46,4.85-1.6,1.96-1.89,2.25-5.02,2.15-7.32-.03-.69-.4-1.93-.82-2.44-1.14-1.41-2.68-1.79-4.34-1.07-1.72.74-3.42,2.63-4.55,5.06-1.24,2.66-1.68,5.66-1.25,8.44.44,2.79,1.84,4.83,4.07,5.89Zm3.09-12.92c-.26,1.16-.96,2.12-1.89,2.55-.46.22-.92.27-1.3.17.32-3.08,1.65-4.69,2.48-5.03.25-.1.45-.09.59.03.27.23.44.95.11,2.28Z"/>
        <path class="cls-1" d="m116.48,79.64c0,10.68,0,11.55,1.56,11.98.17.05.33.07.49.07.28,0,.54-.07.78-.21,1.17-.69,1.69-3,2.35-5.93.92-4.08,2.07-9.16,5.4-12.12l.11-.1c.99-.88,1.93-1.71,1.64-3.21-.22-1.16-.83-1.47-1.3-1.52-1.84-.22-4.71,3.1-7.16,8.17,0-.3,0-.51.01-.72,0-.3.01-.62.02-1.22,0-1.34-.59-1.89-.95-2.09-.5-.29-1.13-.27-1.68.04-.8.45-1.28,1.4-1.27,2.52,0,1.6,0,3.04,0,4.33Z"/>
        <path class="cls-1" d="m141.33,85.08c-.85-2.12-1.06-7.26-1.19-10.32-.06-1.59-.1-2.44-.18-2.75-.21-.84-.84-1.36-1.63-1.36h0c-.81,0-1.78.58-2.11,1.89-.02.06-.05.26-.11.56-.91,4.97-1.87,8.28-2.87,9.86-.51-1.09-.43-3.51-.31-7.23.03-.92.06-1.92.09-3.01.03-.97-.35-1.78-.99-2.17-.47-.28-1.02-.29-1.5-.03-.52.29-1.41,1.13-1.44,3.6-.01.72-.04,1.47-.07,2.27-.17,4.37-.37,9.33,2.41,11.23.66.45,1.33.6,1.99.43,1.42-.36,2.57-2.12,3.55-3.95.51,2.91.59,3.2.97,3.7.35.46.82.7,1.32.7.29,0,.59-.08.89-.24.97-.54,1.71-1.9,1.2-3.16Z"/>
        <path class="cls-1" d="m147.57,92.76s-.03,0-.08,0c0,0-.09,0,.08,0Zm-1.81.09h.03s-.25.02-.25.02l.22-.02Zm-.74.05h.05s.13-.04.13-.04c-.35.02-.8.08-1.05.07.16.05.59-.04.88-.04Zm-1.55-.07s-.03,0-.04,0c-.04,0-.08,0-.17,0,.06.03-.19.03.2,0Zm-.04,0c.17,0-.11-.02,0,0h0Zm-.74-.02c-.23.03-.18.04-.05.07l.22-.04s-.25-.01-.18-.03Zm-.26.14l.12-.02s-.05,0-.12.02Zm.23-.04s.03,0,.13-.02l-.24.04s.04.04.11-.02Zm.27-.02c.13,0,.29,0,.07.05.43-.04.36-.08-.07-.05Zm1.29.11l.14-.03c-.07.02-.33,0-.31.02h.17Zm-2.99-.11s.08.05.1.08l.16-.03c-.09,0-.25-.01-.26-.04Zm.1.08l-.25.05c.22-.01.26-.03.25-.05Zm1.06.07l.4-.09-.48.1h.08Zm-2.22-.06l.11-.03.14-.06-.24.1Zm-1,.01c.14-.03.29-.03.48,0,.1-.05-.15-.08-.04-.11-.17.02-.31.07-.44.11Zm0,0c-.07.02-.14.04-.22.07.07-.02.14-.04.22-.07Zm1.29,0l.1.06s.06,0,.1,0c-.02-.01-.06-.05-.2-.05Zm.11.06h0c-.11,0-.18,0-.21,0,.03,0,.09,0,.21,0Zm1.03.12c.1-.05-.07-.06.15-.13-.14.04-.44.1-.15.13Zm-.5-.12l-.28.06h.26s-.06-.04.01-.06Zm-.41.09l.13-.03h-.1s-.03.03-.03.03Zm-1.27-.04c-.11.04-.24.05-.38.07.15,0,.31,0,.46-.01.02-.02.08-.07-.08-.06Zm.56-.02s-.02,0-.02,0c.02,0,.03,0,.02,0Zm-2.3.22v-.02s-.02,0-.02,0h.02Zm1.84-.14c.11,0,.18-.02.24-.04-.08.01-.17.02-.27.03,0,.01,0,.02.03.01Zm-.95-.04c.06.01.13.02.2.03-.06-.02-.18-.05-.2-.03Zm1.34-.05h.02s-.03,0-.02,0Zm-.15.05c.07-.01.13-.02.19-.04-.01,0-.03-.01-.04-.02-.06.01-.1.03-.15.05Zm-2.34.32c.1.04.59.04.37.13-.34.08-.28,0-.46-.02.15.08-.42.2-.33.35l.3-.09s-.1.07-.01.08c.01-.09.3-.2.56-.15.25-.09.06-.32-.17-.45,0,.04,0,.07-.26.14Zm.26-.16l.53-.04h-.04s.11,0,.11,0c-.12,0-.21-.02-.38-.07-.17.05-.21.09-.22.11Zm1.1-.14h0s0,0,0,0c.02,0,.03.01,0,0,0,0,0,0-.01,0,0,.01-.01.02-.02.03-.15,0-.02-.02.02-.03,0,0,0,0,0-.01h0s-.5.09-.5.09c.11,0,.24-.01.48-.05-.08.09-.33.15-.17.22.31-.04.21-.09.4-.14-.51.07.14-.06-.23-.07.1-.02.19-.03.27-.04-.09,0-.18-.01-.27-.02,0,0,0,0,.01,0Zm2.55.17s-.02,0-.02-.01c-.03.01-.04.02.02.01Zm-.03-.08c-.16,0-.36-.03-.42-.06.06.05.12.08.24.12.04-.01.06-.04.19-.05.11,0,0,.03,0,.05.07-.02.25-.07.02-.08h-.04Zm-.42-.06s-.01,0-.02-.01c0,0,0,0,.02.01Zm-1.15.22v-.04c.23,0,.17-.05.2-.08l-.42.07.22.04Zm-2.08-.25l-.23.15.18-.06.05-.1Zm-.58.07l-.14.06.13.02v-.08Zm-30.34,7.81l-.11.07c.05-.03.09-.05.11-.07Zm.88-.23v-.08c-.03.05-.04.08,0,.08Zm16-5.61c-.2-.09-.43-.25-.38-.1l.08.14c.12-.05.22-.05.31-.03Zm-8.97,2.89s.04.02.06.04c.03-.07.06-.13.09-.18-.05.04-.1.09-.15.15Zm-.26.65c.06.02.14.04.25.05l-.25-.05Zm-12.38,3.82l-.11.19c.22-.06.11-.11.11-.19Zm29.44-8.57c-.16-.03-.29-.03-.4-.02.2.05.36.13.4.02Zm-24.7,5.3c-.07.05-.09.09-.08.12.07-.05.11-.09.08-.12Zm23.86-5.27s.06.01.09.02c.11-.04.22-.07.36-.08-.14-.03-.31-.05-.45.06Zm-45.8,13.95s-.03,0-.04,0c0,0,.02,0,.04,0Zm-5.03,1.59s.13-.06.2-.09c-.04.02-.09.05-.2.09Zm55.08-16.08c.12-.02.02-.01,0,0h0Zm.57.4s.02-.04.04-.05c-.02.01-.04.03-.04.05Zm-5.87,1.11s0,0-.01,0c.04.02.03.02.01,0Zm5.49-1.48s-.1-.01-.15-.02c.02,0,.07.01.15.02Zm-.03-.05s.07,0,.1,0c.01-.02,0-.03-.1,0Zm-.15.02s-.08.01-.16.02c.07,0,.13,0,.19,0-.02,0-.03,0-.03-.01Zm-40.94,11.1s-.02,0-.03,0c-.1.09-.05.06.03,0Zm26.95-7.22s0,0,.01-.01c0,0-.01,0-.02,0h0Zm-.39.21c.15-.23.25-.23.39-.22l-.2-.41-.18.63Zm15.46-3.9l.27.07c-.15.2-.58,0-.73.08.1-.06.33-.04.35,0l-.08-.13c-.37-.02-.65.13-.9.23.25.02-.29.13-.1.21l.19-.04c.09.04-.09.11-.19.17-.62-.02-1.73.26-1.96.16.13.02.35-.05.46-.11l-.29-.02c.23-.04.43.07.77-.03-.07-.09.17-.26-.11-.36-.68-.07-.51.34-1.31.41-.07.04.15-.19-.27-.08-.52.18-.88.49-.85.73.21-.11.64-.31.73-.16-.21.1-.59.21-.6.32-.25-.16.41-.13.09-.24-.16.03-.21.11-.28.15.09-.1-.16-.12-.21-.16-.51.08-.81.04-1.35.12-.03-.03-.1-.08-.09-.14-.26.1-.6.49-.48.61-.31.07-.34-.03-.59.08.44.12-.09-.02-.1.2-.27.08-.11-.08-.24-.11-.04.03-.14.12-.14.18-.19-.13.27-.48.05-.63-.15-.09-.76-.21-.8-.22-.11.2.03.95.25,1.16,0,.13-.27-.09-.39-.08-.37-.14-.5.26-.79.23l.2-.16c-.05-.04-.46.1-.52.19-.02-.07.17-.42.02-.48-.52.06-.94.57-.88.79l.75-.4c.05.18-.53.3-.47.52l-.73.09c.09-.03.36-.14.24-.22-.31.08-.16,0-.38-.04.32-.32.89-1.05,1.08-1.38l-.36.19-.11-.09c-.47.24-.8,1.06-.9,1.29-.28.01-.24-.42-.19-.51-.55.09-.46.69-1.02.74l.22.05c-.12.07-.61.08-.55.15-.13-.09-.26-.33-.15-.42l-.43.49c.07-.06-.03-.38,0-.45-.2.03-.28.46-.14.49-.42-.16-.3-.05-.66-.27-.11.05.06.36.15.37-.24.15-.4.14-.52.13.4-.24,0-.79.04-1.06l-.75,1.22c.02-.07.04-.41.03-.45-.03.32-1.06.6-1.58.67l.08-.02c.09-.13-.37-.12-.53.03.02-.07.06-.06.14-.08-.38-.16-.36.57-.75.37.32-.04.36-.18.32-.3-.24.17-.85.18-.67.52-.18-.04-.32.05-.33-.14l-.59.37s.06-.17-.13-.15c.36-.04.65-.46.87-.27-.03-.23-.18-.32-.04-.55-.66.27-.97.75-1.36,1.12l-.63-.02v.11s-.16-.24-.16-.24c-.06.08-.1.14-.12.12-.02-.02,0-.06.02-.11-.06.03-.11.07-.14.1-.05-.13.03-.32.12-.49.06.04.13.07.19.11.09-.16.16-.32-.02-.36-.02.02-.05.05-.07.08.06-.12.09-.21.03-.23l-.44.24c.06.02.15.08.26.14-.26.24-.55.53-.26.65l-.38-.07c-.36.36-.3.29-.77.6-.04-.08.08-.19-.03-.24-.31.38-.95-.11-.98.17-.28.14-.08.26-.25.38,0-.03.01-.09-.04-.08l-.19.25c-.1-.04.18-.18-.09-.2-.4.25-.63.41-1.01.42-.5.18.29.32-.15.39-.09-.14-.18-.3-.45-.26-.12.14-.08.26-.31.39l-.03-.24c-.22.07-.39.16-.43-.02-.16.15-.29.16-.39.15-.31.21.34.41.44.48-.37-.09-.57.07-.82-.16l.28-.14c-.68-.11-.53.49-.91.08.22-.04.45-.24.3-.33l-.29.21c-.05-.05.17-.09.01-.12-.08.08-.24.25-.3.34v-.02s-.55.19-.55.19c.11-.02.12-.11,0-.09l-.34.22c.1-.09-.03-.13-.2-.12-.49.06-.27.62-.69.49.05,0,.06-.04.11-.05l-.21-.05c.06.49-1.1.35-1.04.84-.31-.12-.04-.11.25-.43l-.31-.06c.11-.05.22-.04.33-.12-.42-.1-.72.25-.89.44-.16-.03.04-.39-.35-.19-.55.26.18.31-.15.47l-.3-.17c-.4.31-.77.24-1.14.32-.08.04-.12.08-.13.11-.42.01-.78.47-1.09.48.06-.07-.2-.1-.25-.14l-.51.3c.22-.13.18-.26.2-.4-.17.06-.23.16-.34.21.06-.07.12-.14.02-.17l-.51.39s.1,0,.16-.01c-.14.05-.43.22-.65.18,0-.05.06-.12.07-.18.2.09.27-.06.34-.19-.38.14-.1,0-.31-.03-.27.09-.35.3-.25.38-.32.05-.43.05-.71.27l.02-.19-.28.14.19-.28c-.58.06-.03.32-.68.42l-.04-.15c-.22.13-.25.4-.47.28-.21.16.44.08-.09.28-.11-.04-.33-.04-.5-.02-.16.12.17.13.28.07-.8.32-.63-.33-1.31.1.27.02-.14.33.45.14-.26.17-.6-.02-.86.23l.15-.24c-.11.03-.21.13-.26.17v-.14c-.32.35-.71.12-.85.48.09-.28-.27.1-.44.06.26-.26.86-.28.85-.51-.16-.02-.25.13-.4.11.09-.06.21-.17.23-.22-.49.04-.69.38-.95.52l.48-.21c.01.22-.21.11-.31.32-.27-.03-.43.19-.65.19.05-.02.05-.04.11-.05-.54.18-.77-.09-.98-.02-.22.05-.59.29-.42.32-.16.11.7-.3.46.06-.38-.19-.6.31-1.32.35.27-.2-.21-.09.03-.26-.31.14-.31.18-.43.31l-.12-.05c-.37.33-.05.2-.66.51.19-.13-.28-.03-.14-.14-.18.06-.34.14-.45.23l.02-.02c-.63.26-.55.09-1.1.37l.07.02c-.73.36-1.7.65-2.48.97l.28-.07c-.09.01-.51.24-.77.27.05-.02.13-.06.18-.08-.02-.03-.13-.05-.32,0l-.06.08h-.09c-.29.09.11.03-.18.13-.21-.08-1.24.42-1.52.4-.17.15.55-.18.35-.03-.09.02-.14.02-.32.08l.08.03c-.88.28-1.21.38-1.98.68l.03-.02c-.28.09-.42.16-.54.22-.06.01.14-.07.03-.04-.47.23-.97.34-1.26.48.03-.04-.6.21-.34.09l-.19.09c.06-.04.61-.28.71-.35.2-.09.41-.18.62-.26-.02,0,.07-.06-.03-.02.15-.07.28-.14.08-.06.74-.31,1.48-.63,2.22-.98.74-.34,1.47-.68,2.21-.93.1-.05.03-.06-.01-.06.29-.03.24-.15.38-.23l.43-.04c.15-.11.01-.1.02-.13.73-.35,1.49-.52,2.07-.85.21-.02,0,.15.25.07-.39-.03.72-.38.46-.41.3.09.92-.33.89,0,.31-.1.22-.22.13-.21.36-.13.64-.24.91-.45.21,0,1.59-.72,1.97-.58-.26-.08,0-.09.18-.24l-.22-.07.47-.16c.09-.05.12-.05.12-.04.08-.02,0,.09.21.06.32-.11.32-.2.47-.34h-.05s.21-.1.21-.1c.16-.05-.52.36.01.25,0-.04.25-.36.42-.3-.27.09-.21.19-.1.2l.37-.13-.17-.15c.53-.19,1.09-.36,1.65-.52.56-.16,1.14-.31,1.71-.52.03.2.81-.27.78.06h-.05c-.27.11.14.19.36.08-.26-.01.36-.44-.23-.29l.42-.29c.12-.65,1.21-.38,1.85-.77-.04.04-.05.07-.05.09.57-.39,1.4-.27,1.52-.41l.09.15c.46-.42.52-.47,1.16-.56,0,.03-.06.1.04.11.12-.17.25-.35.68-.45v.06c.21-.08.43-.16.65-.23.11.54,1.08-.67,1.4-.14.1-.2.58-.39.78-.53,0,.02.02.04.07.06.2-.37.76-.12,1.04-.24.17-.12.07-.2-.03-.27.41.13.96-.55,1.12-.49.27-.05.14.19.24.29.39-.16-.17-.49.42-.41-.06.04-.17.09-.12.11.22,0,.71.54.89.35l-.15-.06c.35-.24.97.22.96-.17l-.07-.17c.69.06.26-.14.95-.11v.03c.28-.11.47.07.56-.25h-.11c.35-.13.39-.12.75-.19.04-.04.21-.12.27-.07-.03-.24.82-.31.99-.34-.28.1-.13.17-.03.25.14-.23.25-.28.51-.2-.02-.3-.02-.63.43-.75-.06.06-.17.11-.12.16.06.05.15-.04.19-.07.06.05-.08.13-.01.22.26-.35.54-.15.97-.36-.13.12,0,.15.07.24-.02-.34.67.14.42-.25.93.05,2.26-.47,2.65-.27.11.1.33-.15.48-.18v.15c.39-.35.32-.17.79-.53-.19.21-.09.27.15.36l.31-.37.1.2c.13-.12.3-.11.46-.11-.08.02-.03.03-.02.07.03-.31.67-.4.74-.55.2.26.41-.15.56.1.05-.05.11-.09.18-.14-.09-.11-.14-.24,0-.21.01,0,.02,0,.03-.01l.09.15c.14-.07.28-.11.38-.13-.05,0-.1-.03-.16-.05.07.01.13.03.19.05.02,0,.04,0,.05,0,0,0-.02.01-.03.01.09.02.19.02.31-.05.54.15,1.08-.54,1.68-.31-.09-.02-.21-.01-.23.05.46-.1.96.05,1.24-.11l-.04-.14c.33-.12.59-.21.87-.24v-.16c.4,0,1.24-.38,1.52-.1.08-.14.56-.05.78-.12l.07.1c.3,0,.48-.07.66-.12.63.15,1.17-.15,1.7-.2v.03s.54-.14.54-.14c-.13.11.1-.08.26-.07.17-.07.45-.08.65-.04l.34-.04c-.37.11.04.14.07.24l.21-.12c.09.04-.13.1.03.11.14-.08.57-.12.7-.24-.02-.02-.08-.04-.15-.06-.02,0-.02,0,0,0h-.02s.01,0,.02,0c.02-.01.04-.03.06-.05.28,0,.17-.04.16-.08.33.13.49,0,.74.17-.34-.18.71-.07.49-.25.25.13.16,0,.32.11-.33,0-.64.16-.89.26Zm-43.34,10.48h-.08s-.07.1.08,0Zm16.32-3.8c-.15-.02-.24-.1-.3.13.08.09.22-.07.3-.13Zm6.44-2.09c-.11-.02-.2,0-.27.03.12.04.22.05.27-.03Zm18.24-4.55c-.13,0-.2-.02,0,0,0,0,0,0,0,0Zm-18.94,4.97s-.04-.06-.05-.09c-.03.04-.02.07.05.09Zm-12.62,3.82h-.01s0,.02,0,.03l.02-.03Zm26.03-6.66c-.08,0-.13-.03-.16-.05,0,.04.04.06.16.05Zm7.99-2.54l-.25.05c.12-.02.17,0,.23.01,0-.02-.06-.06.02-.07Zm2.25.38s.08-.01.11-.03v-.04c-.17.02-.28.07-.11.07Zm-1.98-.05c.03.09.18.04.36,0-.01,0-.02,0-.03,0,.04-.13-.14-.07-.33,0Zm.4,0c.05-.01.11-.02.16-.02.02-.05-.07,0-.16.02Zm-2.15-.14c.08-.14-.54.22-.09.1.09.01.04-.13.09-.1Zm1.76.42h.16s-.07-.1-.07-.1l-.09.1Zm-1.23.1h.28s.03-.04.07-.05c-.17.02-.37.02-.36.05Zm.58-.1s-.15.02-.22.05c.09,0,.18-.02.22-.05Zm.15.09h.28s-.09-.02-.09-.02l-.2.02Zm-3.76.42l-.3.09c-.03.05.06.07.17.03.07-.04.18-.08.13-.12Zm.83.31l.14-.09c-.09-.01-.09-.04-.15-.08v.17Zm-.75.1c-.03.05-.43.21-.04.13.03-.05.33-.14.04-.13Zm-4.63.57l.08-.02-.05-.32-.03.33Zm-3.74,1.29c-.2.13-.33.11-.19.31.37,0,.05-.23.39-.2.07-.1-.28-.03-.2-.12Zm0,0s.07-.05.1-.08c-.06.03-.09.06-.1.08Zm-44.81,13.23l-.22.11.14-.07.08-.04Zm-.6.3s.13-.06.18-.09l-.05.02-.13.06Zm31.05-9.64l.2.09v-.06c-.04-.05-.1-.04-.2-.03Zm-2.93.75h.05s-.14-.19-.14-.19l.09.19Zm-2.54.98c.11-.02.22-.1.33-.13-.22.1-.41-.12-.33.13Z"/>
        <path class="cls-1" d="m134.02,69.5c.42.14.78.2,1.12.2.03,0,.06,0,.1,0h.06c.26,0,.66-.02.92-.29l2.97-3.08c.23-.24.21-.48.18-.6-.12-.49-.85-.76-1.07-.84-.46-.15-.85-.22-1.21-.2h-.06c-.26,0-.66.02-.92.29l-2.97,3.08c-.23.24-.21.48-.18.6.12.49.85.76,1.07.84Z"/>
      </g>
      <g>
        <path class="cls-1" d="m87.18,22.21c1.06.79,2.27-.96,2.52-2.49.25-1.55,2.47-1.66,2.44-.1-.08,3.52-4.23,6.82-6.83,4.49-2.91-2.6-3.41-6.85-3.04-10.98.89-10.09,6.45-11.55,8.38-9.09,2.62,3.35-.81,5.18-1.54,2.93-.24-.72-.43-2.04-1.67-1.26-2.94,1.87-4.36,13.46-.24,16.52Z"/>
        <path class="cls-1" d="m93.01,20.27c-1.66-3.46.15-13,5.08-9.55,1.29.9,1.73,3.14,1.76,4.81.12,6.77-5.11,8.35-6.84,4.74Zm2.94-7.71c-.94.61-1.68,6-.28,6.9,1.98,1.27,2.39-6.48.28-6.9Z"/>
        <path class="cls-1" d="m108.56,20.45c-.33-.9-.13-7.49-1.82-8.3-.24.16-.38.38-.52.58-2.4,3.56-2.03,8.64-4.24,8.39-1.16-.13-.98-.38-1.53-9.5-.1-1.71,2.22-2.1,2.43-.67.07.52.14,1.83.18,2.56.47.03,1.58-4.69,4.79-3.72,2.79.84,2.75,6.19,3.08,9.58.17,1.77-1.91,2.3-2.37,1.07Z"/>
      </g>
      <g>
        <g>
          <path class="cls-1" d="m74.29,23.2c-1.68-.95-4.35-1.3-7.67,2.21-.94-.79-1.8-.7-2.27-.55-1.06.34-1.87,1.51-1.95,2.85-.01.2-.24,33.49.15,38.21.1,1.24.87,2.12,1.97,2.24.08,0,.16.01.24.01,1,0,2.15-.67,2.59-2.05.23-.74.19-2.95.09-6.5-.05-1.79-.12-4.14-.05-5.13,5.28.47,9.27-2.41,11.25-8.17,2.9-8.41.66-20.29-4.35-23.12Zm-2.84,5.4c1.5.27,3.22,3.82,3.27,8.17.08,6.16-.85,9.87-2.84,11.34-1.12.83-2.61.99-4.55.49,0-12.31,0-13.33,1.45-16.99.82-2.07,1.79-3.17,2.67-3.01Z"/>
          <path class="cls-1" d="m94.54,54.59c-.72-8.55-.62-14.28-.56-18.06.06-3.55.09-5.17-.65-6.04-.32-.38-.77-.58-1.32-.58h0c-2.14.02-2.27,2-2.53,5.96-.09,1.4-.21,3.15-.42,5.28-.55,5.57-1.77,10.41-2.51,12.39-.75-2.3-.9-8.18-.95-10.33,0-.36-.02-.69-.03-.99-.09-3.1.07-5.29.19-6.89.14-1.87.21-2.9-.32-3.6-.31-.41-.78-.62-1.39-.64-1.13-.03-2.17,1.04-2.3,2.37-.02.23-1.95,22.76,3.4,25.27.44.21.88.31,1.32.31s.88-.11,1.28-.33c1.13-.62,1.94-2.05,2.58-3.72.01.27.01.47,0,.55-.14.93.15,1.79.77,2.3.66.54,1.58.58,2.29.09.85-.58,1.27-1.8,1.14-3.34Z"/>
        </g>
        <path class="cls-1" d="m111.33,28.18c-.19-.79-.66-1.44-1.32-1.84-.63-.37-1.38-.47-2.11-.28-1.37.36-2.67,1.85-2.32,4.28.42,2.87.47,6.88.39,10.37-.86-2.23-2.05-5.27-3.72-9.49-.55-1.39-1.75-2.19-3.06-2.03-1.36.17-2.47,1.29-2.77,2.8-.81,4.14-.06,23.4,1.02,26.09.44,1.1,1.41,1.78,2.53,1.78.34,0,.67-.06,1-.18,1.24-.46,2.43-1.91,2.11-4.01-.38-2.54-.63-5.05-.8-7.31.44,1.06,2.74,6.48,3.46,7.3.72.81,1.77,1.14,2.81.88,1.07-.27,1.95-1.13,2.35-2.3.61-1.79,1.69-20.7.42-26.05Zm-1.79,25.59c-.24.71-.74,1.22-1.33,1.37-.5.13-.99-.03-1.35-.44-.5-.56-2.97-6.24-3.27-7.03-.36-.94-.7-1.86-1.03-2.75-.72-1.93-1.36-3.65-1.96-5-.08,2.37.04,9.18,1.06,15.97.2,1.31-.48,2.19-1.18,2.45-.17.06-.33.09-.49.09-.51,0-.96-.31-1.18-.87-.89-2.22-1.79-21-.95-25.29.17-.88.8-1.56,1.52-1.65.65-.08,1.22.34,1.53,1.13,3.11,7.86,4.56,11.65,5.34,13.68.49,1.29.69,1.79.83,2.11.26-2.61.76-11.94-.04-17.4-.23-1.57.46-2.48,1.25-2.69.76-.2,1.44.25,1.64,1.06,1.26,5.29.08,23.9-.38,25.26Z"/>
        <path class="cls-1" d="m123.86,42.88c-1.44-.15-3.12.84-3.41,2.96-.07.53-.24,1.01-.41,1.37-.87-1.34-1.66-4.03-1.53-8.2.11-3.47.81-6.28,1.5-7.8.45,1.14,1.33,1.87,2.4,2,1.23.14,2.4-.58,2.99-1.82.36-.75.98-2.82-.91-5.68-1.17-1.77-3.22-2.47-5.22-1.78-1.72.59-5.82,3.13-6.62,13.86-.51,6.78.72,11.8,3.64,14.9.93.98,2.07,1.5,3.32,1.5.75,0,1.51-.19,2.25-.56,2.54-1.27,4.43-4.49,4.49-7.64.03-1.67-.99-2.95-2.49-3.11Zm-2.65,9.47c-.54.27-1.08.41-1.59.41-.83,0-1.6-.35-2.25-1.05-2.64-2.8-3.73-7.45-3.26-13.82.76-10.17,4.52-12.23,5.65-12.61,1.37-.47,2.72,0,3.52,1.21,1.49,2.26,1.06,3.75.81,4.29-.32.68-.91,1.07-1.51,1-.61-.07-1.09-.58-1.32-1.41-.03-.1-.06-.22-.09-.34-.13-.52-.29-1.16-.6-1.3-.17-.07-.41,0-.71.23-1.46,1.09-2.66,5.4-2.81,10.01-.15,4.71.81,8.44,2.57,9.98h0c.23.2.46.24.72.12.66-.31,1.36-1.67,1.54-3.03.17-1.23,1.06-1.81,1.82-1.73.74.08,1.21.73,1.19,1.65-.05,2.61-1.64,5.36-3.69,6.39Z"/>
        <g>
          <path class="cls-1" d="m139.46,31.49c-.01-2.06.06-6.03.1-7.65,0-.43.01-.71.01-.76,0-1.49-.85-2.2-1.59-2.36-1.09-.24-2.2.49-2.59,1.69-.2.61-.24,2.57-.26,7.04,0,1.04,0,1.98-.02,2.65-1.55.26-2.5.46-3.09.61-.02-1.26.03-3.31.07-5.02.02-.71.03-1.36.04-1.89.02-.94-.3-1.69-.88-2.13-.61-.45-1.43-.48-2.14-.07-1.39.82-1.4,1.67-1.41,7.21,0,.83,0,1.78,0,2.86v.02c-.96.32-2.53,1.1-2.17,3.16.12.67.41,1.16.85,1.45.47.31,1.01.31,1.43.25.08,2.23.07,4.04.06,5.41-.02,2.71-.03,3.94.66,4.73.36.41.86.6,1.5.57.88-.04,1.69-.7,2.07-1.69.18-.46.18-1.49.09-5.33-.04-1.78-.08-3.61-.05-4.64,1.05-.28,2.22-.49,3.02-.61.22,3.36.15,6.12.11,8.17-.07,2.97-.11,4.6.69,5.49.34.39.8.59,1.35.59h0c.06,0,.12,0,.18,0,1.03-.08,1.91-.97,2.15-2.17.07-.38.05-2.17-.06-7.71-.04-1.92-.08-3.9-.08-4.96,1.05-.15,2.6-.5,2.76-2.54.06-.73-.11-1.31-.49-1.74-.6-.67-1.51-.71-2.29-.62Z"/>
          <path class="cls-1" d="m153.68,43.55c-1.17-1.07-2.12-.31-2.95.35-.37.29-.83.66-1.44,1.04-.62.38-.81.23-.9.16-.99-.78-1.25-4.87-1.08-7.79.54-.11,1.06-.17,1.53-.23,1.62-.2,3.47-.43,3.53-2.76.02-.71-.16-1.27-.54-1.66-.82-.85-2.18-.62-3.76-.34-.23.04-.46.08-.7.12.02-1.89.12-5.89.19-7.47,1.05-.19,2.79-.45,3.17-.42.86.25,1.74-.05,2.36-.8.61-.74.87-1.78.65-2.64-.19-.75-.72-1.29-1.45-1.49-.92-.25-5.62.57-7.05.97-2.07.58-2.09,1.96-2.12,6.54,0,1.06-.02,2.38-.05,3.94-.01.67-.04,1.42-.07,2.21-.22,6.24-.49,14.01,2.91,16.23.6.39,1.28.59,2.02.59,1.5,0,3.27-.81,5.39-2.49.64-.51,1.05-1.36,1.08-2.24.02-.73-.23-1.38-.72-1.82Z"/>
        </g>
      </g>
    </g>
  </g>
</svg>