<?xml version="1.0" encoding="UTF-8"?>
<svg id="Capa_2" data-name="Capa 2" xmlns="http://www.w3.org/2000/svg" viewBox="0 0 221.22 41.43">
  <defs>
    <style>
      .cls-1 {
        fill: #e30613;
      }

      .cls-2 {
        fill: #706f6f;
      }
    </style>
  </defs>
  <g id="Capa_1-2" data-name="Capa 1" style="filter:drop-shadow(1px 1px 3px #888); height: 85px;">
    <g>
      <path class="cls-2" d="m40.52,9.1c.06,4.72,3.96,8.48,8.74,8.42,4.71-.06,8.51-3.93,8.47-8.61-.04-4.72-3.94-8.51-8.7-8.46-4.75.05-8.57,3.93-8.5,8.66"/>
      <path class="cls-2" d="m60.8,16.72c-2.85,2.99-6.84,4.88-11.29,4.94-3.31.04-6.38-.91-8.94-2.57-.21-.13-.45-.23-.7-.32-.37-.27-.75-.51-1.12-.76l-6.95,8.73c.48.25.95.51,1.4.8.17.11.36.18.56.23,8.8,6.37,18.43,7.2,28.3,2.16,2.82-1.44,5.21-3.2,7.2-5.24l-8.46-7.98Z"/>
      <path class="cls-1" d="m13.74,8.66c.06,4.72,3.96,8.48,8.74,8.42,4.71-.06,8.51-3.93,8.47-8.61C30.91,3.74,27.01-.05,22.25,0c-4.75.05-8.57,3.93-8.5,8.66"/>
      <path class="cls-1" d="m58.92,21.76c-2.85,2.93-6.8,4.79-11.2,4.85-3.34.04-6.44-.92-9.02-2.61-.17-.11-.36-.18-.56-.23-8.8-6.37-18.43-7.2-28.3-2.16-4.2,2.15-7.45,4.99-9.83,8.43l8.63,8.14c2.66-4.86,7.8-8.21,13.74-8.29,3.31-.05,6.38.9,8.95,2.57.21.13.45.23.7.32,8.78,6.33,18.39,7.15,28.24,2.11,2.76-1.41,5.1-3.12,7.06-5.1l-8.4-8.04Z"/>
      <path class="cls-1" d="m99.63,27.9c0,.87-.39,1.65-1,2.18h0c-1.09.95-2.35,1.71-3.73,2.23-1.38.52-2.88.81-4.44.81h0c-1.26,0-2.49-.19-3.65-.54-1.16-.35-2.24-.86-3.22-1.51-1.97-1.29-3.54-3.13-4.49-5.31-.63-1.45-.98-3.06-.98-4.73,0-10.57,12.84-15.95,20.68-8.91h0c.59.53.96,1.29.96,2.14,0,1.59-1.29,2.88-2.88,2.88-.74,0-1.41-.28-1.92-.74h0c-4.16-3.74-11.06-.93-11.06,4.62,0,.65.1,1.27.29,1.86.19.59.46,1.14.81,1.64.7,1.01,1.71,1.83,2.89,2.31.79.33,1.66.51,2.58.51.86,0,1.66-.16,2.4-.44.72-.27,1.38-.67,1.95-1.15.51-.46,1.19-.75,1.93-.75,1.59,0,2.88,1.29,2.88,2.88"/>
      <path class="cls-1" d="m124.4,21.43c0,6.66-5.49,12.05-12.25,12.05h0c-6.78,0-12.25-5.41-12.25-12.05,0-1.25.19-2.46.56-3.6.36-1.14.89-2.2,1.55-3.16,1.33-1.92,3.2-3.44,5.39-4.35,1.46-.61,3.07-.94,4.75-.94h0c1.26,0,2.48.19,3.62.54,1.15.35,2.23.86,3.2,1.51,1.95,1.29,3.51,3.12,4.45,5.29.63,1.45.97,3.05.97,4.71m-5.76,0c0-.65-.1-1.27-.29-1.85-.18-.58-.46-1.13-.8-1.63-.69-1-1.69-1.81-2.85-2.3-.78-.32-1.63-.5-2.54-.5-.68,0-1.34.1-1.95.29-.61.19-1.18.46-1.7.8-1.04.69-1.86,1.65-2.34,2.77-.32.75-.5,1.56-.5,2.42,0,3.46,2.89,6.28,6.49,6.28,3.56,0,6.48-2.79,6.49-6.28"/>
      <path class="cls-1" d="m146.53,29.86c0,.07,0,.15-.01.22v.02h0c-.12,1.48-1.36,2.65-2.87,2.65s-2.75-1.16-2.87-2.65h-.01v-10.54c0-.47-.07-.92-.21-1.33-1.59-5.01-9.31-3.8-9.32,1.33v10.29h0v.02c0,1.59-1.29,2.88-2.88,2.88s-2.88-1.29-2.88-2.88h0v-10.31h0v-7.49c0-1.59,1.29-2.88,2.88-2.88,1.05,0,1.96.56,2.47,1.4,0,0,0,0,0,0,6.96-3.86,15.7,1.03,15.7,8.97,0,.07,0,.14-.01.22v9.88c0,.07.01.14.01.22"/>
      <path class="cls-1" d="m161.06,32.59h0s-.08.01-.12.02h0c-6.55.91-10.19-2.86-10.2-8.18v-9.84h-1.75c-1.59,0-2.88-1.29-2.88-2.88s1.29-2.88,2.88-2.88h1.75V3.38c0-1.59,1.29-2.88,2.88-2.88s2.88,1.29,2.88,2.88h0s0,5.45,0,5.45h3.98c1.59,0,2.88,1.29,2.88,2.88s-1.29,2.88-2.88,2.88h-3.98v9.99c0,2.24,1.47,2.64,3.72,2.31h0c.14-.02.28-.03.42-.03,1.59,0,2.88,1.29,2.88,2.88,0,1.45-1.07,2.65-2.46,2.85"/>
      <path class="cls-1" d="m165.04,3.7c0-1.59,1.29-2.88,2.88-2.88s2.88,1.29,2.88,2.88-1.29,2.88-2.88,2.88-2.88-1.29-2.88-2.88m5.76,8.74v17.42c0,1.59-1.29,2.88-2.88,2.88s-2.88-1.29-2.88-2.88V12.44c0-1.59,1.29-2.88,2.88-2.88s2.88,1.29,2.88,2.88"/>
      <path class="cls-1" d="m195.16,33.06c-.97,3.84-3.7,6.93-7.86,7.94,0,0-.01,0-.02,0-3.85.93-9.63.39-13.44-2.46h0c-.7-.53-1.16-1.37-1.16-2.31,0-1.59,1.29-2.88,2.88-2.88h0c.47,0,.81.09,1.11.22.23.09.44.22.63.37.58.38,1.29.88,2.84,1.29,2.03.53,4.36.51,5.77.16,2.2-.54,3.46-2.28,3.74-4.28.02-.15.03-.27.03-.27v-.53c-5.89,3.18-13.67.99-16.49-5.02-3.31-7.06,2.25-15.07,10.65-15.07,2.19,0,4.3.56,6.14,1.62,0,0,0,0,0,0,.47-.95,1.45-1.6,2.58-1.6,1.59,0,2.88,1.29,2.88,2.88v7.35c0,.17.01.34.01.51s0,.34-.01.5c0,10.11.11,9.9-.31,11.56m-5.46-11.73v-.66h0c-.15-1.96-1.61-3.54-3.47-4.25-5.21-1.99-10.43,3.07-7.3,7.27,1.03,1.39,2.85,2.32,4.93,2.32,3.13,0,5.64-2.11,5.83-4.68h0"/>
      <path class="cls-1" d="m221.22,21.43c0,6.66-5.49,12.05-12.25,12.05h0c-6.78,0-12.25-5.41-12.25-12.05,0-1.25.19-2.46.56-3.6.36-1.14.89-2.2,1.55-3.16,1.33-1.92,3.2-3.44,5.39-4.35,1.46-.61,3.07-.94,4.75-.94h0c1.26,0,2.48.19,3.62.54,1.15.35,2.23.86,3.2,1.51,1.95,1.29,3.51,3.12,4.45,5.29.63,1.45.97,3.05.97,4.71m-5.76,0c0-.65-.1-1.27-.29-1.85-.19-.58-.46-1.13-.8-1.63-.69-1-1.69-1.81-2.85-2.3-.78-.32-1.63-.5-2.54-.5-.68,0-1.33.1-1.95.29-.61.19-1.18.46-1.7.8-1.04.69-1.86,1.65-2.34,2.77-.32.75-.5,1.56-.5,2.42,0,3.46,2.89,6.28,6.49,6.28,3.56,0,6.48-2.79,6.49-6.28"/>
    </g>
  </g>
</svg>