<?xml version="1.0" encoding="UTF-8"?>
<svg id="Capa_2" data-name="Capa 2" xmlns="http://www.w3.org/2000/svg" viewBox="0 0 181.59 98.32">
  <defs>
    <style>
      .cls-1 {
        fill: #a6a6a6;
      }

      .cls-2 {
        fill: gray;
      }

      .cls-3 {
        fill: #595959;
      }
    </style>
  </defs>
  <g id="Capa_1-2" data-name="Capa 1">
    <g>
      <g>
        <g>
          <path class="cls-3" d="m166.92,34.39c1.11-2.35-.86-.87-.86-.87-15.82,17.92-32.38-1.98-32.38-1.98-.37-.12-2.22-1.36-.25,1.24,10.3,11.59,11.36,19.27,11.23,22.44l.32.35h13.79c-2.51-9.81,7.13-19.03,8.15-21.18Z"/>
          <path class="cls-3" d="m151.9,27.17c-3.5-.15-6.45,2.33-6.59,5.53-.13,3.2,2.6,5.92,6.1,6.07,3.5.15,6.45-2.33,6.59-5.53.14-3.2-2.6-5.92-6.1-6.07Z"/>
        </g>
        <g>
          <g>
            <path class="cls-2" d="m29.96,30.8c-2.02-1.27-4.09-2.13-8.24-2.13-6.11,0-9.22,4.38-9.22,8.7s3.29,8.7,9.85,8.7c3.51,0,6.16-.87,7.89-2.13l-.35,10.71c-1.79,1.27-5.53,2.13-9.68,2.13-10.03,0-20.22-6.68-20.22-19.41s10.2-19.42,20.22-19.42c4.15,0,7.89.86,10.09,2.13l-.35,10.71Z"/>
            <path class="cls-2" d="m48.59,56.66c-8.99,0-16.88-5.18-16.88-14.28v-23.39h12.27v22.36c0,3.28,2.65,4.55,4.72,4.55s4.73-1.27,4.73-4.5v-22.41h12.04v23.39c0,9.1-7.89,14.28-16.88,14.28Z"/>
            <path class="cls-2" d="m96.49,55.74l-11.23-12.5c-1.96-2.13-3.86-4.55-5.3-6.45l-.11.06c.11,1.84.23,4.38.23,6.28v12.62h-12.28V18.99h10.6l9.05,10.14c1.38,1.56,3.17,3.69,4.27,5.24l.11-.06c-.11-1.61-.23-3.17-.23-5.07v-10.26h12.27v36.76h-7.37Z"/>
            <path class="cls-2" d="m126.7,55.74l-1.73-5.76h-9.85l-1.73,5.76h-11.35l13.25-36.76h10.32l13.25,36.76h-12.16Zm-5.88-20.62c-.29-.87-.58-1.85-.75-2.94h-.11c-.17,1.09-.46,2.13-.69,2.94l-1.67,5.7h4.9l-1.67-5.7Z"/>
          </g>
          <g>
            <path class="cls-1" d="m101.75,97.2l-.93-11.31c-.12-1.68-.25-3.54-.12-5.66h-.12c-.62,2.24-1.25,3.85-2.24,5.78l-5.78,11.19h-5.48l-5.78-11.19c-.93-1.8-1.68-3.66-2.3-5.78h-.12c.12,2.12.12,3.73-.06,5.66l-.93,11.31h-13.18l3.42-39.66h11.94l6.71,12.99c.93,1.8,2.18,4.47,2.98,6.65h.07c.74-2.18,1.86-4.79,2.86-6.65l6.65-12.99h12.06l3.48,39.66h-13.12Z"/>
            <path class="cls-1" d="m140.57,97.2l-1.86-6.21h-10.63l-1.86,6.21h-12.25l14.3-39.66h11.13l14.3,39.66h-13.12Zm-6.34-22.25c-.31-.94-.62-1.99-.81-3.17h-.13c-.19,1.18-.5,2.3-.75,3.17l-1.8,6.15h5.28l-1.8-6.15Z"/>
            <path class="cls-1" d="m165.67,98.32c-5.53,0-10.14-1.18-13.68-3.98l-.37-11.93c3.86,3.42,8.27,4.97,12.87,4.97,2.67,0,3.73-.5,3.73-1.55,0-1.3-.56-1.43-5.6-3.29-6.77-2.55-10.32-7.4-10.32-12.87,0-7.83,5.85-13.24,14.8-13.24,5.91,0,8.76,1.18,10.82,2.43l-.37,11.06c-2.3-1.49-5.66-2.61-8.7-2.61-2.8,0-3.48.43-3.48,1.43,0,1.06.5,1.31,5.72,3.05,5.84,1.93,10.51,7.09,10.51,12.74,0,8.46-5.35,13.8-15.92,13.8Z"/>
          </g>
        </g>
      </g>
      <g>
        <path class="cls-3" d="m2.29,9.25c0,.55-.09.95-.28,1.22-.19.27-.47.4-.86.4s-.67-.13-.86-.4c-.19-.27-.28-.67-.28-1.22V2.34C.01,1.73.13,1.31.36,1.08c.23-.23.64-.34,1.22-.34h2.05c1.13,0,2.02.31,2.68.92.65.61.98,1.44.98,2.48s-.31,1.89-.92,2.49c-.61.6-1.47.9-2.56.9h-1.53v1.72Zm0-3.79h.98c.52,0,.91-.11,1.17-.33.26-.22.39-.55.39-.99s-.13-.77-.38-.99c-.25-.21-.65-.32-1.18-.32h-.98v2.63Z"/>
        <path class="cls-3" d="m8.06,9.22v-4.46c0-.54.09-.95.27-1.21.18-.26.46-.4.83-.4.22,0,.42.06.6.18.17.12.33.29.46.53.23-.25.47-.43.73-.56.26-.13.51-.19.78-.19.31,0,.57.11.79.33.22.22.33.47.33.77,0,.44-.41.82-1.22,1.11-.29.11-.51.19-.66.26-.28.13-.46.28-.56.44-.09.16-.14.46-.14.88v2.31c0,.55-.09.95-.27,1.22-.18.27-.46.4-.84.4s-.65-.13-.83-.4c-.18-.27-.27-.67-.27-1.22Z"/>
        <path class="cls-3" d="m12.62,7c0-1.15.35-2.1,1.06-2.85.71-.74,1.61-1.12,2.7-1.12s1.99.37,2.69,1.11c.7.74,1.05,1.69,1.05,2.85s-.35,2.11-1.05,2.85c-.7.74-1.6,1.12-2.69,1.12s-1.99-.37-2.7-1.12c-.71-.75-1.06-1.7-1.06-2.85Zm2.3-.03c0,.57.13,1.03.41,1.37.27.34.62.52,1.06.52s.79-.17,1.06-.52c.27-.35.41-.8.41-1.37s-.14-.99-.42-1.34c-.28-.35-.63-.52-1.05-.52s-.78.17-1.05.52c-.27.34-.41.79-.41,1.34Z"/>
        <path class="cls-3" d="m25.65,9.81c-.24.35-.53.61-.87.78-.33.17-.72.26-1.15.26-.9,0-1.66-.37-2.28-1.11-.62-.74-.93-1.65-.93-2.75s.33-2.03,1-2.79c.67-.76,1.48-1.13,2.45-1.13.38,0,.71.06,1,.19.29.13.55.33.77.6.12-.22.27-.39.44-.52.18-.13.36-.19.54-.19.38,0,.66.13.84.4.18.26.27.67.27,1.21v4.46c0,.82-.04,1.46-.12,1.92-.08.46-.21.84-.4,1.14-.33.54-.77.96-1.34,1.24-.57.28-1.25.42-2.03.42-.96,0-1.74-.15-2.34-.46-.61-.31-.91-.69-.91-1.16,0-.28.09-.51.27-.69.18-.18.41-.27.68-.27.13,0,.45.1.96.3.51.2.98.3,1.42.3.55,0,.98-.16,1.28-.49.3-.32.45-.78.45-1.38,0-.03,0-.07,0-.13,0-.06,0-.11,0-.14Zm-2.93-2.82c0,.55.13,1,.4,1.35.27.34.62.52,1.04.52s.78-.17,1.05-.52c.27-.35.41-.79.41-1.34s-.14-.97-.41-1.31c-.27-.34-.63-.5-1.05-.5s-.77.17-1.04.5c-.27.34-.4.77-.4,1.31Z"/>
        <path class="cls-3" d="m28.92,9.22v-4.46c0-.54.09-.95.27-1.21.18-.26.46-.4.83-.4.22,0,.42.06.6.18.17.12.33.29.46.53.23-.25.47-.43.73-.56.26-.13.52-.19.78-.19.31,0,.57.11.79.33.22.22.33.47.33.77,0,.44-.41.82-1.22,1.11-.29.11-.51.19-.66.26-.28.13-.46.28-.56.44-.09.16-.14.46-.14.88v2.31c0,.55-.09.95-.27,1.22-.18.27-.46.4-.84.4s-.65-.13-.83-.4c-.18-.27-.27-.67-.27-1.22Z"/>
        <path class="cls-3" d="m38.7,10.07c-.22.27-.5.48-.81.63-.32.14-.67.22-1.04.22-.95,0-1.75-.37-2.4-1.12-.65-.75-.97-1.68-.97-2.8s.33-2.03,1-2.79c.67-.76,1.48-1.13,2.45-1.13.38,0,.71.06,1,.19.29.13.55.33.77.6.13-.23.28-.41.46-.53.18-.12.38-.18.6-.18.37,0,.65.13.82.39.18.26.27.67.27,1.22v4.46c0,.55-.09.95-.27,1.22-.18.27-.45.4-.82.4-.25,0-.46-.06-.63-.19-.17-.12-.31-.32-.43-.58Zm-2.93-3.1c0,.54.13.98.4,1.32.27.33.61.5,1.04.5s.76-.17,1.02-.5c.27-.34.4-.77.4-1.31s-.13-.95-.4-1.28c-.27-.33-.61-.49-1.02-.49s-.77.16-1.03.49c-.27.33-.4.75-.4,1.28Z"/>
        <path class="cls-3" d="m42.03,9.22v-4.46c0-.55.09-.96.27-1.23.18-.27.46-.4.83-.4.22,0,.41.06.59.18.18.12.33.31.47.55.23-.25.49-.44.78-.56.29-.12.62-.18,1-.18.48,0,.9.09,1.26.26.37.17.68.44.95.78.33-.37.68-.64,1.02-.8.35-.16.75-.24,1.21-.24.79,0,1.41.25,1.85.76.44.51.66,1.23.66,2.15v3.18c0,.55-.09.95-.27,1.22-.18.27-.46.4-.84.4s-.65-.13-.83-.4c-.18-.26-.27-.67-.27-1.22v-2.51c0-.58-.08-1.01-.24-1.28-.16-.27-.42-.4-.77-.4-.38,0-.67.13-.84.4-.18.27-.27.68-.27,1.26v2.54c0,.55-.09.95-.27,1.22-.18.27-.46.4-.84.4s-.66-.13-.84-.4c-.18-.27-.27-.67-.27-1.22v-2.51c0-.59-.08-1.01-.24-1.28-.16-.27-.41-.4-.76-.4-.38,0-.67.13-.84.4-.18.27-.27.68-.27,1.26v2.54c0,.55-.09.95-.27,1.22-.18.27-.46.4-.84.4s-.65-.13-.83-.4c-.18-.27-.27-.67-.27-1.22Z"/>
        <path class="cls-3" d="m58.82,10.07c-.22.27-.5.48-.81.63-.32.14-.67.22-1.04.22-.95,0-1.75-.37-2.39-1.12-.65-.75-.97-1.68-.97-2.8s.33-2.03,1-2.79c.67-.76,1.48-1.13,2.45-1.13.38,0,.71.06,1,.19.29.13.55.33.77.6.13-.23.28-.41.46-.53.18-.12.38-.18.6-.18.37,0,.65.13.82.39.18.26.27.67.27,1.22v4.46c0,.55-.09.95-.27,1.22-.18.27-.45.4-.82.4-.25,0-.46-.06-.63-.19-.17-.12-.31-.32-.43-.58Zm-2.93-3.1c0,.54.13.98.4,1.32.27.33.61.5,1.04.5s.76-.17,1.02-.5c.27-.34.4-.77.4-1.31s-.13-.95-.4-1.28c-.27-.33-.61-.49-1.02-.49s-.77.16-1.03.49c-.27.33-.4.75-.4,1.28Z"/>
        <path class="cls-3" d="m68.77,9.25c0,.55-.09.95-.28,1.22-.19.27-.47.4-.86.4s-.67-.13-.86-.4c-.19-.27-.28-.67-.28-1.22V2.14c0-.51.09-.9.26-1.15.17-.25.44-.38.8-.38.23,0,.44.06.62.17.19.11.38.3.59.57l4.21,5.56V2.23c0-.55.09-.95.28-1.22.19-.27.47-.4.86-.4s.67.13.86.4c.19.27.28.67.28,1.22v7.28c0,.49-.09.84-.25,1.08-.17.23-.43.35-.79.35-.24,0-.46-.07-.67-.2-.21-.13-.42-.34-.64-.63l-4.12-5.45v4.6Z"/>
        <path class="cls-3" d="m81.32,10.07c-.22.27-.5.48-.81.63-.32.14-.66.22-1.04.22-.95,0-1.75-.37-2.39-1.12-.65-.75-.97-1.68-.97-2.8s.33-2.03,1-2.79c.67-.76,1.48-1.13,2.45-1.13.38,0,.71.06,1,.19.29.13.55.33.77.6.13-.23.28-.41.46-.53s.38-.18.6-.18c.37,0,.65.13.82.39.18.26.27.67.27,1.22v4.46c0,.55-.09.95-.27,1.22-.18.27-.46.4-.82.4-.25,0-.46-.06-.63-.19-.17-.12-.31-.32-.43-.58Zm-2.93-3.1c0,.54.13.98.4,1.32.27.33.61.5,1.04.5s.76-.17,1.02-.5c.27-.34.4-.77.4-1.31s-.13-.95-.4-1.28c-.27-.33-.61-.49-1.02-.49s-.77.16-1.03.49c-.27.33-.4.75-.4,1.28Z"/>
        <path class="cls-3" d="m84.22,7c0-1.17.35-2.12,1.05-2.84.7-.73,1.62-1.09,2.76-1.09.74,0,1.34.13,1.79.4.46.26.69.61.69,1.03,0,.27-.09.49-.26.67-.17.18-.39.27-.66.27-.11,0-.35-.06-.69-.17-.35-.11-.64-.17-.87-.17-.46,0-.83.17-1.11.52-.28.34-.42.79-.42,1.35s.14,1.04.43,1.37c.29.33.68.5,1.18.5.24,0,.53-.06.87-.17.34-.11.56-.17.66-.17.24,0,.45.09.61.28.17.19.25.41.25.68,0,.41-.25.76-.75,1.04-.5.29-1.12.43-1.85.43-1.09,0-1.98-.36-2.66-1.09-.68-.73-1.02-1.67-1.02-2.84Z"/>
        <path class="cls-3" d="m90.89,1.28c0-.35.13-.65.38-.91.25-.25.55-.38.91-.38s.65.13.89.38c.25.25.37.55.37.91s-.12.66-.37.91c-.24.25-.54.37-.9.37s-.67-.12-.91-.37c-.25-.25-.37-.55-.37-.91Zm2.38,7.94c0,.55-.09.96-.27,1.22-.18.26-.45.4-.82.4s-.65-.13-.84-.4c-.18-.27-.28-.67-.28-1.22v-4.46c0-.54.09-.95.27-1.21.18-.26.46-.4.84-.4s.65.13.82.4c.18.26.27.67.27,1.21v4.46Z"/>
        <path class="cls-3" d="m94.07,7c0-1.15.35-2.1,1.06-2.85.71-.74,1.61-1.12,2.7-1.12s1.99.37,2.69,1.11c.7.74,1.05,1.69,1.05,2.85s-.35,2.11-1.05,2.85c-.7.74-1.6,1.12-2.69,1.12s-1.99-.37-2.7-1.12c-.71-.75-1.06-1.7-1.06-2.85Zm2.3-.03c0,.57.13,1.03.4,1.37.27.34.62.52,1.06.52s.79-.17,1.06-.52c.27-.35.41-.8.41-1.37s-.14-.99-.42-1.34c-.28-.35-.63-.52-1.05-.52s-.78.17-1.05.52c-.27.34-.41.79-.41,1.34Z"/>
        <path class="cls-3" d="m102.32,9.22v-4.46c0-.54.09-.95.27-1.21.18-.26.46-.4.83-.4.22,0,.42.06.6.18.18.12.33.29.46.53.24-.26.51-.45.82-.57.31-.12.69-.18,1.13-.18.88,0,1.54.25,2.01.75.46.5.69,1.23.69,2.18v3.18c0,.55-.09.95-.27,1.22-.18.27-.46.4-.84.4s-.66-.13-.84-.4c-.18-.27-.27-.67-.27-1.22v-2.51c0-.62-.09-1.06-.28-1.32-.18-.26-.49-.4-.92-.4s-.7.14-.89.41c-.19.27-.29.7-.29,1.28v2.54c0,.55-.09.95-.27,1.22-.18.27-.46.4-.84.4s-.65-.13-.83-.4c-.18-.27-.27-.67-.27-1.22Z"/>
        <path class="cls-3" d="m115.04,10.07c-.22.27-.5.48-.81.63-.32.14-.67.22-1.04.22-.95,0-1.75-.37-2.4-1.12-.65-.75-.97-1.68-.97-2.8s.33-2.03,1-2.79c.67-.76,1.49-1.13,2.45-1.13.37,0,.71.06,1,.19.29.13.55.33.77.6.13-.23.28-.41.46-.53.18-.12.38-.18.6-.18.37,0,.65.13.82.39.18.26.27.67.27,1.22v4.46c0,.55-.09.95-.27,1.22-.18.27-.46.4-.82.4-.25,0-.46-.06-.63-.19-.17-.12-.31-.32-.43-.58Zm-2.93-3.1c0,.54.13.98.4,1.32.27.33.61.5,1.04.5s.76-.17,1.02-.5c.27-.34.4-.77.4-1.31s-.13-.95-.4-1.28c-.27-.33-.61-.49-1.02-.49s-.77.16-1.03.49c-.27.33-.4.75-.4,1.28Z"/>
        <path class="cls-3" d="m118.45,1.62c0-.55.09-.96.27-1.22.18-.27.46-.4.84-.4s.64.13.82.4c.18.27.27.67.27,1.22v7.6c0,.55-.09.96-.27,1.22-.18.26-.45.4-.82.4s-.66-.13-.84-.4c-.18-.27-.27-.67-.27-1.22V1.62Z"/>
      </g>
    </g>
  </g>
</svg>