<?xml version="1.0" encoding="UTF-8"?>
<svg id="Capa_2" data-name="Capa 2" xmlns="http://www.w3.org/2000/svg" viewBox="0 0 221.22 56.72">
  <defs>
    <style>
      .cls-1 {
        fill: #b8b8b8;
      }

      .cls-1, .cls-2, .cls-3, .cls-4 {
        fill-rule: evenodd;
      }

      .cls-2 {
        fill: #222;
      }

      .cls-5 {
        fill: #646464;
      }

      .cls-3 {
        fill: #050505;
      }

      .cls-4 {
        fill: #a4a4a4;
      }
    </style>
  </defs>
  <g id="Capa_1-2" data-name="Capa 1">
    <g>
      <path class="cls-4" d="m201.73,44.28c-.61-1.62-1.14-3.26-1.43-4.96,0,.3-.01.6-.02.9-.01,1.37-.04,2.69-.15,4.06v.03c.53-.01,1.07-.02,1.6-.02m6.82-2.95c-.18,1.06-.42,2.11-.75,3.15h0c.8.06,1.6.13,2.41.21l-.07-.2c-.33-1.03-.59-2.06-.79-3.11-.27,0-.53-.02-.79-.05Zm-12.51-7.37c-.11-.42-.24-.83-.38-1.23,0,.23.01.46.02.7.13.18.25.36.37.54Zm-1.97,11.4c-.1-.02-.21-.04-.33-.07l-.36-.09-.13-.33c-.14-.37-.28-.75-.4-1.12-.54.06-1.09.09-1.64.11-.08.39-.17.78-.27,1.16l-.09.37-.3.09,3.5-.12Zm14.13-15.34c.4-.13.77-.3,1.09-.54-.16.29-.36.56-.61.63-.15.04-.31,0-.48-.09Zm-22.87,8.33c-.53-.2-1.09-.34-1.11-.67.05-.02.1-.04.15-.04,0-.4-.5-.78-.52-1.09-.25-.15-.71-.5-.79-.74-.03-.02-.05-.03-.07-.03-.02-.04-.02-.06-.02-.09-.26-.17-.37-.46-.67-.58,0-.05-.02-.11-.02-.16-.31-.12-.78-.88-.8-1.19-.03-.02-.05-.02-.07-.03,0-.06,0-.11,0-.16.03-.04.04-.07.03-.13-.12-.09-.28-.14-.3-.26-.05-.04-.1-.05-.1-.12-.18-.09-.21-.14-.24-.32-.13-.07-.15-.21-.11-.36-.07-.02-.13-.05-.18-.09-.02-.07-.02-.14-.02-.2-.15-.03-.28-.07-.3-.19,0-.07.01-.16.03-.24-.13-.07-.16-.05-.34-.03.01-.07.01-.14.01-.22-.1-.07-.15-.09-.28-.08,0-.07,0-.15,0-.2q-.07-.05-.09-.14s0-.09,0-.13c-.41-.24-.47-.42-.5-.87-.17-.1-.73-.43-.77-.56.08-.06.06-.13.08-.18-.23-.16-.51-.76-.87-.7-.32-.21-1.2-.53-1.23-.89-.12-.05-.22-.12-.33-.17,0-.5-1.03-1.22-1.08-1.74,0-.02-1.81-1.32-1.85-1.3-.55-.34-1.49-.41-2.14-.64-1.44-.1-2.31-.51-2.07-1.57.03-.02.07-.02.08-.04.2.14.28.12.59.07.9-1.33-1.21-1.19-1.28-1.93.1-.09.04-.25.04-.36.02-.02.03-.04.05-.06q.18.01.26,0c.03-.05.06-.09.09-.13-.19-.45-1.03-.64-1.17-1.03.11-.25.18-.42.03-.65.23-.4.14-1.22.9-1.4,0-.04,0-.07,0-.09.38-.43.98-1.62,1.66-1.73.28-.41.84-.57.95-.88.16,0,.23-.02.36.03-.01.07-.03.13-.04.18.17.1.14.27.24.34.04.31.1.68.32.91-.01.06-.42.39-.5.47-.21.02-.39,0-.6,0-.08.11-.17.26-.18.39.14.3.21.35.6.31-.01.2-.14.29-.3.46-.11.11-.09.25,0,.4,1.19-.02.65-1.14,2.35-.43,0,.07.1.11.17.16.31-.06.46-.28.81-.24.2.18.39.35.6.53.02.31.42.48.53.67.1,0,.15.05.23.1,0,.11.18.12.3.14.29-.05.52-.13.75,0,.26-.08.12-.26.26-.42.08,0,.16-.02.24-.03-.11-.52.04-.87.69-.97.05-.08.06-.13.14-.17.01-.18.07-.42.18-.58,0-.02-.02-.04-.02-.04-.05-.02-.08-.01-.1-.01-.07-.18-.05-.5.13-.66,0-.18,0-.27.07-.43-.09-.2-.06-.42.21-.52.05-.58.4-1.16.37-1.81.03-.02.05-.02.08-.04.1.05.21.01.33.01.22.17.17.43.41.19,0-.06,0-.11,0-.16-.1-.07-.13-.07-.14-.19.05-.06.08-.06.2-.19-.02-.27.74-1.19,1.13-1.24,4.43-1.97,7.97-3.68,8.87-8.09.2-.02.28.1.52.06.05-.06.1-.06.18-.08-.09-.34-.28-.62-.31-1t.1-.06c-.02-.27-.01-.4-.34-.4-.02-.18-.61-.22-.65-.58-.25-.16-.17-.25-.61-.27q-.03-.05-.04-.22c.38,0,.54,0,.91.03.19-.19.55-.09.64-.51.05,0,.11-.02.16-.02.16.07.64.23.8.23.05.45.59.07.73.03.17.1.27.25.32.43.05,0,.1,0,.16.02,0,0,.02.02.02.03.52-.07.79.41,1.19.44.02.13.12.21.16.34.02.02.03.02.07.02.02.05.04.14-.08.16,0,.02,0,.04.02.07.18.09.54.15.42.42.14.63.38.17.81.43.08-.02.16-.04.24-.06.16.1.14.27.51.2.04.16.15.18.21.3q.28.01.47-.03c.16-.02.39-.03.5.04.02.15.25.25.29.45.02,0,.05,0,.07.02.14.43.19.32.11.88.2.14.84.28,1,.08.08,0,.11-.02.18.01.03-.04.08-.06.08-.11.07.03.12.03.13.1.18.01.2.01.22.19q.07,0,.12.03c.02.09.09.2,0,.29.02.09.04.16.12.21q-.03.07-.01.14s.05.02.07.02c0,.09-.06.13-.11.18,0,.11-.06.15-.17.18,0,.09.03.29.19.25.02.07.03.11.1.14.16-.02.34.03.52.02.07.07.18.17.2.26.21-.06.42-.08.56-.23.21-.02.24-.08.44.02.08-.07.16-.13.14-.22.13,0,.36.05.46.13.06-.02.11-.04.18-.06.15.1.16.01.29,0,.05.05.08.1.14.16.34-.08.55-.23.9-.28.01-.11.11-.18.19-.26.06-.02.11-.06.14-.11.06,0,.11.03.16.07.1-.02.19-.04.31-.08,0-.04,0-.09.01-.14.26-.08.39-.47.71-.65.03,0,.05,0,.06,0,0,.07-.01.16,0,.23.01,0,.03,0,.06.02.35-.23.64.04.85.08.02-.02.05-.04.06-.08.1,0,.15.03.21.08.02.09.15.12.17.27.1,0,.19-.09.3-.12q.01-.06.06-.11c.2-.02.27-.05.44.04.01-.02.05-.02.08-.02.01-.09,0-.13.13-.13-.02-.31.25-.24.51-.25-.02-.09-.04-.16-.06-.23.11-.04.2-.02.21.07.07,0,.11,0,.18,0,.02-.04.03-.06.06-.09.21-.02.25.16.51.17.1.12.31.05.45.13-.02.05-.01.11-.01.15t.18.03c.1,0,.19,0,.29,0,0,.02,0,.03.02.05.08,0,.11.03.18.07.05-.04.11-.06.16-.08.01.02.03.02.06.03,0,.04,0,.07,0,.11.13.05.23,0,.32-.1.08,0,.16,0,.24,0,.02.02.04.06.08.12.26,0,.32.14.32.28t.24-.02c0,.07.02.13.02.2.11-.04.18-.06.22-.17.62-.05-.8,1.92-.93,2.12-.18.55-1.16,1.39-1.11,1.87.63.29.73.01,1.28-.07.03-.04.06-.06.09-.09.16.03.36,0,.36.19.05.02.95.62.95.71.23.14.74.63.07.74-.02-.05-.03-.09-.05-.14-.18.02-.18-.1-.42-.02,0,.06-.01.11-.01.16-.05.02-.08.02-.13.04-.07-.05-.22-.08-.25-.14-.05,0-.11,0-.16-.01,0-.02,0-.06-.02-.09.02-.02.05-.04.06-.04-.02-.09-.05-.16-.07-.23-.08,0-.1,0-.18.04-.13-.07-.16-.07-.34-.07q-.05.06-.05.09s-.05,0-.06.02c-.01,0-.03.02-.05.04-.05.02-.1.02-.13.02-.03-.03-.05-.07-.08-.09-.03,0-.06.02-.08.02-.03.06-.06.11-.08.15-.26.04-.18.04-.31-.07-.08.02-.09.08-.09.13-.07,0-.15.02-.21.02-.07-.04-.08-.07-.18-.05-.16.17-.38.39-.4.59-.16.02-.09.18-.37.21-.27.1-.56.14-.84.24-.15-.07-.29-.05-.31.08-.43.12-.76.22-1.13.37.02.15-.11.15-.24.17-.02-.03-.03-.05-.03-.09-.15.04-.34.1-.47.08-.29.06-.49.09-.69.26.02.09-.04.16-.09.24-.03,0-.05,0-.08,0-.13.13-.4.15-.45.37-.58.09-1.02.77-1.37.87-.14.26-1,.77-1.32.87-.01.08-.04.17-.06.26h0s0,.01,0,.01c-.17.6-.55,1.47-.67,2.08-1.32.47-.11,1.67-.06,2.19-.05.06-.06.09-.06.16-.4.19-.99.73-1.46.8-.05.05-.09.11-.14.17-.14.02-.21.09-.29.18-2.26,1.09-2.99,4.34-1.87,6.42l-.02.03c-.21-.11-.64-.34-1.3-.58.08-.35.11-.71.11-1.06,0-1.53-.73-3.13-2.01-3.99.26-.35.4-.78.25-1.21-.28-.79-1.14-1.03-2.07-1.02-.62-1-1.73-1.34-2.92-.96-1.33.43-1.84,1.19-1.66,2.43-.73.53-1.25,1.21-.98,1.99.22.61.86.85,1.48.93-.22.58-.34,1.2-.34,1.82v.08c-.47-.41-.99-.81-1.58-1.21-.79-.53-1.57-.94-2.4-1.39-.65-.35-1.75-.74-2.3-.02-.51.67.09,1.47.59,1.95.35.34.74.65,1.09.99.63.6,1.23,1.24,1.78,1.92,1.49,1.85,2.6,3.95,3.08,6.24-.46,1.38-1.17,2.78-1.96,4.12Zm33.43,10.38c.1.16.18.29.19.36.08.38.17.36-.12.73.05.05.07.13.07.18.2.08,0,.38.08.56-.6.43-.82.95-1.34,1.3.02.15-.03.2-.09.33-.4.1-.45.36-.7.45-.01.07-.05.15-.06.24.53.31.54.06.59.67-.46.41-1.32.49-1.27.96.04.02.07.02.1.04.12,1.15-.1,1.92-1.86,2.04-.08.06-.15.09-.21.13-.1-.02-.17-.12-.28-.1-.05-.04-.1-.09-.18-.07-.05-.04-.08-.07-.15-.07-.05-.04-.1-.07-.16-.05-.33-.21-.84-.38-1.2-.55-.02-.04-.02-.07-.02-.11-.23-.14-.38-.28-.67-.23-.05-.02-.07-.03-.13-.01q-.12-.09-.17-.14s-.1-.01-.13-.01c-.02-.14-.59-.23-.77-.27.01-.07.01-.16.07-.22,0-.02,0-.04,0-.06-.07-.05-.07-.07-.07-.14-.08-.05-.07-.23-.07-.32-.1-.05-.21-.45-.42-.42-.03-.05-.05-.11-.07-.18-.23,0-.52-.08-.73-.03-.02-.01-.03-.03-.05-.05-.05.02-.1.02-.13.02-.33-.19-1.1-.35-1.53-.44,0-.2-.51-.33-.71-.34-.02-.16-.22-.27-.35-.35-.03,0-.05,0-.07,0-.33-.19-2.08-.47-2.34-.42-.3-.19-.83-.21-1.2-.26-.05-.2-2.9-.79-3.42-1.11-.11.02-.23-.05-.34-.03t-.13-.12c-.1.02-.21.04-.32.06-.05-.04-.07-.04-.15-.01-.33-.21-1-.64-1.53-.55-.23-.16-.77-.27-1.07-.35-.44-.06-.41-.02-.43-.28-.1-.07-.26-.12-.3-.19.01-.02.03-.04.05-.06-.12-.18-.33-.28-.59-.24-.15-.16-.31-.44-.58-.49-.02-.05-.02-.11-.02-.16-.48-.16-1.25-.31-1.6-.59-.02.02-.03.02-.05.02-.1-.11-.27-.41-.27-.55-.22-.14-.45-.24-.66-.34,0-.02-.02-.03,0-.05.01-.02.05-.02.06-.02v-.04c2.8-.15,6.2-.24,9.31-.13.38.01.76.03,1.14.05.2.01.4.02.59.04h0c1.35.08,2.7.21,4.04.38,3.43.44,6.77,1.19,10.11,2.07l.17.04,2.18-.49Zm-.05-10.17s.03.03.07.34c-.05.43-.09.87-.12,1.3-.1.06-.11.18-.11.26-.1.07-.18.11-.19.22-.08.02-.15.04-.23.08,0,.04,0,.09,0,.15.17.12.37.19.52.31q-.01.13-.06.2s-.06.04-.1.04c.08.47.52.55.57,1.03-.15.02-.29.05-.44.07-.19.21-.1.35-.08.55-.08.09-.21.22-.35.24.02.16-.22.28-.23.49-.08.02-.16.04-.24.06-.08.08-.06.22-.12.33.07.14-.81,1.3.16,1.4.07.14.38.18.43.36l-.58-.13-.52-.56c-1.12-1.2-2.05-2.54-2.75-4,.31-.02.62-.03.93-.05l.84-.04-.21-.78c-.7-2.66-1.2-5.34-1.71-8.02,1.05-.25.97-.57,1.41-.12l2.44,2.71c.54.69,1.19,1.2,1.28,1.95-.06.06-.24.08-.19.22.09.25-.51.52-.44.92,0,.16,0,.31,0,.47Z"/>
      <path class="cls-1" d="m194.32,28.63c1.29,1.96,2.72,4.87,2.78,7.94.05,2.94-1.07,6.25-2.34,7.87,2.11-.23,3.11-.08,4.68-.23.24-2.85.07-4.16.25-6.5.38.05.76.09,1.11.1.19,2.25.88,4.41,1.72,6.6,1.63.42,3.26.83,4.88,1.25-3.44-3.1-4.38-10.81-1.85-17.23l-.82-.99-1.4.86c-1.52,1.87-4.32,2.13-5.92.2-.6-.33-1.87-.98-2.42-1.19-.19.55-.33.81-.67,1.31m5.59-7.47c-1.85.05-3.3,1.87-3.23,4.07.07,2.19,1.62,3.93,3.47,3.88,1.85-.05,3.29-1.88,3.22-4.07-.07-2.19-1.62-3.93-3.47-3.88Z"/>
      <path class="cls-2" d="m204.56,23.77c2.18-.29,4.31-.69,6.15-1.78.16-.85.21-1.7.15-2.55-2.15.42-4.31.89-6.45,1.45.1-1.63-.56-3.1-2.42-4.24.35,1.91.69,3.18,1.88,4.38-.17.04-.34.09-.51.14.3.87.69,1.74,1.2,2.6m6.11-1.36c.44.62.74,1.39.81,2.24.19,2.19-1.15,4.08-2.99,4.23-1.84.15-3.49-1.51-3.68-3.7-.03-.38-.02-.74.03-1.1,2.02-.28,4.05-.67,5.83-1.67Zm6.18.39c1.43-.81,1.49.27.72.82-.43.3-3.1,2.76-4.65,5.91.97,4.72,1.23,6.91,2.32,11.08-.64.03-1.27.07-1.91.1.68,1.68,1.72,3.4,3.25,5.05-1.93-.48-3.86-.97-5.79-1.45-.4-1.23-.66-2.37-.88-3.58-.65,0-1.3,0-1.96-.17-.17,1.24-.43,2.48-.83,3.73-1.6.51-3.2,1.02-4.8,1.53,3.28-3.71,3.25-10.22,2.95-14.94.23-.82.48-1.5.73-2.08.33.36.51.62.93,1.08,1.62,1.75,2.77.77,3.27-.88,1.21-.65,1.69-1.68,2.02-3.21,1.88-1.33,3.18-2.17,4.61-2.98Z"/>
      <path class="cls-3" d="m191.15,21.72c1.89,0,3.42,1.77,3.42,3.95s-1.53,3.95-3.42,3.95-3.42-1.77-3.42-3.95,1.53-3.95,3.42-3.95m1.69-1.03c.09.25-.05.55-.36.85-.45-.23-.95-.35-1.47-.35-1.32,0-2.48.81-3.12,2.03-.71,0-1.22-.17-1.34-.5-.26-.74,1.06-1.66,2.65-2.17,1.56-.5,3.37-.62,3.64.15Zm-4.1-1.55c1.03-.33,1.8.03,2.2.87-1.71-.05-2.77.49-3.36.97-.15-.82-.06-1.45,1.16-1.84Z"/>
      <path class="cls-3" d="m185.04,25.1c-.98-.66-1.81-1.07-2.34-1.36-1.4-.75-1.93-.16-.86.86.67.63,5.09,4.08,6.18,9.67-.69,2.14-2.09,4.62-3.93,7.3.86.55,1.84.94,2.89,1.2-.57,1.28-1.35,2.58-2.4,3.86,1.9-.59,3.79-1.18,5.69-1.78.15-.57.27-1.12.37-1.67.92,0,1.84-.06,2.73-.18.16.54.35,1.08.56,1.63,1.63.42,3.26.83,4.88,1.25-.98-.98-1.71-2.19-2.26-3.53.86-.24,1.62-.53,2.26-.82-1.8-3.77-2.79-5.46-3.83-7.9-.03-.87-.04-1.71-.04-2.5-.28-.81-.61-1.55-.9-2.11-2.29,2.21-5.65,1.45-6.69-1.9-.73-.78-1.33-1.37-2.31-2.03"/>
      <path class="cls-2" d="m221.22,47.51c-10.65-3.27-24.52-3.17-35.09-1.05,14.02-1.03,20.2-.6,30.46,2.09l4.63-1.04Z"/>
      <path d="m66.95,43.77c0,.06,0,.11,0,.15,0,.04,0,.07-.02.09-.01.02-.02.04-.03.05-.01.01-.03.02-.06.02-.03,0-.06,0-.09-.02-.04-.01-.07-.02-.12-.04-.05-.01-.09-.02-.15-.03-.06-.01-.11-.01-.18-.01-.08,0-.15.01-.22.04-.07.03-.15.07-.23.13-.08.06-.16.14-.25.24-.08.1-.18.22-.29.36v2.32s0,.04-.02.05c-.01.02-.03.03-.06.04-.03.01-.07.02-.11.02-.05,0-.11,0-.19,0s-.13,0-.18,0c-.05,0-.08-.01-.11-.02-.03-.01-.05-.02-.06-.04-.01-.01-.02-.03-.02-.05v-3.53s0-.04.01-.05c0-.01.03-.03.05-.04.03-.01.06-.02.1-.02.04,0,.1,0,.17,0,.07,0,.12,0,.16,0,.04,0,.08.01.1.02.02.01.04.03.05.04,0,.01.01.03.01.05v.51c.11-.14.22-.26.31-.34.1-.09.19-.16.28-.21.09-.05.17-.08.26-.1.09-.02.17-.03.26-.03.04,0,.09,0,.14,0,.05,0,.1,0,.16.02.05,0,.1.02.15.03.04.01.07.03.09.04.02.01.03.02.04.04s.01.03.01.05c0,.02,0,.05,0,.08,0,.03,0,.08,0,.14m-4.27,1.19c0-.34-.08-.61-.26-.8-.18-.19-.45-.29-.81-.29-.18,0-.34.03-.48.09-.14.06-.25.14-.35.24-.09.1-.17.21-.22.34-.05.13-.08.27-.08.42h2.21Zm.75.19c0,.1-.03.18-.09.22-.06.04-.13.06-.2.06h-2.67c0,.2.02.37.07.53.04.16.12.29.23.4.11.11.24.2.41.26.17.06.38.09.62.09.19,0,.37-.01.52-.04.15-.02.28-.06.39-.09.11-.03.2-.07.27-.09.07-.03.12-.04.16-.04.02,0,.04,0,.05.01.02,0,.03.02.04.04,0,.02.02.04.02.08,0,.03,0,.07,0,.12,0,.04,0,.07,0,.09,0,.02,0,.05,0,.07,0,.02-.01.04-.02.05-.01.01-.02.03-.04.04-.02.02-.07.04-.15.07-.08.03-.19.06-.32.1-.13.03-.28.06-.45.08-.17.02-.35.04-.55.04-.33,0-.63-.04-.88-.12-.25-.08-.46-.2-.64-.36-.17-.16-.3-.36-.39-.6-.09-.24-.13-.52-.13-.84s.05-.58.14-.82c.09-.24.22-.45.39-.62.17-.17.38-.3.62-.39.24-.09.51-.13.81-.13.32,0,.59.04.82.13.22.09.41.21.55.36.15.15.25.32.32.53.07.2.1.42.1.65v.11Zm-5.38.17c0-.18-.01-.36-.05-.52-.03-.17-.09-.32-.16-.45-.08-.13-.18-.23-.31-.31-.13-.08-.29-.12-.48-.12-.1,0-.19.01-.29.04-.09.03-.19.06-.28.12-.1.05-.2.13-.3.21-.11.09-.22.2-.33.32v1.4c.2.22.4.38.58.5.18.11.38.17.58.17.19,0,.35-.04.48-.12.13-.08.24-.18.32-.31.08-.13.15-.28.18-.44.04-.16.06-.32.06-.49Zm.79-.08c0,.31-.04.59-.12.83-.08.25-.19.46-.34.63-.15.17-.33.3-.56.4-.22.09-.47.14-.75.14-.12,0-.23-.01-.33-.03-.1-.02-.21-.05-.3-.1-.1-.04-.2-.1-.29-.17-.1-.07-.2-.15-.31-.24v1.76s0,.04-.02.06c-.01.01-.03.03-.06.04-.03.01-.07.02-.11.03-.05,0-.11,0-.19,0s-.13,0-.18,0c-.05,0-.09-.01-.11-.03-.03,0-.05-.02-.06-.04-.01-.02-.02-.03-.02-.06v-4.92s0-.04.01-.06c.01-.01.03-.03.05-.04.03-.01.06-.02.11-.02.04,0,.09,0,.15,0s.12,0,.16,0c.04,0,.08.01.1.02.03.01.05.02.06.04.01.01.01.03.01.06v.47c.13-.11.24-.21.36-.29.11-.08.23-.15.34-.2.12-.05.24-.09.36-.12.12-.03.25-.04.39-.04.29,0,.55.05.75.15.21.1.38.24.51.41.13.17.23.37.29.6.06.23.09.47.09.73Zm-6.01.06c0-.19-.02-.37-.06-.54-.04-.17-.11-.32-.2-.45-.09-.13-.22-.23-.38-.3-.16-.08-.36-.11-.6-.11-.22,0-.41.03-.57.1-.16.07-.29.16-.39.29-.1.13-.18.27-.23.44-.05.17-.07.36-.07.56s.02.37.06.54c.04.17.11.32.2.45.09.13.22.23.38.3.16.07.36.11.6.11.22,0,.41-.03.57-.1.16-.07.29-.16.39-.29.1-.12.18-.27.23-.44.05-.17.07-.35.07-.56Zm.79-.04c0,.29-.05.55-.13.79-.09.24-.22.45-.39.63-.17.18-.39.31-.65.41-.26.1-.56.15-.91.15s-.63-.04-.88-.13c-.25-.09-.46-.21-.62-.38-.16-.16-.29-.36-.37-.6-.08-.23-.12-.5-.12-.8s.04-.55.13-.79c.09-.24.22-.45.39-.63.17-.18.39-.31.65-.41.26-.1.56-.15.91-.15s.63.04.88.13c.25.08.46.21.62.38.17.16.29.36.37.6.08.24.13.5.13.8Zm-6.05.04c0-.19-.02-.37-.06-.54-.04-.17-.11-.32-.2-.45-.09-.13-.22-.23-.38-.3-.16-.08-.36-.11-.6-.11-.22,0-.41.03-.57.1-.16.07-.29.16-.39.29-.1.13-.18.27-.23.44-.05.17-.08.36-.08.56s.02.37.06.54c.04.17.11.32.2.45.09.13.22.23.38.3.16.07.36.11.6.11.22,0,.41-.03.57-.1.16-.07.29-.16.39-.29.1-.12.18-.27.23-.44.05-.17.07-.35.07-.56Zm.79-.04c0,.29-.05.55-.13.79-.09.24-.22.45-.39.63-.17.18-.39.31-.65.41-.26.1-.56.15-.91.15s-.63-.04-.88-.13c-.25-.09-.46-.21-.62-.38-.16-.16-.29-.36-.37-.6-.08-.23-.12-.5-.12-.8s.04-.55.13-.79c.09-.24.22-.45.39-.63.17-.18.39-.31.65-.41.26-.1.56-.15.91-.15s.63.04.88.13c.25.08.46.21.62.38.17.16.29.36.38.6.08.24.12.5.12.8Zm-5.2,1.18s0,.08,0,.11c0,.03,0,.06-.01.08,0,.02-.02.04-.03.06-.01.02-.03.04-.06.07-.03.03-.09.06-.19.12-.1.05-.22.11-.36.16-.14.05-.31.09-.49.13-.18.04-.39.05-.61.05-.38,0-.72-.06-1.03-.17-.31-.11-.57-.27-.78-.48-.21-.22-.38-.48-.5-.8-.11-.31-.17-.68-.17-1.09s.06-.79.19-1.12c.13-.33.3-.61.53-.84.23-.23.5-.4.81-.52.32-.12.66-.18,1.05-.18.17,0,.33.01.49.04.16.03.31.06.44.1.14.04.26.09.36.15.1.06.18.1.22.14.04.04.07.06.08.08.01.02.02.04.03.07,0,.02.01.05.02.09,0,.03,0,.07,0,.12,0,.05,0,.1-.01.13,0,.04-.01.07-.03.09-.01.02-.02.04-.04.06-.02,0-.04.01-.06.01-.04,0-.1-.02-.18-.08-.08-.05-.17-.11-.29-.17-.12-.06-.26-.12-.43-.17-.17-.05-.37-.08-.61-.08-.26,0-.5.04-.71.14-.21.09-.4.22-.55.4-.15.18-.27.39-.35.64-.08.25-.13.54-.13.86s.04.61.12.85c.08.25.2.45.34.62.15.17.33.29.55.38.22.08.46.13.74.13.23,0,.43-.02.61-.07.17-.05.32-.1.44-.17.12-.06.22-.12.3-.17.08-.05.14-.08.18-.08.02,0,.04,0,.06.01.01,0,.03.02.04.05,0,.02.01.05.02.09,0,.04,0,.09,0,.15Zm-7.97-1.49c0-.34-.08-.61-.26-.8-.18-.19-.45-.29-.81-.29-.19,0-.35.03-.49.09-.14.06-.25.14-.35.24-.09.1-.17.21-.22.34-.05.13-.08.27-.09.42h2.21Zm.75.19c0,.1-.03.18-.09.22-.06.04-.12.06-.2.06h-2.67c0,.2.02.37.07.53.05.16.12.29.23.4.11.11.24.2.41.26.17.06.38.09.62.09.19,0,.37-.01.52-.04.15-.02.28-.06.39-.09.11-.03.2-.07.27-.09.07-.03.12-.04.16-.04.02,0,.04,0,.06.01.02,0,.03.02.04.04.01.02.02.04.02.08,0,.03,0,.07,0,.12,0,.04,0,.07,0,.09,0,.02,0,.05-.01.07,0,.02-.01.04-.02.05-.01.01-.02.03-.04.04-.02.02-.07.04-.15.07-.08.03-.19.06-.32.1-.13.03-.28.06-.45.08-.17.02-.35.04-.54.04-.34,0-.63-.04-.88-.12-.25-.08-.46-.2-.64-.36-.17-.16-.3-.36-.39-.6-.09-.24-.13-.52-.13-.84s.05-.58.14-.82c.09-.24.22-.45.39-.62.17-.17.38-.3.62-.39.24-.09.51-.13.81-.13.32,0,.59.04.82.13.23.09.41.21.56.36.14.15.25.32.32.53.07.2.1.42.1.65v.11Zm-5.98-.56c-.2-.22-.4-.38-.58-.49-.19-.11-.39-.17-.59-.17-.19,0-.35.04-.48.12-.13.08-.24.18-.32.31-.08.13-.14.27-.18.43-.04.16-.06.33-.06.49,0,.18.02.35.05.52.03.17.09.32.17.45.08.13.18.24.31.32.13.08.3.12.49.12.1,0,.2-.01.29-.04.09-.02.18-.06.28-.12.09-.06.2-.13.3-.21.1-.09.22-.2.33-.32v-1.41Zm.75,2.48s0,.04-.02.05c-.01.02-.03.03-.05.04-.03,0-.06.02-.1.02-.04,0-.09,0-.15,0-.06,0-.12,0-.16,0-.04,0-.08-.01-.1-.02-.03,0-.05-.02-.06-.04-.01-.02-.02-.03-.02-.05v-.47c-.21.2-.44.36-.67.47-.23.11-.48.17-.76.17-.3,0-.56-.05-.77-.15-.21-.1-.38-.24-.51-.41-.13-.17-.23-.37-.29-.6-.06-.23-.09-.48-.09-.73,0-.3.04-.58.11-.82.08-.24.19-.45.33-.62.15-.17.33-.31.55-.4.22-.09.47-.14.76-.14.24,0,.46.05.65.13.2.09.39.22.58.4v-2.05s0-.03.02-.05c.01-.02.03-.03.06-.04.03,0,.07-.02.11-.02.05,0,.11-.01.18-.01s.14,0,.18.01c.05,0,.09.01.11.02.03.01.05.02.06.04.01.02.02.03.02.05v5.22Zm-7.84-1.76c0-.19-.02-.37-.06-.54-.04-.17-.11-.32-.2-.45-.09-.13-.22-.23-.38-.3-.16-.08-.36-.11-.6-.11-.22,0-.41.03-.57.1-.16.07-.29.16-.39.29-.1.13-.18.27-.23.44-.05.17-.07.36-.07.56s.02.37.06.54c.04.17.11.32.21.45.09.13.22.23.38.3.16.07.36.11.6.11.22,0,.41-.03.56-.1.16-.07.29-.16.4-.29.1-.12.18-.27.23-.44.05-.17.07-.35.07-.56Zm.79-.04c0,.29-.05.55-.13.79-.08.24-.22.45-.39.63-.17.18-.39.31-.65.41-.26.1-.56.15-.91.15s-.63-.04-.88-.13c-.25-.09-.46-.21-.62-.38-.16-.16-.29-.36-.37-.6-.08-.23-.12-.5-.12-.8s.04-.55.13-.79c.09-.24.22-.45.39-.63.17-.18.39-.31.65-.41.26-.1.56-.15.91-.15s.63.04.88.13c.25.08.46.21.62.38.17.16.29.36.37.6.08.24.13.5.13.8Zm-6.29-.68c-.2-.22-.4-.38-.59-.49-.19-.11-.38-.17-.59-.17-.19,0-.35.04-.48.12-.13.08-.24.18-.32.31-.08.13-.14.27-.18.43-.04.16-.06.33-.06.49,0,.18.02.35.05.52.03.17.09.32.17.45.08.13.18.24.31.32.13.08.29.12.49.12.1,0,.19-.01.29-.04.09-.02.18-.06.28-.12.09-.06.2-.13.3-.21.1-.09.22-.2.34-.32v-1.41Zm.75,2.48s0,.04-.02.05c-.01.02-.03.03-.05.04-.03,0-.06.02-.1.02-.04,0-.09,0-.15,0-.06,0-.12,0-.16,0-.04,0-.08-.01-.1-.02-.03,0-.05-.02-.06-.04-.01-.02-.02-.03-.02-.05v-.47c-.21.2-.43.36-.67.47-.23.11-.48.17-.75.17-.3,0-.56-.05-.77-.15-.21-.1-.38-.24-.51-.41-.13-.17-.23-.37-.29-.6-.06-.23-.09-.48-.09-.73,0-.3.04-.58.11-.82.08-.24.19-.45.34-.62.15-.17.33-.31.55-.4.22-.09.47-.14.76-.14.24,0,.46.05.65.13.2.09.4.22.59.4v-2.05s0-.03.01-.05c.01-.02.03-.03.06-.04.03,0,.07-.02.11-.02.04,0,.11-.01.18-.01.08,0,.14,0,.18.01.05,0,.09.01.11.02.03.01.05.02.06.04.01.02.02.03.02.05v5.22Zm-5.31,0s0,.04-.02.05c-.01.02-.03.03-.06.04-.03.01-.06.02-.11.02-.05,0-.11,0-.18,0-.08,0-.14,0-.19,0-.05,0-.08-.01-.11-.02-.03-.01-.05-.02-.06-.04-.01-.01-.02-.03-.02-.05v-2.07c0-.2-.02-.36-.06-.48-.03-.12-.09-.23-.16-.32-.07-.09-.16-.16-.27-.21-.11-.05-.24-.07-.38-.07-.19,0-.37.06-.56.17-.19.12-.39.28-.59.51v2.46s0,.04-.02.05c-.01.02-.03.03-.06.04-.03.01-.06.02-.11.02-.05,0-.11,0-.18,0s-.13,0-.18,0c-.05,0-.09-.01-.11-.02-.03-.01-.05-.02-.06-.04-.01-.01-.02-.03-.02-.05v-3.53s0-.04.01-.05c.01-.01.03-.03.05-.04.03-.01.06-.02.11-.02.04,0,.1,0,.17,0,.07,0,.12,0,.17,0,.04,0,.08.01.1.02.02.01.04.03.05.04.01.01.02.03.02.05v.47c.23-.22.46-.38.68-.49.23-.1.46-.15.69-.15.27,0,.5.04.69.12.18.08.34.19.45.32.11.13.19.29.24.47.05.18.08.39.08.64v2.15Zm-5.77-1.76c0-.19-.02-.37-.06-.54-.04-.17-.11-.32-.2-.45-.09-.13-.22-.23-.38-.3-.16-.08-.36-.11-.6-.11-.22,0-.41.03-.57.1-.16.07-.29.16-.39.29-.1.13-.18.27-.23.44-.05.17-.08.36-.08.56s.02.37.06.54c.04.17.11.32.2.45.09.13.22.23.38.3.16.07.36.11.6.11.22,0,.41-.03.56-.1.16-.07.29-.16.39-.29.1-.12.18-.27.23-.44.05-.17.07-.35.07-.56Zm.79-.04c0,.29-.04.55-.13.79-.09.24-.22.45-.39.63-.17.18-.39.31-.65.41-.26.1-.57.15-.91.15s-.63-.04-.88-.13c-.25-.09-.46-.21-.62-.38-.17-.16-.29-.36-.37-.6-.08-.23-.12-.5-.12-.8s.04-.55.13-.79c.09-.24.22-.45.39-.63.17-.18.39-.31.65-.41.26-.1.56-.15.91-.15s.63.04.88.13c.25.08.46.21.62.38.17.16.29.36.38.6.08.24.12.5.12.8Zm-4.76-2.88s0,.09,0,.13c0,.04-.02.07-.03.09-.01.02-.03.04-.05.05-.02.01-.04.02-.06.02H.78v1.72h2.03s.04,0,.06.01c.02,0,.04.02.05.05.01.02.02.05.03.08,0,.03.01.08.01.14,0,.05,0,.09-.01.13,0,.03-.02.06-.03.09-.01.02-.03.04-.05.05-.02,0-.04.02-.06.02H.78v2.11s0,.04-.02.05c-.01.02-.03.03-.06.04-.03.01-.07.02-.12.02-.05,0-.11,0-.19,0-.07,0-.14,0-.19,0-.05,0-.09-.01-.12-.02-.03,0-.05-.02-.06-.04-.01-.01-.02-.03-.02-.05v-4.69c0-.1.03-.17.09-.21.06-.04.13-.06.2-.06h2.63s.04,0,.06.01c.02.01.04.03.05.05.01.02.03.05.03.09,0,.04,0,.08,0,.13Z"/>
      <path d="m126.93,44.96c0-.34-.08-.61-.26-.8-.18-.19-.45-.29-.81-.29-.19,0-.35.03-.49.09-.14.06-.25.14-.35.24-.09.1-.17.21-.22.34-.05.13-.08.27-.09.42h2.21Zm.75.19c0,.1-.03.18-.09.22-.06.04-.13.06-.2.06h-2.67c0,.2.02.37.07.53.04.16.12.29.23.4.11.11.24.2.41.26.17.06.38.09.62.09.19,0,.37-.01.52-.04.15-.02.28-.06.39-.09.11-.03.2-.07.27-.09.07-.03.12-.04.16-.04.02,0,.04,0,.06.01.02,0,.03.02.04.04.01.02.02.04.02.08,0,.03,0,.07,0,.12,0,.04,0,.07,0,.09,0,.02,0,.05-.01.07,0,.02-.01.04-.02.05-.01.01-.02.03-.04.04-.02.02-.07.04-.15.07-.08.03-.19.06-.32.1-.13.03-.28.06-.45.08-.17.02-.35.04-.54.04-.34,0-.63-.04-.88-.12-.25-.08-.46-.2-.64-.36-.17-.16-.3-.36-.39-.6-.09-.24-.13-.52-.13-.84s.05-.58.14-.82c.09-.24.22-.45.39-.62.17-.17.38-.3.62-.39.24-.09.51-.13.81-.13.32,0,.59.04.82.13.23.09.41.21.55.36.15.15.25.32.32.53.07.2.1.42.1.65v.11Zm-5.4-.57c0-.27-.04-.53-.12-.77-.08-.24-.2-.44-.37-.61-.17-.17-.38-.31-.64-.4-.26-.1-.59-.14-.99-.14h-.79v3.95h.8c.38,0,.69-.04.95-.12.25-.08.47-.2.64-.37.17-.17.3-.38.39-.63.09-.25.13-.55.13-.9Zm.82-.03c0,.44-.07.82-.19,1.15-.13.33-.32.6-.57.81-.25.22-.56.38-.92.48-.36.11-.79.16-1.29.16h-1.24c-.07,0-.14-.02-.2-.06-.06-.04-.09-.11-.09-.22v-4.52c0-.1.03-.17.09-.21.06-.04.13-.06.2-.06h1.32c.51,0,.93.06,1.29.17.35.11.64.28.88.49.24.21.41.47.54.77.12.3.18.64.18,1.03Zm-8.06,2.51s0,.04-.02.05c-.01.02-.03.03-.06.04-.03.01-.06.02-.11.02-.05,0-.11,0-.19,0-.07,0-.13,0-.18,0-.05,0-.09-.01-.11-.02-.03-.01-.05-.02-.06-.04-.01-.01-.02-.03-.02-.05v-5.23s0-.04.02-.05c.01-.02.03-.03.06-.04.03,0,.07-.02.11-.02.05,0,.11,0,.18,0,.08,0,.14,0,.19,0,.05,0,.08.01.11.02.03.01.05.02.06.04.01.01.02.03.02.05v5.23Zm-2.63-2.11c0-.34-.08-.61-.26-.8-.18-.19-.45-.29-.81-.29-.19,0-.35.03-.49.09-.14.06-.25.14-.35.24-.09.1-.17.21-.22.34-.05.13-.08.27-.09.42h2.21Zm.75.19c0,.1-.03.18-.09.22-.06.04-.13.06-.2.06h-2.67c0,.2.02.37.07.53.04.16.12.29.23.4.11.11.24.2.41.26.17.06.38.09.62.09.19,0,.37-.01.52-.04.15-.02.28-.06.39-.09.11-.03.2-.07.27-.09.07-.03.12-.04.16-.04.02,0,.04,0,.06.01.02,0,.03.02.04.04.01.02.02.04.02.08,0,.03,0,.07,0,.12,0,.04,0,.07,0,.09,0,.02,0,.05,0,.07,0,.02-.01.04-.02.05-.01.01-.02.03-.04.04-.02.02-.07.04-.15.07-.08.03-.19.06-.32.1-.13.03-.28.06-.45.08-.17.02-.35.04-.54.04-.34,0-.63-.04-.88-.12-.25-.08-.46-.2-.64-.36-.17-.16-.3-.36-.39-.6-.09-.24-.13-.52-.13-.84s.05-.58.14-.82c.09-.24.22-.45.39-.62.17-.17.38-.3.62-.39.24-.09.51-.13.81-.13.32,0,.59.04.82.13.23.09.41.21.56.36.15.15.25.32.32.53.07.2.1.42.1.65v.11Zm-7.68.31h-.64c-.2,0-.38.01-.53.04-.15.03-.27.07-.38.13-.1.06-.17.13-.22.21-.05.08-.07.18-.07.28,0,.18.07.33.2.44.14.11.32.16.56.16.19,0,.38-.04.54-.13.17-.08.34-.22.53-.39v-.75Zm.74,1.61s-.01.05-.04.07c-.02.02-.06.03-.1.03-.05.01-.1.01-.19.01-.08,0-.14,0-.19-.01-.05,0-.08-.02-.1-.03-.02-.01-.03-.04-.03-.07v-.36c-.18.16-.38.29-.59.38-.22.09-.45.14-.69.14-.22,0-.41-.02-.58-.07-.17-.05-.32-.12-.44-.21-.12-.09-.22-.2-.29-.34-.07-.14-.1-.29-.1-.46,0-.2.05-.37.14-.52.09-.15.23-.27.4-.36.17-.1.39-.17.64-.22.25-.05.54-.07.86-.07h.56v-.28c0-.14-.02-.26-.05-.36-.03-.1-.09-.19-.16-.26-.08-.07-.17-.12-.29-.16-.12-.04-.26-.05-.43-.05-.19,0-.35.02-.5.06-.15.04-.28.08-.39.13-.11.04-.2.08-.28.13-.07.04-.13.06-.16.06-.02,0-.05,0-.06-.01-.02-.01-.03-.03-.05-.05-.01-.02-.02-.05-.03-.08,0-.03-.01-.07-.01-.1,0-.07,0-.12.02-.16.01-.04.04-.07.08-.11.04-.04.11-.07.21-.12.1-.05.21-.09.34-.13.13-.04.27-.07.43-.09.15-.03.31-.04.47-.04.29,0,.54.03.74.09.21.06.37.14.5.25.13.11.22.25.27.41.06.17.09.36.09.58v2.38Zm-3.73-3.3c0,.06,0,.11,0,.15,0,.04-.01.07-.02.09,0,.02-.02.04-.03.05-.01.01-.03.02-.06.02s-.05,0-.09-.02c-.04-.01-.07-.02-.12-.04-.04-.01-.09-.02-.15-.03-.06-.01-.11-.01-.18-.01-.08,0-.15.01-.22.04-.07.03-.15.07-.23.13-.08.06-.16.14-.25.24-.09.1-.18.22-.29.36v2.32s0,.04-.02.05c-.01.02-.03.03-.06.04-.03.01-.07.02-.11.02-.05,0-.11,0-.19,0-.07,0-.13,0-.18,0-.05,0-.09-.01-.11-.02-.03-.01-.05-.02-.06-.04-.01-.01-.02-.03-.02-.05v-3.53s0-.04.01-.05c0-.01.03-.03.05-.04.03-.01.06-.02.1-.02.04,0,.1,0,.17,0s.12,0,.17,0c.04,0,.08.01.1.02.02.01.04.03.05.04.01.01.02.03.02.05v.51c.11-.14.22-.26.31-.34.1-.09.19-.16.28-.21.09-.05.17-.08.26-.1.09-.02.17-.03.26-.03.04,0,.08,0,.14,0,.05,0,.1,0,.15.02.06,0,.1.02.15.03.04.01.08.03.09.04.02.01.03.02.04.04,0,.01.01.03.02.05,0,.02,0,.05,0,.08,0,.03,0,.08,0,.14Zm-4.49,1.69h-.64c-.2,0-.38.01-.53.04-.15.03-.28.07-.38.13-.1.06-.17.13-.22.21-.05.08-.07.18-.07.28,0,.18.07.33.2.44.14.11.32.16.57.16.2,0,.38-.04.55-.13.17-.08.34-.22.53-.39v-.75Zm.74,1.61s-.01.05-.04.07c-.02.02-.06.03-.1.03-.04.01-.1.01-.18.01s-.14,0-.19-.01c-.05,0-.08-.02-.1-.03-.02-.01-.03-.04-.03-.07v-.36c-.18.16-.38.29-.59.38-.22.09-.45.14-.69.14-.22,0-.41-.02-.58-.07-.17-.05-.32-.12-.44-.21-.12-.09-.22-.2-.29-.34-.07-.14-.1-.29-.1-.46,0-.2.05-.37.14-.52.1-.15.23-.27.4-.36.17-.1.39-.17.64-.22.25-.05.54-.07.86-.07h.56v-.28c0-.14-.02-.26-.05-.36-.03-.1-.09-.19-.16-.26-.08-.07-.17-.12-.29-.16-.12-.04-.26-.05-.43-.05-.18,0-.35.02-.5.06-.15.04-.27.08-.39.13-.11.04-.2.08-.27.13-.07.04-.13.06-.17.06-.02,0-.04,0-.06-.01-.02-.01-.03-.03-.05-.05-.01-.02-.02-.05-.03-.08,0-.03-.01-.07-.01-.1,0-.07,0-.12.02-.16.01-.04.03-.07.08-.11.04-.04.11-.07.21-.12.1-.05.21-.09.34-.13.13-.04.27-.07.43-.09.15-.03.31-.04.47-.04.29,0,.54.03.75.09.21.06.37.14.5.25.13.11.22.25.28.41.06.17.09.36.09.58v2.38Zm-4.98-1.75c0-.18-.01-.36-.05-.52-.03-.17-.08-.32-.16-.45-.08-.13-.18-.23-.31-.31-.13-.08-.29-.12-.48-.12-.1,0-.19.01-.29.04-.09.03-.19.06-.28.12-.1.05-.2.13-.31.21-.1.09-.22.2-.33.32v1.4c.2.22.4.38.59.5.18.11.38.17.58.17.19,0,.35-.04.48-.12.13-.08.24-.18.33-.31.08-.13.14-.28.18-.44.04-.16.06-.32.06-.49Zm.79-.08c0,.31-.04.59-.11.83-.08.25-.19.46-.34.63-.15.17-.33.3-.56.4-.22.09-.47.14-.76.14-.12,0-.23-.01-.33-.03-.1-.02-.21-.05-.3-.1-.1-.04-.2-.1-.29-.17-.1-.07-.2-.15-.31-.24v1.76s0,.04-.02.06c-.01.01-.03.03-.06.04-.03.01-.06.02-.11.03-.05,0-.11,0-.19,0-.07,0-.13,0-.18,0-.05,0-.09-.01-.11-.03-.03,0-.05-.02-.06-.04-.01-.02-.02-.03-.02-.06v-4.92s0-.04.01-.06c0-.01.03-.03.05-.04.03-.01.06-.02.1-.02.04,0,.09,0,.15,0,.06,0,.12,0,.16,0,.04,0,.07.01.1.02.03.01.05.02.06.04.01.01.01.03.01.06v.47c.13-.11.24-.21.36-.29.11-.08.23-.15.35-.2.12-.05.23-.09.36-.12.12-.03.25-.04.39-.04.3,0,.55.05.75.15.21.1.38.24.51.41.13.17.23.37.29.6.06.23.09.47.09.73Zm-7.66,1.82s0,.04-.02.05c-.01.02-.03.03-.06.04-.03.01-.07.02-.11.02-.05,0-.11,0-.18,0-.08,0-.14,0-.19,0-.05,0-.09-.01-.11-.02-.03-.01-.05-.02-.06-.04-.01-.01-.02-.03-.02-.05v-2.07c0-.2-.02-.36-.05-.48-.03-.12-.09-.23-.16-.32-.07-.09-.16-.16-.27-.21-.11-.05-.24-.07-.38-.07-.19,0-.37.06-.56.17-.19.12-.39.28-.59.51v2.46s0,.04-.02.05c-.01.02-.03.03-.06.04-.03.01-.07.02-.11.02-.05,0-.11,0-.19,0s-.13,0-.18,0c-.05,0-.09-.01-.11-.02-.03-.01-.05-.02-.06-.04-.01-.01-.02-.03-.02-.05v-3.53s0-.04.01-.05c.01-.01.03-.03.06-.04.03-.01.06-.02.1-.02.04,0,.1,0,.17,0s.12,0,.17,0c.04,0,.08.01.1.02.02.01.04.03.05.04,0,.01.01.03.01.05v.47c.23-.22.46-.38.69-.49.23-.1.46-.15.69-.15.27,0,.5.04.69.12.18.08.34.19.45.32.11.13.2.29.25.47.05.18.08.39.08.64v2.15Zm-6.65-5.25s.04-.05.06-.07c.03-.02.06-.03.09-.04.04,0,.08-.02.13-.02.05,0,.11,0,.18,0,.08,0,.15,0,.21.01.05.01.09.02.11.04.02.02.03.03.02.06,0,.02-.01.05-.04.07l-.82.91s-.05.05-.07.06c-.02.02-.04.03-.07.04-.02,0-.06.01-.1.02-.04,0-.09,0-.15,0-.07,0-.12,0-.16-.01-.04,0-.07-.02-.08-.03-.02-.01-.02-.03-.02-.05,0-.02.02-.05.04-.07l.65-.9Zm.88,3.49c0-.19-.02-.37-.06-.54-.04-.17-.11-.32-.2-.45-.09-.13-.22-.23-.38-.3-.16-.08-.36-.11-.6-.11-.22,0-.41.03-.57.1-.16.07-.29.16-.39.29-.1.13-.18.27-.23.44-.05.17-.07.36-.07.56s.02.37.06.54c.04.17.11.32.21.45.09.13.22.23.38.3.16.07.36.11.6.11.22,0,.41-.03.57-.1.16-.07.29-.16.39-.29.1-.12.18-.27.23-.44.05-.17.07-.35.07-.56Zm.79-.04c0,.29-.05.55-.13.79-.09.24-.22.45-.39.63-.17.18-.39.31-.65.41-.26.1-.56.15-.91.15s-.63-.04-.88-.13c-.25-.09-.46-.21-.62-.38-.17-.16-.29-.36-.37-.6-.08-.23-.12-.5-.12-.8s.05-.55.13-.79c.09-.24.22-.45.39-.63.17-.18.39-.31.65-.41.26-.1.56-.15.91-.15s.63.04.87.13c.25.08.46.21.62.38.17.16.29.36.37.6.08.24.13.5.13.8Zm-5.08-2.92c0,.15-.03.26-.1.31-.07.06-.19.08-.37.08s-.3-.03-.36-.08c-.07-.06-.1-.16-.1-.3s.03-.26.1-.31c.07-.06.19-.08.37-.08s.29.02.36.08c.07.06.1.16.1.3Zm-.08,4.72s0,.04-.02.05c-.01.02-.03.03-.06.04-.03.01-.06.02-.11.02-.05,0-.11,0-.19,0s-.13,0-.18,0c-.05,0-.09-.01-.12-.02-.03-.01-.05-.02-.06-.04-.01-.01-.02-.03-.02-.05v-3.53s0-.04.02-.05c0-.02.03-.03.06-.04.03-.01.07-.02.12-.02.05,0,.11,0,.18,0s.14,0,.19,0c.05,0,.08.01.11.02.03,0,.05.02.06.04.01.02.02.03.02.05v3.53Zm-1.74-.54s0,.08,0,.12c0,.03-.01.06-.02.08,0,.02-.02.04-.03.06-.01.02-.03.04-.07.08-.04.03-.1.07-.19.12-.09.05-.19.09-.31.13-.11.04-.24.07-.37.09-.13.03-.27.04-.41.04-.29,0-.55-.04-.78-.13-.23-.08-.42-.21-.57-.37-.15-.16-.27-.36-.35-.59-.08-.23-.12-.5-.12-.81,0-.35.05-.64.15-.89.1-.25.23-.45.4-.61.17-.16.37-.28.6-.35.23-.08.48-.12.75-.12.13,0,.26.01.38.03.12.02.23.05.34.08.1.03.19.07.27.12.08.05.14.08.17.12.04.03.06.05.07.07.01.02.03.04.04.07,0,.02.02.05.02.08,0,.03,0,.07,0,.12,0,.1-.01.17-.04.21-.03.04-.06.06-.1.06-.04,0-.1-.02-.15-.06-.06-.04-.13-.09-.23-.14-.09-.05-.2-.1-.33-.14-.13-.05-.28-.07-.46-.07-.36,0-.63.12-.82.36-.19.24-.28.58-.28,1.04,0,.23.02.43.07.6.05.17.12.32.22.43.1.11.22.2.35.26.14.06.3.08.48.08s.32-.02.45-.07c.13-.05.24-.1.34-.15.1-.06.18-.11.24-.15.07-.04.11-.07.15-.07.02,0,.04,0,.06.01.02.01.03.03.04.05.01.03.02.06.02.09,0,.04,0,.08,0,.14Zm-5.04-1.07h-.64c-.2,0-.38.01-.54.04-.15.03-.27.07-.37.13-.1.06-.17.13-.22.21-.05.08-.07.18-.07.28,0,.18.07.33.2.44.14.11.32.16.56.16.2,0,.38-.04.55-.13.17-.08.34-.22.53-.39v-.75Zm.74,1.61s-.01.05-.04.07c-.02.02-.06.03-.1.03-.04.01-.1.01-.18.01s-.14,0-.19-.01c-.05,0-.08-.02-.1-.03-.02-.01-.03-.04-.03-.07v-.36c-.18.16-.38.29-.6.38-.22.09-.45.14-.69.14-.21,0-.41-.02-.58-.07-.17-.05-.32-.12-.44-.21-.12-.09-.22-.2-.29-.34-.06-.14-.1-.29-.1-.46,0-.2.05-.37.14-.52.09-.15.23-.27.4-.36.17-.1.39-.17.64-.22.25-.05.54-.07.86-.07h.56v-.28c0-.14-.02-.26-.05-.36-.03-.1-.09-.19-.16-.26-.07-.07-.17-.12-.29-.16-.12-.04-.26-.05-.43-.05-.18,0-.35.02-.5.06-.15.04-.27.08-.38.13-.11.04-.2.08-.28.13-.08.04-.13.06-.17.06-.02,0-.05,0-.06-.01-.02-.01-.03-.03-.05-.05-.01-.02-.02-.05-.03-.08,0-.03-.01-.07-.01-.1,0-.07,0-.12.02-.16.01-.04.04-.07.08-.11.04-.04.11-.07.21-.12.1-.05.21-.09.34-.13.13-.04.27-.07.43-.09.15-.03.31-.04.47-.04.29,0,.54.03.75.09.21.06.37.14.5.25.13.11.22.25.28.41.06.17.09.36.09.58v2.38Z"/>
      <path d="m178.13,45.46h-.64c-.21,0-.38.01-.54.04-.15.03-.27.07-.38.13-.1.06-.17.13-.22.21-.05.08-.07.18-.07.28,0,.18.07.33.2.44.14.11.32.16.57.16.19,0,.38-.04.54-.13.17-.08.34-.22.53-.39v-.75Zm.74,1.61s-.01.05-.04.07c-.02.02-.06.03-.1.03-.04.01-.1.01-.18.01s-.14,0-.19-.01c-.05,0-.08-.02-.1-.03-.02-.01-.03-.04-.03-.07v-.36c-.18.16-.38.29-.6.38-.22.09-.45.14-.7.14-.21,0-.41-.02-.58-.07-.17-.05-.32-.12-.44-.21-.12-.09-.22-.2-.29-.34-.07-.14-.1-.29-.1-.46,0-.2.05-.37.14-.52.09-.15.23-.27.4-.36.18-.1.39-.17.64-.22.25-.05.54-.07.86-.07h.56v-.28c0-.14-.02-.26-.05-.36-.04-.1-.09-.19-.16-.26-.07-.07-.17-.12-.29-.16-.12-.04-.26-.05-.43-.05-.19,0-.35.02-.49.06-.15.04-.28.08-.39.13-.11.04-.2.08-.28.13-.07.04-.13.06-.16.06-.02,0-.05,0-.06-.01-.02-.01-.04-.03-.05-.05-.01-.02-.02-.05-.03-.08,0-.03,0-.07,0-.1,0-.07,0-.12.02-.16.01-.04.03-.07.08-.11.04-.04.11-.07.21-.12.1-.05.21-.09.34-.13.13-.04.27-.07.43-.09.15-.03.31-.04.47-.04.29,0,.54.03.75.09.21.06.37.14.5.25.13.11.22.25.28.41.06.17.08.36.08.58v2.38Zm-4.36-4.73c0,.15-.03.26-.1.31-.07.06-.19.08-.37.08s-.3-.03-.36-.08c-.07-.06-.1-.16-.1-.3s.03-.26.1-.31c.07-.06.19-.08.37-.08s.3.02.36.08c.06.06.1.16.1.3Zm-.09,4.72s0,.04-.02.05c-.01.02-.03.03-.06.04-.03.01-.07.02-.11.02-.05,0-.11,0-.19,0-.07,0-.13,0-.18,0-.05,0-.09-.01-.12-.02-.03-.01-.05-.02-.06-.04-.01-.01-.02-.03-.02-.05v-3.53s0-.04.02-.05c0-.02.03-.03.06-.04.03-.01.07-.02.12-.02.05,0,.11,0,.18,0,.08,0,.14,0,.19,0,.05,0,.08.01.11.02.03,0,.04.02.06.04.01.02.02.03.02.05v3.53Zm-1.74-.54s0,.08,0,.12c0,.03-.01.06-.01.08,0,.02-.02.04-.03.06-.01.02-.04.04-.07.08-.04.03-.1.07-.19.12-.09.05-.19.09-.31.13-.11.04-.24.07-.37.09-.13.03-.27.04-.41.04-.29,0-.55-.04-.78-.13-.23-.08-.41-.21-.57-.37-.15-.16-.27-.36-.35-.59-.08-.23-.12-.5-.12-.81,0-.35.05-.64.15-.89.1-.25.23-.45.4-.61.17-.16.37-.28.6-.35.23-.08.48-.12.75-.12.13,0,.26.01.38.03.12.02.23.05.34.08.1.03.2.07.27.12.08.05.14.08.17.12.04.03.06.05.07.07.01.02.03.04.04.07,0,.02.01.05.02.08,0,.03,0,.07,0,.12,0,.1-.01.17-.04.21-.03.04-.06.06-.1.06-.05,0-.1-.02-.16-.06-.06-.04-.13-.09-.23-.14-.09-.05-.2-.1-.33-.14-.13-.05-.28-.07-.46-.07-.36,0-.63.12-.82.36-.19.24-.29.58-.29,1.04,0,.23.02.43.07.6.05.17.12.32.22.43.1.11.21.2.35.26.14.06.3.08.48.08.17,0,.32-.02.45-.07.13-.05.24-.1.34-.15.09-.06.17-.11.24-.15.07-.04.11-.07.15-.07.02,0,.04,0,.05.01.02.01.03.03.04.05.01.03.02.06.02.09,0,.04,0,.08,0,.14Zm-5.19-1.22c0-.19-.02-.37-.06-.54-.04-.17-.11-.32-.2-.45-.09-.13-.22-.23-.38-.3-.16-.08-.36-.11-.6-.11-.22,0-.41.03-.57.1-.16.07-.29.16-.39.29-.1.13-.18.27-.23.44-.05.17-.07.36-.07.56s.02.37.06.54c.04.17.11.32.21.45.09.13.22.23.38.3.16.07.36.11.6.11.22,0,.41-.03.57-.1.16-.07.29-.16.39-.29.1-.12.18-.27.23-.44.05-.17.07-.35.07-.56Zm.79-.04c0,.29-.04.55-.13.79-.09.24-.22.45-.39.63-.17.18-.39.31-.65.41-.26.1-.56.15-.91.15s-.63-.04-.88-.13c-.25-.09-.46-.21-.62-.38-.17-.16-.29-.36-.37-.6-.08-.23-.12-.5-.12-.8s.04-.55.13-.79c.09-.24.22-.45.39-.63.17-.18.39-.31.65-.41.26-.1.56-.15.91-.15s.63.04.88.13c.25.08.46.21.62.38.17.16.29.36.37.6.08.24.12.5.12.8Zm-5.19.48c0,.24-.05.45-.15.63-.1.18-.24.34-.42.47-.18.13-.39.23-.63.29-.24.07-.5.1-.78.1-.2,0-.38-.01-.55-.04-.17-.03-.32-.06-.45-.11-.13-.04-.24-.08-.33-.13-.09-.05-.15-.08-.18-.12-.03-.03-.06-.07-.08-.12-.02-.05-.02-.11-.02-.19,0-.06,0-.1.01-.14,0-.04.01-.07.02-.09.01-.02.03-.04.05-.05.02-.01.04-.01.06-.01.04,0,.1.02.18.07.08.05.18.09.3.15.12.05.27.1.44.15.17.05.37.07.59.07.17,0,.32-.02.46-.06.14-.04.26-.09.36-.16.1-.07.18-.16.23-.26.05-.1.08-.22.08-.36,0-.14-.04-.27-.11-.37-.07-.1-.17-.19-.3-.27-.12-.08-.26-.15-.42-.21-.16-.06-.32-.13-.49-.2-.17-.07-.33-.14-.48-.22-.16-.08-.3-.17-.42-.28-.12-.11-.22-.24-.3-.39-.08-.15-.11-.32-.11-.53s.05-.4.13-.57c.09-.17.21-.31.37-.42.16-.11.35-.2.57-.26.22-.06.45-.09.71-.09.13,0,.26.01.39.03.13.02.25.05.37.08.11.03.22.07.31.11.09.04.15.07.18.1.03.02.05.05.06.06,0,.01.02.03.02.05,0,.02.01.05.01.08,0,.03,0,.07,0,.12,0,.05,0,.09,0,.12,0,.04-.01.07-.02.09-.01.02-.02.04-.04.06-.02.01-.04.02-.06.02-.03,0-.09-.02-.16-.05-.07-.04-.16-.08-.26-.13-.1-.05-.22-.09-.36-.12-.14-.04-.3-.06-.47-.06-.16,0-.31.02-.43.06-.12.04-.22.09-.3.15-.08.06-.14.14-.18.22-.04.09-.06.18-.06.28,0,.14.04.26.11.36.08.1.17.19.3.27.12.08.27.15.43.22.16.07.32.13.49.2.17.07.33.14.49.22.16.08.3.17.43.28.13.11.23.24.3.38.08.15.11.32.11.52Zm-7.67-.44c0-.19-.02-.37-.06-.54-.04-.17-.11-.32-.2-.45-.09-.13-.22-.23-.38-.3-.16-.08-.36-.11-.6-.11-.22,0-.41.03-.57.1-.16.07-.29.16-.39.29-.1.13-.18.27-.23.44-.05.17-.07.36-.07.56s.02.37.06.54c.04.17.11.32.21.45.09.13.22.23.38.3.16.07.36.11.6.11.22,0,.41-.03.57-.1.16-.07.29-.16.39-.29.1-.12.18-.27.23-.44.05-.17.07-.35.07-.56Zm.79-.04c0,.29-.05.55-.13.79-.09.24-.22.45-.39.63-.17.18-.39.31-.65.41-.26.1-.56.15-.91.15s-.63-.04-.88-.13c-.25-.09-.46-.21-.62-.38-.17-.16-.29-.36-.37-.6-.08-.23-.12-.5-.12-.8s.04-.55.13-.79c.09-.24.22-.45.39-.63.17-.18.39-.31.65-.41.26-.1.56-.15.91-.15s.63.04.87.13c.25.08.46.21.62.38.17.16.29.36.37.6.08.24.13.5.13.8Zm-5.17,1.8s0,.04-.02.05c-.01.02-.03.03-.06.04-.03.01-.06.02-.11.02-.05,0-.11,0-.19,0-.07,0-.13,0-.18,0-.05,0-.09-.01-.11-.02-.03-.01-.05-.02-.06-.04-.01-.01-.02-.03-.02-.05v-5.23s0-.04.02-.05c0-.02.03-.03.06-.04.03,0,.07-.02.11-.02.05,0,.11,0,.18,0,.08,0,.14,0,.19,0,.05,0,.08.01.11.02.03.01.05.02.06.04.01.01.02.03.02.05v5.23Zm-2.13,0s0,.04-.02.05c-.01.02-.03.03-.06.04-.03.01-.07.02-.11.02-.05,0-.11,0-.18,0s-.13,0-.18,0c-.05,0-.09-.01-.12-.02-.03-.01-.05-.02-.06-.04-.01-.01-.02-.03-.02-.05v-5.23s0-.04.02-.05c.01-.02.03-.03.06-.04.03,0,.07-.02.12-.02.05,0,.11,0,.18,0s.14,0,.18,0c.05,0,.09.01.11.02.02.01.05.02.06.04.01.01.02.03.02.05v5.23Zm-3-1.76c0-.19-.02-.37-.06-.54-.04-.17-.11-.32-.2-.45-.09-.13-.22-.23-.38-.3-.16-.08-.36-.11-.6-.11-.22,0-.41.03-.57.1-.16.07-.29.16-.39.29-.1.13-.18.27-.23.44-.05.17-.08.36-.08.56s.02.37.06.54c.04.17.11.32.2.45.09.13.22.23.38.3.16.07.36.11.6.11.22,0,.41-.03.56-.1.16-.07.29-.16.39-.29.1-.12.18-.27.23-.44.05-.17.07-.35.07-.56Zm.79-.04c0,.29-.04.55-.13.79-.09.24-.22.45-.39.63-.17.18-.39.31-.65.41-.26.1-.57.15-.91.15s-.63-.04-.88-.13c-.25-.09-.46-.21-.62-.38-.17-.16-.29-.36-.37-.6-.08-.23-.12-.5-.12-.8s.05-.55.13-.79c.09-.24.22-.45.39-.63.17-.18.39-.31.65-.41.26-.1.56-.15.91-.15s.63.04.88.13c.25.08.46.21.62.38.17.16.29.36.38.6.08.24.12.5.12.8Zm-4.21-1.49c0,.06,0,.11,0,.15,0,.04-.01.07-.02.09-.01.02-.02.04-.04.05-.01.01-.03.02-.06.02s-.06,0-.09-.02c-.04-.01-.07-.02-.12-.04-.05-.01-.09-.02-.15-.03-.06-.01-.12-.01-.18-.01-.08,0-.15.01-.22.04-.07.03-.15.07-.23.13-.08.06-.16.14-.25.24-.09.1-.18.22-.29.36v2.32s0,.04-.02.05c-.01.02-.03.03-.06.04-.03.01-.06.02-.11.02-.05,0-.11,0-.19,0-.07,0-.13,0-.18,0-.05,0-.09-.01-.11-.02-.03-.01-.05-.02-.06-.04-.01-.01-.02-.03-.02-.05v-3.53s0-.04.01-.05c.01-.01.03-.03.06-.04.03-.01.06-.02.1-.02.04,0,.1,0,.17,0,.07,0,.12,0,.17,0,.04,0,.08.01.1.02.02.01.04.03.05.04,0,.01.02.03.02.05v.51c.11-.14.22-.26.31-.34.1-.09.19-.16.28-.21.09-.05.17-.08.26-.1.09-.02.17-.03.26-.03.04,0,.09,0,.14,0,.05,0,.1,0,.16.02.06,0,.1.02.15.03.04.01.08.03.09.04.02.01.03.02.04.04,0,.01.01.03.01.05,0,.02,0,.05.01.08,0,.03,0,.08,0,.14Zm-3.23,0c0,.06,0,.11,0,.15,0,.04-.01.07-.02.09,0,.02-.02.04-.03.05-.01.01-.03.02-.06.02s-.05,0-.09-.02c-.03-.01-.07-.02-.12-.04-.05-.01-.09-.02-.15-.03-.06-.01-.11-.01-.18-.01-.08,0-.15.01-.22.04-.07.03-.15.07-.23.13-.08.06-.16.14-.25.24-.09.1-.18.22-.29.36v2.32s0,.04-.02.05c-.01.02-.03.03-.06.04-.03.01-.07.02-.11.02-.05,0-.11,0-.19,0s-.13,0-.18,0c-.05,0-.09-.01-.11-.02-.03-.01-.05-.02-.06-.04-.01-.01-.02-.03-.02-.05v-3.53s0-.04.01-.05c.01-.01.03-.03.06-.04.03-.01.06-.02.1-.02.04,0,.1,0,.17,0,.07,0,.12,0,.16,0,.04,0,.08.01.1.02.02.01.04.03.05.04,0,.01.01.03.01.05v.51c.11-.14.22-.26.31-.34.1-.09.19-.16.28-.21.09-.05.17-.08.26-.1.09-.02.17-.03.26-.03.04,0,.09,0,.14,0,.05,0,.1,0,.16.02.05,0,.1.02.15.03.04.01.07.03.09.04.02.01.03.02.04.04s.01.03.01.05c0,.02,0,.05,0,.08,0,.03,0,.08,0,.14Zm-4.5,1.69h-.64c-.2,0-.38.01-.53.04-.15.03-.27.07-.38.13-.1.06-.17.13-.22.21-.05.08-.07.18-.07.28,0,.18.07.33.2.44.14.11.32.16.56.16.2,0,.38-.04.55-.13.17-.08.34-.22.53-.39v-.75Zm.74,1.61s-.01.05-.04.07c-.02.02-.06.03-.1.03-.05.01-.1.01-.19.01-.08,0-.14,0-.19-.01-.04,0-.08-.02-.1-.03-.02-.01-.03-.04-.03-.07v-.36c-.18.16-.38.29-.59.38-.22.09-.45.14-.69.14-.22,0-.41-.02-.58-.07-.17-.05-.32-.12-.44-.21-.12-.09-.22-.2-.29-.34-.07-.14-.1-.29-.1-.46,0-.2.05-.37.14-.52.09-.15.23-.27.4-.36.17-.1.39-.17.64-.22.25-.05.54-.07.86-.07h.56v-.28c0-.14-.01-.26-.05-.36-.03-.1-.09-.19-.16-.26-.07-.07-.17-.12-.29-.16-.12-.04-.26-.05-.43-.05-.19,0-.35.02-.5.06-.15.04-.27.08-.38.13-.11.04-.2.08-.28.13-.07.04-.13.06-.16.06-.02,0-.05,0-.06-.01-.02-.01-.04-.03-.05-.05-.01-.02-.02-.05-.03-.08,0-.03-.01-.07-.01-.1,0-.07,0-.12.02-.16.01-.04.03-.07.08-.11.04-.04.11-.07.21-.12.1-.05.21-.09.34-.13.13-.04.27-.07.43-.09.15-.03.31-.04.47-.04.29,0,.54.03.75.09.21.06.37.14.5.25.13.11.22.25.27.41.06.17.09.36.09.58v2.38Zm-4.14-.97c0,.18-.04.34-.11.48-.08.14-.19.26-.33.36-.14.1-.31.17-.51.22-.2.05-.41.07-.65.07-.14,0-.28-.01-.41-.03-.13-.02-.25-.05-.35-.08-.1-.03-.19-.06-.26-.09-.07-.03-.13-.06-.16-.09-.03-.03-.06-.06-.07-.11-.01-.05-.02-.11-.02-.19,0-.05,0-.09.01-.13,0-.03.01-.06.02-.08,0-.02.02-.04.04-.05.01-.01.03-.01.05-.01.03,0,.09.02.15.06.07.04.14.07.24.11.09.04.21.08.34.12.13.04.28.05.45.05.13,0,.24-.01.34-.03.1-.02.19-.06.27-.1.07-.05.13-.11.17-.18.04-.07.06-.15.06-.25s-.03-.18-.09-.25c-.06-.07-.14-.13-.23-.18-.1-.05-.2-.1-.33-.14-.12-.04-.24-.08-.37-.13-.13-.05-.25-.09-.38-.15-.12-.06-.23-.12-.33-.2-.1-.08-.17-.18-.23-.29-.06-.11-.09-.25-.09-.4,0-.14.03-.27.09-.4.06-.13.16-.24.28-.33.12-.09.28-.17.46-.23.18-.06.4-.09.65-.09.11,0,.22,0,.33.02.11.01.21.03.29.06.09.02.16.05.22.08.06.03.11.05.14.07.03.02.05.04.06.06.01.02.02.03.02.05,0,.02,0,.04.01.07,0,.03,0,.06,0,.11s0,.08,0,.11c0,.03-.01.06-.02.08,0,.02-.02.04-.04.05-.01,0-.03.01-.05.01-.03,0-.07-.01-.12-.05-.05-.03-.12-.06-.2-.09-.08-.03-.18-.06-.29-.09-.11-.03-.23-.04-.38-.04-.13,0-.24.01-.33.04-.1.02-.18.06-.24.11-.06.04-.11.1-.14.16-.03.06-.04.13-.04.21,0,.1.03.19.09.25.06.07.14.13.24.18.09.05.21.1.33.14.13.04.25.08.38.13.13.05.25.09.38.15.13.06.24.12.33.2.1.08.17.17.23.28.06.11.09.24.09.39Z"/>
      <path d="m180.99,47.07s0,.04-.02.05c-.01.02-.03.03-.06.04-.03.01-.06.02-.11.02-.05,0-.11,0-.19,0-.07,0-.13,0-.18,0-.05,0-.09-.01-.11-.02-.03-.01-.05-.02-.06-.04-.01-.01-.02-.03-.02-.05v-5.23s0-.04.02-.05c0-.02.03-.03.06-.04.03,0,.07-.02.11-.02.05,0,.11,0,.18,0,.08,0,.14,0,.19,0,.05,0,.09.01.11.02.03.01.05.02.06.04.01.01.02.03.02.05v5.23Z"/>
      <path class="cls-5" d="m116.05,39.95c.53-.58.83-1.44.88-2.55v-12.2c-.05-1.1-.35-1.97-.88-2.55h16.99c.81,0,1.58.1,2.34.37.73.26,1.34.59,1.77,1.03.78.69,1.15,1.86,1.17,3.53v7.41c-.02,1.68-.39,2.87-1.17,3.56-.43.41-1.04.77-1.77,1.02-.75.26-1.53.38-2.34.38h-16.99Zm8.68-2.84h3.73c.84,0,1.39-.13,1.65-.4.26-.22.39-.8.39-1.63v-7.55c0-.75-.1-1.25-.25-1.5-.3-.36-.89-.55-1.79-.53h-3.73v11.62Zm24.64-11.62v4.18h6.33c1.26,0,2.21-.1,2.93-.38v3.7c-.41-.29-1.22-.43-2.36-.46h-6.9v4.56h7.64c.7,0,1.66-.21,2.91-.6l-.65,3.45h-18.58c.53-.58.83-1.44.86-2.55v-12.19c-.03-1.1-.33-1.97-.86-2.55h18.14l.59,3.24c-.62-.19-1.1-.3-1.44-.33-.36-.02-1.1-.07-2.19-.07h-6.42Zm30.58-2.84l.7,3.51c-.78-.46-1.57-.69-2.4-.69l-.91.02h-7.13c-.52,0-.89.07-1.09.19-.2.13-.31.38-.31.71v.62c0,.44.11.71.31.85.19.13.64.19,1.34.19h5.08c1.31,0,2.26.06,2.83.15.58.11,1.05.31,1.44.63.78.62,1.17,1.55,1.18,2.83v4.72c-.01,1.17-.48,2.09-1.34,2.74-.48.34-.98.57-1.54.67-.51.1-1.39.17-2.57.17h-13.65l-.71-3.45c.58.25,1.12.42,1.65.49.52.07,1.47.11,2.81.11h6c.7,0,1.14-.04,1.28-.07.16-.06.28-.17.32-.26.08-.1.1-.32.1-.58v-.57c0-.39-.05-.7-.18-.84-.11-.15-.37-.2-.76-.2h-5.83c-1.23,0-2.16-.04-2.77-.16-.61-.1-1.12-.29-1.51-.55-.77-.55-1.16-1.52-1.18-2.87v-4.78c.03-1.18.5-2.1,1.37-2.73.45-.34.95-.6,1.5-.67.53-.14,1.39-.17,2.58-.17h13.39ZM8.68,25.51v4.16h6.85c.93.01,1.8-.13,2.65-.42v3.8c-.53-.2-1.01-.35-1.47-.44-.41-.05-1.04-.08-1.84-.08h-6.19v4.85c.05,1.12.34,1.97.87,2.57H0c.55-.62.82-1.47.87-2.57v-12.15c-.04-1.11-.31-1.96-.87-2.57h18.02l.64,3.28c-.6-.21-1.08-.31-1.44-.35-.39-.02-1.32-.05-2.86-.07h-5.69Zm17.19-2.86h11.95c.83,0,1.58.1,2.34.37.73.26,1.34.59,1.78,1.03.77.69,1.15,1.85,1.15,3.53v7.4c0,1.69-.39,2.87-1.15,3.56-.44.41-1.05.77-1.78,1.02-.76.26-1.51.38-2.34.38h-11.95c-.79,0-1.57-.13-2.3-.38-.75-.24-1.36-.6-1.81-1.02-.78-.69-1.14-1.87-1.17-3.56v-7.4c.02-1.68.39-2.84,1.17-3.53.45-.43,1.06-.77,1.81-1.03.73-.27,1.51-.37,2.3-.37Zm2.56,4.86h0v7.55c0,.76.09,1.26.28,1.51.29.36.89.53,1.76.53h2.76c.85,0,1.4-.12,1.67-.4.25-.22.37-.8.37-1.63v-7.55c0-.75-.1-1.26-.25-1.5-.31-.36-.89-.55-1.79-.53h-3.04c-.7,0-1.16.13-1.42.41-.2.28-.34.82-.34,1.61Zm27.91-4.86l7.92,13.81v-11.26c-.05-1.13-.35-1.99-.87-2.55h5.11c-.53.56-.83,1.42-.85,2.55v14.75h-9.96l-8.31-14.08v11.53c.05,1.11.34,1.97.87,2.55h-5.11c.53-.58.82-1.44.87-2.55v-12.2c-.05-1.1-.34-1.97-.87-2.55h11.19Zm31.65,0l.7,3.56c-.5-.31-1-.5-1.45-.59-.47-.08-1.26-.13-2.38-.13h-4.29c-.64,0-1.08.02-1.34.09-.22.04-.43.15-.59.31-.16.17-.27.33-.31.56-.05.24-.08.63-.08,1.24v7.35c0,.82.19,1.36.55,1.64.37.29,1.07.43,2.15.43h4.05c1.58,0,2.89-.17,3.96-.55l-.64,3.39h-12.62c-1.72-.02-3.04-.48-4.02-1.4-.49-.43-.8-.92-.99-1.42-.18-.52-.27-1.24-.27-2.14v-7.41c0-.9.09-1.61.27-2.11.19-.5.5-.98.99-1.42.98-.91,2.3-1.4,4.02-1.4h12.28Zm8.49,0h11.97c.78,0,1.56.1,2.31.37.73.26,1.34.59,1.77,1.03.78.69,1.17,1.85,1.17,3.53v7.41c0,1.69-.39,2.87-1.17,3.56-.42.41-1.04.78-1.77,1.02-.75.26-1.54.38-2.31.38h-11.97c-.79,0-1.57-.13-2.3-.38-.75-.24-1.36-.61-1.81-1.02-.75-.69-1.17-1.87-1.17-3.56v-7.41c0-1.68.42-2.84,1.17-3.53.46-.44,1.06-.77,1.81-1.03.73-.27,1.51-.37,2.3-.37Zm2.56,4.87h0v7.55c0,.76.09,1.26.25,1.51.32.36.92.53,1.78.53h2.77c.84,0,1.39-.12,1.64-.4.26-.22.39-.79.39-1.63v-7.55c0-.75-.1-1.25-.25-1.5-.3-.36-.92-.55-1.78-.53h-3.04c-.71,0-1.17.13-1.39.41-.25.28-.37.82-.37,1.61Z"/>
    </g>
  </g>
</svg>