<?xml version="1.0" encoding="UTF-8"?>
<svg id="Capa_2" data-name="Capa 2" xmlns="http://www.w3.org/2000/svg" viewBox="0 0 168.66 98.32">
  <defs>
    <style>
      .cls-1 {
        fill: none;
        stroke: #a6a6a6;
        stroke-linecap: round;
        stroke-linejoin: round;
        stroke-width: 1.24px;
      }

      .cls-2 {
        fill: #a6a6a6;
      }

      .cls-3 {
        fill: #4d4d4d;
      }

      .cls-4 {
        fill: #636363;
      }

      .cls-5 {
        fill: #999;
      }

      .cls-6 {
        fill: #7b7b7b;
      }
    </style>
  </defs>
  <g id="Capa_1-2" data-name="Capa 1">
    <g>
      <g>
        <path class="cls-3" d="m72.76,50.39l-33.37-30.9s-1.8-1.52-4.15-1.52h-.16s-.03,0-.04,0c-.03,0-.06,0-.1,0h-.16c-2.35,0-4.15,1.52-4.15,1.52L2.01,45.79s-4.56,5.18,1.04,9.95c0,0,5.1,3.71,9.33,0,3.68-3.23,11.3-10.2,18.16-16.54,2.36-2.04,4.09-3.54,4.48-3.88.75.69,7.17,6.55,13.04,11.79,6.04,5.58,12.34,11.41,14.33,13.23,4.15,3.8,9.33,0,9.33,0,5.6-4.77,1.04-9.95,1.04-9.95"/>
        <path class="cls-3" d="m34.94,17.96s.01,0,.02,0h.09s-.11,0-.11,0Z"/>
        <path class="cls-6" d="m78.73,0h.1s.01,0,.02,0h-.12Z"/>
        <path class="cls-6" d="m115.55,31.31L83.56,1.67s-1.97-1.67-4.55-1.67h-.17c-2.57,0-4.54,1.67-4.54,1.67l-26.08,23.11,11.47,10.8c7.5-6.58,19.16-16.61,19.16-16.61h.15s16.21,15.01,25,23.12l11.55-10.79Z"/>
        <path class="cls-2" d="m130.93,19.27s1.86-1.57,4.28-1.57h.15c2.42,0,4.28,1.57,4.28,1.57l25.4,20.69s6.24,4.33,2.36,11.3c-5.05,5.44-10.63,1.1-10.63,1.1-7.05-6.19-21.41-16.81-21.41-16.81h-.14s-22.63,21.22-26.91,25.15c-4.29,3.93-9.64,0-9.64,0-5.79-4.93-1.07-10.28-1.07-10.28l33.34-31.15Z"/>
        <path class="cls-5" d="m94.22,41.99s-31.1,13.56-4.86,34.18c10.3,9.32-9.03,21.92-9.03,21.92l22.11.12s12.67-17.7-6.54-31c-19.23-12.33-1.68-25.23-1.68-25.23"/>
        <path class="cls-6" d="m44.52,98.27l-1.65-1.95v-17.81h-.01c0-5.46-4.66-9.87-10.06-9.87h0s0,0,0,0c0,0,0,0-.01,0-5.4,0-10.06,4.42-10.06,9.87,0,.14,0,17.86,0,17.86l-1.64,1.9h8.63s-.02-10.63-.02-10.7h6.21c0,.07,0,10.7,0,10.7h8.61Zm-8.63-16.9h-6.19s0-3.74,0-3.78c.59-2.57,2.52-2.76,3.09-2.76,1.27,0,2.72.88,3.1,2.77,0,.03,0,3.73,0,3.76"/>
        <path class="cls-5" d="m49.95,72.14c-1.93,0-3.51-1.55-3.52-3.49,0-1.93,1.55-3.51,3.49-3.52,1.93,0,3.51,1.55,3.52,3.49,0,1.93-1.55,3.51-3.49,3.52"/>
        <path class="cls-2" d="m65.62,80.25h0c-1.69-.21-2.56-1.16-2.55-2.89,0-1.7,1.09-2.79,2.79-2.79s3.08,1.09,3.08,2.79c0,.03,0,.06,0,.09h0l4.6-4.42c-1.53-2.66-4.4-4.44-7.68-4.44-4.9,0-8.87,3.97-8.87,8.87s2.72,8.85,8.62,9.15h0s2.53.23,2.42,2.8c-.07,1.68-1.23,2.42-2.51,2.42-1.7,0-2.91-.72-2.91-2.42h-.05l-4.6,4.5c1.54,2.61,4.39,4.37,7.64,4.37,5.66,0,9.16-3.97,9.16-8.87s-3.27-9.08-9.16-9.16"/>
        <line class="cls-1" x1="117.1" y1="69.18" x2="117.1" y2="97.57"/>
      </g>
      <g>
        <path class="cls-4" d="m124.97,70.76c0,.29-.04.56-.13.78-.09.23-.21.42-.38.57-.17.16-.37.27-.61.35-.24.08-.53.12-.86.12h-.42v1.67s0,.05-.02.07c-.02.02-.04.04-.08.05-.04.01-.09.02-.15.03-.06,0-.15.01-.25.01s-.18,0-.24-.01c-.07,0-.12-.02-.16-.03-.04-.01-.07-.03-.08-.05-.02-.02-.02-.05-.02-.07v-4.72c0-.13.03-.22.09-.29.06-.06.15-.1.25-.1h1.17c.12,0,.23,0,.34.01.11,0,.23.03.38.06.15.03.3.09.45.17.15.08.28.19.39.32.11.13.19.28.25.45.06.17.08.36.08.58Zm-1.06.08c0-.18-.03-.34-.09-.45-.06-.12-.14-.21-.23-.26-.09-.06-.18-.09-.28-.11-.1-.01-.2-.02-.31-.02h-.43v1.78h.45c.16,0,.3-.02.41-.07.11-.05.2-.11.27-.19.07-.08.12-.18.16-.3.04-.11.05-.24.05-.37Z"/>
        <path class="cls-4" d="m126.51,74.27s0,.05-.02.07c-.02.02-.04.04-.08.05-.04.01-.09.02-.15.03-.06,0-.14.01-.23.01s-.17,0-.23-.01c-.06,0-.11-.02-.15-.03s-.06-.03-.08-.05c-.02-.02-.02-.04-.02-.07v-5.33s0-.05.02-.07c.02-.02.04-.04.08-.05.04-.01.09-.03.15-.03.06,0,.14-.01.23-.01s.17,0,.23.01c.06,0,.11.02.15.03.04.01.06.03.08.05.02.02.02.05.02.07v5.33Z"/>
        <path class="cls-4" d="m130.25,74.28s-.01.07-.04.09c-.03.02-.07.04-.12.05-.06,0-.14.01-.24.01-.12,0-.2,0-.25-.01-.05,0-.09-.02-.11-.05-.02-.02-.03-.05-.03-.09v-.29c-.14.16-.3.28-.48.37-.18.09-.38.13-.6.13-.18,0-.35-.03-.5-.08-.15-.05-.28-.12-.4-.22-.11-.1-.2-.22-.26-.37-.06-.15-.09-.32-.09-.51,0-.21.04-.39.12-.55.08-.16.19-.28.35-.38.16-.1.35-.18.58-.22.23-.05.5-.07.8-.07h.33v-.22c0-.11-.01-.21-.03-.3-.02-.09-.06-.16-.11-.21-.05-.06-.12-.1-.2-.13-.08-.03-.19-.04-.31-.04-.16,0-.31.02-.43.06-.13.04-.24.08-.34.13-.1.05-.18.09-.24.13-.07.04-.12.06-.16.06-.03,0-.05,0-.08-.03-.02-.02-.04-.05-.05-.08-.01-.04-.02-.08-.03-.13,0-.05-.01-.11-.01-.17,0-.08,0-.15.02-.2.01-.05.04-.09.07-.13.04-.04.1-.08.19-.13.09-.05.19-.09.32-.13.12-.04.25-.07.39-.1.14-.03.29-.04.44-.04.27,0,.5.03.69.08.19.06.35.14.47.26.12.11.21.26.27.44.06.18.08.4.08.64v2.43Zm-.95-1.55h-.37c-.16,0-.29.01-.4.04-.11.02-.2.06-.27.11-.07.05-.12.11-.15.18-.03.07-.05.15-.05.24,0,.15.05.27.14.36.09.09.22.13.38.13.14,0,.26-.04.38-.11.11-.07.23-.18.35-.32v-.62Z"/>
        <path class="cls-4" d="m133.02,73.91c0,.12,0,.21-.02.27-.01.06-.03.11-.06.13-.02.03-.06.05-.1.07-.04.02-.1.04-.16.05-.06.01-.13.03-.2.03-.07,0-.14.01-.21.01-.19,0-.36-.03-.5-.08-.14-.05-.26-.13-.35-.24-.09-.11-.16-.24-.2-.4-.04-.16-.07-.35-.07-.58v-1.85h-.41s-.09-.03-.11-.1c-.03-.06-.04-.17-.04-.32,0-.08,0-.14,0-.2,0-.05.02-.1.03-.13.01-.03.03-.05.05-.07.02-.01.04-.02.07-.02h.41v-.81s0-.05.02-.07c.01-.02.04-.04.08-.05.04-.01.09-.03.15-.03.06,0,.14-.01.23-.01s.17,0,.24.01c.06,0,.11.02.15.03.04.01.06.03.08.05.02.02.02.05.02.07v.81h.75s.05,0,.07.02c.02.01.04.04.05.07.01.03.02.07.03.13,0,.05,0,.12,0,.2,0,.15-.01.25-.04.32-.03.06-.06.1-.11.1h-.75v1.7c0,.2.03.35.09.44.06.1.16.15.32.15.05,0,.1,0,.14-.01.04,0,.08-.02.11-.03.03-.01.06-.02.08-.03.02,0,.04-.01.06-.01.02,0,.03,0,.04.01.01,0,.03.03.03.06,0,.03.01.07.02.12,0,.05,0,.11,0,.19Z"/>
        <path class="cls-4" d="m136.42,74.28s-.01.07-.04.09c-.03.02-.07.04-.12.05-.06,0-.14.01-.24.01-.12,0-.2,0-.25-.01-.05,0-.09-.02-.11-.05-.02-.02-.03-.05-.03-.09v-.29c-.14.16-.3.28-.48.37-.18.09-.38.13-.6.13-.18,0-.35-.03-.5-.08-.15-.05-.28-.12-.4-.22-.11-.1-.2-.22-.26-.37-.06-.15-.09-.32-.09-.51,0-.21.04-.39.12-.55.08-.16.19-.28.35-.38.16-.1.35-.18.58-.22.23-.05.5-.07.8-.07h.33v-.22c0-.11-.01-.21-.03-.3-.02-.09-.06-.16-.11-.21-.05-.06-.12-.1-.2-.13-.08-.03-.19-.04-.31-.04-.16,0-.31.02-.43.06-.13.04-.24.08-.34.13-.1.05-.18.09-.24.13-.07.04-.12.06-.16.06-.03,0-.05,0-.08-.03-.02-.02-.04-.05-.05-.08-.01-.04-.02-.08-.03-.13,0-.05-.01-.11-.01-.17,0-.08,0-.15.02-.2.01-.05.04-.09.07-.13.04-.04.1-.08.19-.13.09-.05.19-.09.32-.13.12-.04.25-.07.39-.1.14-.03.29-.04.44-.04.27,0,.5.03.69.08.19.06.35.14.47.26.12.11.21.26.27.44.06.18.08.4.08.64v2.43Zm-.95-1.55h-.37c-.16,0-.29.01-.4.04-.11.02-.2.06-.27.11-.07.05-.12.11-.15.18-.03.07-.05.15-.05.24,0,.15.05.27.14.36.09.09.22.13.38.13.14,0,.26-.04.38-.11.11-.07.23-.18.35-.32v-.62Z"/>
        <path class="cls-4" d="m139.26,69.28c0,.08,0,.14,0,.19,0,.05-.01.08-.02.11-.01.03-.02.04-.03.05-.01,0-.03.01-.04.01-.02,0-.04,0-.06-.01-.02,0-.05-.02-.08-.03-.03-.01-.07-.02-.11-.03-.04,0-.09-.01-.15-.01-.07,0-.13.01-.18.03-.05.02-.09.06-.12.11-.03.05-.06.11-.07.19-.02.08-.02.18-.02.29v.33h.63s.04,0,.06.02c.02.01.04.04.05.07.01.03.02.07.03.13,0,.05,0,.12,0,.2,0,.15-.01.25-.04.32-.03.06-.06.1-.11.1h-.63v2.93s0,.05-.02.07-.04.04-.08.05c-.04.01-.09.02-.15.03-.06,0-.14.01-.23.01s-.17,0-.23-.01c-.06,0-.11-.02-.15-.03-.04-.01-.06-.03-.08-.05-.01-.02-.02-.04-.02-.07v-2.93h-.43s-.09-.03-.11-.1c-.02-.06-.04-.17-.04-.32,0-.08,0-.14,0-.2,0-.05.02-.1.03-.13.01-.03.03-.05.05-.07.02-.01.04-.02.07-.02h.43v-.3c0-.25.02-.46.07-.65.05-.19.12-.34.22-.46.1-.12.22-.22.38-.28.15-.06.33-.09.54-.09.1,0,.19,0,.28.03.09.02.16.04.21.06.05.02.09.04.1.06.02.02.03.04.04.08.01.03.02.08.02.13s0,.12,0,.2Z"/>
        <path class="cls-4" d="m142.87,72.43c0,.31-.04.59-.12.84-.08.25-.19.47-.35.66-.16.18-.35.33-.59.43-.24.1-.51.15-.83.15s-.57-.04-.8-.13c-.23-.09-.41-.22-.56-.39-.15-.17-.26-.38-.33-.63-.07-.25-.11-.53-.11-.85s.04-.59.12-.84c.08-.26.2-.47.35-.66.16-.18.35-.32.59-.42.23-.1.51-.15.83-.15s.57.04.8.13c.23.09.41.22.56.39.15.17.26.38.33.63.07.25.11.53.11.85Zm-1,.04c0-.18-.01-.34-.04-.49-.03-.15-.07-.28-.14-.39-.06-.11-.15-.2-.26-.26-.11-.06-.24-.09-.4-.09-.14,0-.27.03-.38.08-.11.06-.2.14-.27.24-.07.11-.12.24-.16.39-.03.15-.05.32-.05.51,0,.18.01.34.04.49.03.15.07.28.14.39.06.11.15.2.26.26.11.06.24.09.4.09.15,0,.27-.03.38-.08.11-.06.2-.14.27-.24.07-.11.12-.23.15-.38.03-.15.05-.32.05-.51Z"/>
        <path class="cls-4" d="m145.69,70.99c0,.1,0,.18,0,.24,0,.06-.01.11-.02.15-.01.04-.02.06-.04.07-.02.01-.04.02-.06.02-.02,0-.04,0-.07-.01-.03,0-.05-.02-.09-.03-.03-.01-.07-.02-.11-.03-.04,0-.08-.01-.13-.01-.05,0-.11.01-.16.03-.05.02-.11.06-.17.11-.06.05-.12.11-.18.19-.06.08-.13.18-.2.3v2.25s0,.05-.02.07c-.02.02-.04.04-.08.05s-.09.02-.15.03c-.06,0-.14.01-.23.01s-.17,0-.23-.01c-.06,0-.11-.02-.15-.03-.04-.01-.06-.03-.08-.05-.02-.02-.02-.04-.02-.07v-3.61s0-.05.02-.07c.01-.02.04-.04.07-.05.03-.01.08-.02.13-.03.05,0,.12-.01.2-.01s.15,0,.2.01c.05,0,.1.02.13.03.03.01.05.03.06.05.01.02.02.04.02.07v.45c.09-.14.17-.25.25-.33.08-.09.16-.16.23-.21.07-.05.14-.09.22-.11.07-.02.14-.03.22-.03.03,0,.07,0,.11,0,.04,0,.08.01.12.02.04,0,.08.02.11.03.03.01.05.03.07.04.01.01.02.03.03.04,0,.02.01.04.02.07,0,.03,0,.07.01.13,0,.06,0,.13,0,.23Z"/>
        <path class="cls-4" d="m151.59,74.27s0,.05-.02.07-.04.04-.08.05-.08.02-.15.03c-.06,0-.14.01-.23.01s-.18,0-.24-.01c-.06,0-.11-.02-.15-.03s-.06-.03-.08-.05c-.01-.02-.02-.04-.02-.07v-2.14c0-.12-.01-.23-.03-.33-.02-.1-.06-.19-.1-.26-.04-.07-.1-.13-.17-.17-.07-.04-.15-.06-.24-.06-.12,0-.23.05-.35.14-.12.09-.25.23-.38.41v2.4s0,.05-.02.07c-.02.02-.04.04-.08.05-.04.01-.09.02-.15.03-.06,0-.14.01-.23.01s-.17,0-.23-.01c-.06,0-.11-.02-.15-.03s-.06-.03-.08-.05c-.02-.02-.02-.04-.02-.07v-2.14c0-.12-.01-.23-.03-.33-.02-.1-.05-.19-.1-.26-.04-.07-.1-.13-.17-.17-.07-.04-.15-.06-.24-.06-.12,0-.24.05-.35.14-.12.09-.24.23-.38.41v2.4s0,.05-.02.07c-.02.02-.04.04-.08.05-.04.01-.09.02-.15.03-.06,0-.14.01-.23.01s-.17,0-.23-.01c-.06,0-.11-.02-.15-.03s-.06-.03-.08-.05c-.02-.02-.02-.04-.02-.07v-3.61s0-.05.02-.07c.01-.02.04-.04.07-.05.03-.01.08-.02.13-.03.05,0,.12-.01.2-.01s.15,0,.2.01c.05,0,.1.02.13.03.03.01.05.03.06.05.01.02.02.04.02.07v.42c.19-.22.38-.38.57-.49.19-.11.39-.16.59-.16.14,0,.27.02.38.05.11.03.21.08.3.13.09.06.16.13.23.21.06.08.12.17.16.27.1-.12.2-.22.3-.3.1-.08.2-.15.29-.2.1-.05.19-.09.29-.12.1-.03.19-.04.29-.04.23,0,.42.04.58.12.16.08.28.19.38.33.1.14.16.3.21.49.04.19.06.38.06.59v2.31Z"/>
        <path class="cls-4" d="m155.31,74.28s-.01.07-.04.09c-.03.02-.07.04-.12.05-.06,0-.14.01-.24.01-.12,0-.2,0-.25-.01-.05,0-.09-.02-.11-.05-.02-.02-.03-.05-.03-.09v-.29c-.14.16-.3.28-.48.37-.18.09-.38.13-.6.13-.18,0-.35-.03-.5-.08-.15-.05-.28-.12-.4-.22-.11-.1-.2-.22-.26-.37-.06-.15-.09-.32-.09-.51,0-.21.04-.39.12-.55.08-.16.19-.28.35-.38.16-.1.35-.18.58-.22.23-.05.5-.07.8-.07h.33v-.22c0-.11-.01-.21-.03-.3-.02-.09-.06-.16-.11-.21-.05-.06-.12-.1-.2-.13-.08-.03-.19-.04-.31-.04-.16,0-.31.02-.43.06-.13.04-.24.08-.34.13-.1.05-.18.09-.24.13-.07.04-.12.06-.16.06-.03,0-.05,0-.08-.03-.02-.02-.04-.05-.05-.08-.01-.04-.02-.08-.03-.13,0-.05-.01-.11-.01-.17,0-.08,0-.15.02-.2.01-.05.04-.09.07-.13.04-.04.1-.08.19-.13.09-.05.19-.09.32-.13.12-.04.25-.07.39-.1.14-.03.29-.04.44-.04.27,0,.5.03.69.08.19.06.35.14.47.26.12.11.21.26.27.44.06.18.08.4.08.64v2.43Zm-.95-1.55h-.37c-.16,0-.29.01-.4.04-.11.02-.2.06-.27.11-.07.05-.12.11-.15.18-.03.07-.05.15-.05.24,0,.15.05.27.14.36.09.09.22.13.38.13.14,0,.26-.04.38-.11.11-.07.23-.18.35-.32v-.62Z"/>
        <path class="cls-4" d="m158.54,73.25c0,.21-.04.39-.11.54-.07.16-.18.29-.31.39-.13.11-.29.18-.47.24-.18.05-.38.08-.59.08-.13,0-.25-.01-.37-.03-.12-.02-.22-.05-.31-.08-.09-.03-.17-.06-.23-.1-.06-.03-.11-.06-.13-.09-.03-.03-.05-.07-.07-.13s-.02-.15-.02-.27c0-.08,0-.14,0-.19,0-.05.01-.09.02-.11.01-.03.02-.05.04-.06.02,0,.03-.01.06-.01.03,0,.07.02.13.05.06.03.12.07.21.11.08.04.18.08.29.11.11.04.23.05.37.05.09,0,.16,0,.23-.03.07-.02.13-.05.18-.08.05-.04.09-.08.11-.13.03-.05.04-.12.04-.19,0-.08-.02-.15-.07-.21-.05-.06-.11-.11-.19-.15-.08-.04-.17-.08-.27-.12-.1-.04-.2-.08-.3-.13-.1-.05-.21-.1-.3-.16s-.19-.13-.27-.22-.14-.19-.19-.31c-.05-.12-.07-.27-.07-.44s.03-.33.1-.48c.06-.14.16-.27.28-.37.12-.1.27-.18.44-.24.17-.06.37-.09.58-.09.11,0,.21,0,.31.02.1.02.19.04.27.06.08.02.15.05.21.08.06.03.1.05.12.07.02.02.04.04.05.06.01.02.02.04.02.07,0,.03,0,.06.01.11,0,.04,0,.09,0,.16,0,.07,0,.13,0,.18,0,.05-.01.08-.02.11,0,.03-.02.05-.04.05-.02,0-.03.01-.05.01-.02,0-.06-.01-.11-.04-.05-.03-.11-.06-.18-.09-.07-.03-.16-.06-.25-.09-.1-.03-.21-.04-.33-.04-.09,0-.16,0-.23.03-.06.02-.12.05-.16.08-.04.04-.07.08-.09.12-.02.05-.03.1-.03.15,0,.08.02.15.07.21.05.06.11.11.19.15.08.04.17.08.27.12.1.04.2.08.31.12.1.04.21.1.31.16.1.06.19.13.27.22.08.09.14.19.19.31.05.12.07.26.07.43Z"/>
      </g>
      <g>
        <path class="cls-4" d="m124.76,82.19s0,.05-.02.07c-.01.02-.03.04-.07.05-.03.01-.07.02-.12.03-.05,0-.12,0-.19,0-.08,0-.15,0-.2,0s-.09-.01-.13-.03c-.03-.01-.06-.03-.07-.05-.01-.02-.02-.05-.02-.07v-.4c-.18.2-.36.36-.56.47-.19.11-.41.17-.64.17-.26,0-.48-.05-.66-.16-.18-.11-.33-.25-.44-.43-.11-.18-.2-.39-.25-.63-.05-.24-.08-.5-.08-.76,0-.32.03-.61.1-.87.07-.26.16-.48.29-.66.13-.18.28-.32.47-.42.19-.1.4-.15.65-.15.19,0,.37.04.52.12.16.08.31.2.47.36v-1.96s0-.05.02-.07c.01-.02.04-.04.08-.05.04-.01.09-.03.15-.03.06,0,.14-.01.23-.01s.17,0,.23.01c.06,0,.11.02.15.03.04.01.06.03.08.05.02.02.02.05.02.07v5.32Zm-.96-2.42c-.14-.18-.27-.32-.4-.42-.13-.1-.26-.15-.4-.15-.13,0-.23.03-.33.1-.09.07-.16.15-.22.27-.06.11-.1.23-.12.37-.03.14-.04.28-.04.42,0,.15.01.3.03.44.02.14.06.27.11.38.05.11.12.2.21.27.09.07.2.1.33.1.07,0,.13-.01.19-.03.06-.02.13-.05.19-.1.07-.05.13-.11.2-.18.07-.07.14-.17.23-.27v-1.2Z"/>
        <path class="cls-4" d="m128.76,80.27c0,.12-.03.22-.08.28-.05.06-.13.09-.22.09h-2.09c0,.15.02.29.05.42.03.13.09.23.17.32.08.09.17.15.29.2.12.05.26.07.43.07s.32-.01.45-.04c.13-.03.24-.05.33-.09.09-.03.17-.06.23-.09.06-.03.11-.04.15-.04.02,0,.04,0,.06.01.02,0,.03.03.04.05.01.02.02.06.02.1,0,.04,0,.1,0,.17,0,.06,0,.11,0,.15,0,.04,0,.08-.01.11,0,.03-.01.05-.02.08-.01.02-.02.04-.04.06-.02.02-.06.04-.14.08-.07.03-.17.06-.28.1-.12.03-.25.06-.4.08-.15.02-.31.03-.48.03-.31,0-.57-.04-.8-.12-.23-.08-.42-.2-.58-.37s-.27-.37-.34-.62c-.08-.25-.11-.55-.11-.88s.04-.61.12-.87c.08-.26.19-.48.35-.66.15-.18.34-.32.55-.41.22-.09.46-.14.73-.14.29,0,.53.04.74.13.2.09.37.21.5.37.13.16.23.35.29.56.06.22.09.45.09.71v.16Zm-.94-.29c0-.29-.05-.51-.16-.67-.12-.16-.3-.24-.54-.24-.12,0-.23.02-.32.07-.09.05-.17.11-.23.2-.06.08-.11.18-.14.29-.03.11-.05.23-.06.36h1.45Z"/>
        <path class="cls-4" d="m135.16,81.93c.03.1.05.17.06.23,0,.06,0,.1-.03.13-.03.03-.08.05-.15.05-.07,0-.17.01-.3.01s-.23,0-.31,0c-.07,0-.13-.01-.17-.02-.04-.01-.07-.03-.08-.05-.02-.02-.03-.05-.04-.09l-.33-1.05h-1.87l-.32,1.02s-.02.07-.04.1c-.02.03-.04.05-.08.06-.04.01-.09.03-.16.03-.07,0-.16,0-.27,0-.12,0-.21,0-.28-.01-.07,0-.11-.03-.14-.06-.03-.03-.03-.07-.03-.13,0-.06.03-.13.06-.23l1.54-4.65s.03-.08.05-.11c.02-.03.05-.05.1-.06.04-.01.11-.02.19-.03.08,0,.18,0,.32,0,.15,0,.27,0,.36,0,.09,0,.16.01.21.03.05.01.09.04.11.07.02.03.04.07.06.12l1.54,4.65Zm-2.29-3.85h0l-.7,2.23h1.41l-.7-2.23Z"/>
        <path class="cls-4" d="m138.24,81.61c0,.07,0,.13,0,.18,0,.05,0,.09-.02.12,0,.03-.01.06-.02.08s-.03.05-.06.08c-.03.03-.08.07-.16.11-.07.04-.16.08-.25.12-.09.04-.2.06-.31.09-.11.02-.23.03-.34.03-.26,0-.5-.04-.7-.13s-.38-.21-.51-.38c-.14-.17-.24-.37-.31-.62-.07-.24-.11-.52-.11-.83,0-.36.04-.67.13-.94.09-.26.21-.48.36-.65.15-.17.34-.3.55-.38.21-.08.44-.13.69-.13.1,0,.2,0,.3.03.1.02.19.04.28.08.09.03.16.07.23.11.07.04.12.08.14.11.03.03.05.05.06.07.01.02.02.05.03.08,0,.03.01.07.02.12,0,.05,0,.1,0,.17,0,.16-.01.27-.04.33-.03.06-.06.1-.1.1-.04,0-.09-.02-.14-.06-.05-.04-.11-.08-.17-.13-.07-.05-.15-.09-.24-.13-.09-.04-.2-.06-.33-.06-.25,0-.44.1-.58.31-.13.2-.2.5-.2.9,0,.19.02.37.05.51.03.15.08.27.15.37.07.1.15.17.25.22.1.05.21.07.34.07s.25-.02.34-.06c.1-.04.18-.09.25-.14.07-.05.13-.1.18-.14.05-.04.09-.06.12-.06.02,0,.04,0,.06.02.02.01.03.04.04.07,0,.04.02.08.02.14s0,.13,0,.22Z"/>
        <path class="cls-4" d="m141.38,81.61c0,.07,0,.13,0,.18,0,.05,0,.09-.02.12,0,.03-.01.06-.02.08,0,.02-.03.05-.06.08-.03.03-.08.07-.16.11-.07.04-.16.08-.25.12-.09.04-.2.06-.31.09-.11.02-.23.03-.34.03-.26,0-.5-.04-.7-.13s-.38-.21-.51-.38c-.14-.17-.24-.37-.31-.62-.07-.24-.11-.52-.11-.83,0-.36.04-.67.13-.94.09-.26.21-.48.36-.65.15-.17.34-.3.55-.38.21-.08.44-.13.69-.13.1,0,.2,0,.3.03.1.02.19.04.28.08.09.03.16.07.23.11.07.04.12.08.14.11.03.03.05.05.06.07.01.02.02.05.03.08,0,.03.01.07.02.12,0,.05,0,.1,0,.17,0,.16-.01.27-.04.33-.03.06-.06.1-.1.1-.04,0-.09-.02-.14-.06-.05-.04-.11-.08-.17-.13-.07-.05-.15-.09-.24-.13-.09-.04-.2-.06-.33-.06-.25,0-.44.1-.58.31-.13.2-.2.5-.2.9,0,.19.02.37.05.51.03.15.08.27.15.37.07.1.15.17.25.22.1.05.21.07.34.07s.25-.02.34-.06c.1-.04.18-.09.25-.14.07-.05.13-.1.18-.14.05-.04.09-.06.12-.06.02,0,.04,0,.06.02.02.01.03.04.04.07,0,.04.02.08.02.14s0,.13,0,.22Z"/>
        <path class="cls-4" d="m142.97,77.35c0,.21-.04.35-.12.43-.08.08-.23.12-.44.12s-.36-.04-.44-.11c-.08-.08-.11-.21-.11-.41s.04-.35.12-.43c.08-.08.23-.12.44-.12s.36.04.44.12c.08.08.12.21.12.41Zm-.07,4.84s0,.05-.02.07c-.02.02-.04.04-.08.05-.04.01-.09.02-.15.03-.06,0-.14.01-.23.01s-.17,0-.23-.01c-.06,0-.11-.02-.15-.03-.04-.01-.06-.03-.08-.05-.02-.02-.02-.04-.02-.07v-3.61s0-.05.02-.07c.02-.02.04-.04.08-.05.04-.01.09-.03.15-.03.06,0,.14-.01.23-.01s.17,0,.23.01c.06,0,.11.02.15.03.04.01.06.03.08.05.02.02.02.04.02.07v3.61Z"/>
        <path class="cls-4" d="m147.18,80.34c0,.31-.04.59-.12.84-.08.25-.19.47-.35.66-.16.18-.35.33-.59.43-.24.1-.51.15-.83.15s-.57-.04-.8-.13c-.23-.09-.41-.22-.56-.39-.15-.17-.26-.38-.33-.63-.07-.25-.11-.53-.11-.85s.04-.59.12-.84c.08-.26.2-.47.35-.66.16-.18.35-.32.59-.42.23-.1.51-.15.83-.15s.57.04.8.13c.23.09.41.22.56.39.15.17.26.38.33.63.07.25.11.53.11.85Zm-1,.04c0-.18-.01-.34-.04-.49-.03-.15-.07-.28-.14-.39-.06-.11-.15-.2-.26-.26-.11-.06-.24-.09-.4-.09-.14,0-.27.03-.38.08-.11.06-.2.14-.27.24-.07.11-.12.24-.16.39-.03.15-.05.32-.05.51,0,.18.01.34.04.49.03.15.07.28.14.39.06.11.15.2.26.26.11.06.24.09.4.09.15,0,.27-.03.38-.08.11-.06.2-.14.27-.24.07-.11.12-.23.15-.38.03-.15.05-.32.05-.51Zm-.65-3.59s.04-.06.07-.08c.03-.02.06-.04.1-.05.04-.01.09-.02.15-.03.06,0,.13,0,.22,0,.12,0,.21,0,.28.02.07.01.12.03.15.05.03.02.04.04.04.07,0,.03-.02.06-.04.09l-.75.94s-.04.05-.06.07-.05.03-.08.04c-.03.01-.07.02-.12.02-.05,0-.11,0-.18,0-.09,0-.16,0-.21-.01-.05,0-.09-.02-.11-.04-.02-.02-.03-.04-.03-.07,0-.03.02-.06.04-.09l.55-.93Z"/>
        <path class="cls-4" d="m151.07,82.19s0,.05-.02.07c-.02.02-.04.04-.08.05-.04.01-.09.02-.15.03-.06,0-.14.01-.23.01s-.17,0-.24-.01c-.06,0-.11-.02-.15-.03-.04-.01-.06-.03-.08-.05-.02-.02-.02-.04-.02-.07v-2.06c0-.18-.01-.31-.04-.41-.02-.1-.06-.19-.11-.26-.05-.07-.11-.13-.18-.17-.07-.04-.16-.06-.26-.06-.12,0-.25.05-.37.14-.13.09-.26.23-.39.41v2.4s0,.05-.02.07c-.02.02-.04.04-.08.05-.04.01-.09.02-.15.03-.06,0-.14.01-.23.01s-.17,0-.23-.01c-.06,0-.11-.02-.15-.03-.04-.01-.06-.03-.08-.05-.02-.02-.02-.04-.02-.07v-3.61s0-.05.02-.07c.01-.02.04-.04.07-.05.03-.01.08-.02.13-.03.05,0,.12-.01.2-.01s.15,0,.2.01c.05,0,.1.02.13.03.03.01.05.03.06.05.01.02.02.04.02.07v.42c.19-.22.38-.38.58-.49.2-.11.4-.16.61-.16.23,0,.43.04.59.12.16.08.29.19.39.33.1.14.17.3.21.49.04.19.07.41.07.67v2.23Z"/>
      </g>
      <g>
        <path class="cls-4" d="m124.96,88.24c0,.32-.03.61-.1.87-.07.26-.16.48-.29.66-.13.18-.28.32-.47.42-.19.1-.4.15-.64.15-.1,0-.19-.01-.27-.03-.08-.02-.16-.05-.24-.09-.08-.04-.16-.09-.23-.16-.08-.06-.16-.14-.24-.22v1.7s0,.05-.02.07c-.02.02-.04.04-.08.05-.04.01-.09.03-.15.03-.06,0-.14.01-.23.01s-.17,0-.23-.01c-.06,0-.11-.02-.15-.03-.04-.01-.06-.03-.08-.05-.02-.02-.02-.05-.02-.07v-5.05s0-.05.02-.07c.01-.02.04-.04.07-.05s.07-.02.13-.03c.05,0,.12-.01.2-.01s.14,0,.19.01c.05,0,.09.02.13.03.03.01.05.03.07.05.01.02.02.04.02.07v.43c.1-.11.2-.2.29-.29.1-.08.19-.15.29-.21s.2-.1.31-.12c.11-.03.22-.04.34-.04.25,0,.47.05.64.16.18.1.32.25.43.43.11.18.19.39.24.63.05.24.08.5.08.77Zm-1.01.07c0-.15-.01-.3-.03-.44-.02-.14-.06-.27-.11-.38-.05-.11-.12-.2-.21-.27-.09-.07-.19-.1-.32-.1-.06,0-.13.01-.19.03-.06.02-.13.05-.19.1-.07.05-.13.11-.2.18-.07.07-.14.16-.22.27v1.19c.14.18.27.32.39.42.12.1.25.15.38.15.13,0,.23-.03.32-.1.09-.07.16-.16.22-.27.06-.11.1-.23.13-.37.03-.14.04-.28.04-.41Z"/>
        <path class="cls-4" d="m128.51,90.12s-.01.07-.04.09c-.03.02-.07.04-.12.05-.06,0-.14.01-.24.01-.12,0-.2,0-.25-.01-.05,0-.09-.02-.11-.05-.02-.02-.03-.05-.03-.09v-.29c-.14.16-.3.28-.48.37-.18.09-.38.13-.6.13-.18,0-.35-.03-.5-.08-.15-.05-.28-.12-.4-.22-.11-.1-.2-.22-.26-.37-.06-.15-.09-.32-.09-.51,0-.21.04-.39.12-.55.08-.16.19-.28.35-.38.16-.1.35-.18.58-.22.23-.05.5-.07.8-.07h.33v-.22c0-.11-.01-.21-.03-.3-.02-.09-.06-.16-.11-.21-.05-.06-.12-.1-.2-.13-.08-.03-.19-.04-.31-.04-.16,0-.31.02-.43.06-.13.04-.24.08-.34.13-.1.05-.18.09-.24.13-.07.04-.12.06-.16.06-.03,0-.05,0-.08-.03-.02-.02-.04-.05-.05-.08-.01-.04-.02-.08-.03-.13,0-.05-.01-.11-.01-.17,0-.08,0-.15.02-.2.01-.05.04-.09.07-.13.04-.04.1-.08.19-.13.09-.05.19-.09.32-.13.12-.04.25-.07.39-.1.14-.03.29-.04.44-.04.27,0,.5.03.69.08.19.06.35.14.47.26.12.11.21.26.27.44.06.18.08.4.08.64v2.43Zm-.95-1.55h-.37c-.16,0-.29.01-.4.04-.11.02-.2.06-.27.11-.07.05-.12.11-.15.18-.03.07-.05.15-.05.24,0,.15.05.27.14.36.09.09.22.13.38.13.14,0,.26-.04.38-.11.11-.07.23-.18.35-.32v-.62Z"/>
        <path class="cls-4" d="m131.53,86.83c0,.1,0,.18,0,.24,0,.06-.01.11-.02.15-.01.04-.02.06-.04.07-.02.01-.04.02-.06.02-.02,0-.04,0-.07-.01-.03,0-.05-.02-.09-.03-.03-.01-.07-.02-.11-.03-.04,0-.08-.01-.13-.01-.05,0-.11.01-.16.03-.05.02-.11.06-.17.11-.06.05-.12.11-.18.19-.06.08-.13.18-.2.3v2.25s0,.05-.02.07c-.02.02-.04.04-.08.05-.04.01-.09.02-.15.03-.06,0-.14.01-.23.01s-.17,0-.23-.01c-.06,0-.11-.02-.15-.03-.04-.01-.06-.03-.08-.05-.02-.02-.02-.04-.02-.07v-3.61s0-.05.02-.07c.01-.02.04-.04.07-.05.03-.01.08-.02.13-.03.05,0,.12-.01.2-.01s.15,0,.2.01c.05,0,.1.02.13.03.03.01.05.03.06.05.01.02.02.04.02.07v.45c.09-.14.17-.25.25-.33.08-.09.16-.16.23-.21.07-.05.14-.09.22-.11.07-.02.14-.03.22-.03.03,0,.07,0,.11,0,.04,0,.08.01.12.02s.08.02.11.03c.03.01.05.03.07.04.01.01.02.03.03.04,0,.02.01.04.02.07,0,.03,0,.07.01.13,0,.06,0,.13,0,.23Z"/>
        <path class="cls-4" d="m134.73,90.12s-.01.07-.04.09c-.03.02-.07.04-.12.05-.06,0-.14.01-.24.01-.12,0-.2,0-.25-.01-.05,0-.09-.02-.11-.05-.02-.02-.03-.05-.03-.09v-.29c-.14.16-.3.28-.48.37-.18.09-.38.13-.6.13-.18,0-.35-.03-.5-.08-.15-.05-.28-.12-.4-.22-.11-.1-.2-.22-.26-.37-.06-.15-.09-.32-.09-.51,0-.21.04-.39.12-.55.08-.16.19-.28.35-.38.16-.1.35-.18.58-.22.23-.05.5-.07.8-.07h.33v-.22c0-.11-.01-.21-.03-.3-.02-.09-.06-.16-.11-.21-.05-.06-.12-.1-.2-.13-.08-.03-.19-.04-.31-.04-.16,0-.31.02-.43.06-.13.04-.24.08-.34.13-.1.05-.18.09-.24.13-.07.04-.12.06-.16.06-.03,0-.05,0-.08-.03s-.04-.05-.05-.08c-.01-.04-.02-.08-.03-.13,0-.05-.01-.11-.01-.17,0-.08,0-.15.02-.2.01-.05.04-.09.07-.13.04-.04.1-.08.19-.13.09-.05.19-.09.32-.13.12-.04.25-.07.39-.1.14-.03.29-.04.44-.04.27,0,.5.03.69.08.19.06.35.14.47.26.12.11.21.26.27.44.06.18.08.4.08.64v2.43Zm-.95-1.55h-.37c-.16,0-.29.01-.4.04-.11.02-.2.06-.27.11-.07.05-.12.11-.15.18-.03.07-.05.15-.05.24,0,.15.05.27.14.36s.22.13.38.13c.14,0,.26-.04.38-.11.11-.07.23-.18.35-.32v-.62Z"/>
        <path class="cls-4" d="m138.14,90.1s0,.05-.02.07c-.02.02-.04.04-.08.05-.04.01-.09.02-.15.03-.06,0-.14.01-.23.01s-.17,0-.23-.01c-.06,0-.11-.02-.15-.03-.04-.01-.06-.03-.08-.05-.02-.02-.02-.04-.02-.07v-5.33s0-.05.02-.07c.02-.02.04-.04.08-.05.04-.01.09-.03.15-.03.06,0,.14-.01.23-.01s.17,0,.23.01c.06,0,.11.02.15.03.04.01.06.03.08.05.02.02.02.05.02.07v5.33Z"/>
        <path class="cls-4" d="m141.88,90.12s-.01.07-.04.09c-.03.02-.07.04-.12.05-.06,0-.14.01-.24.01-.12,0-.2,0-.25-.01-.05,0-.09-.02-.11-.05-.02-.02-.03-.05-.03-.09v-.29c-.14.16-.3.28-.48.37-.18.09-.38.13-.6.13-.18,0-.35-.03-.5-.08-.15-.05-.28-.12-.4-.22-.11-.1-.2-.22-.26-.37-.06-.15-.09-.32-.09-.51,0-.21.04-.39.12-.55.08-.16.19-.28.35-.38.16-.1.35-.18.58-.22.23-.05.5-.07.8-.07h.33v-.22c0-.11-.01-.21-.03-.3-.02-.09-.06-.16-.11-.21-.05-.06-.12-.1-.2-.13-.08-.03-.19-.04-.31-.04-.16,0-.31.02-.43.06-.13.04-.24.08-.34.13-.1.05-.18.09-.24.13-.07.04-.12.06-.16.06-.03,0-.05,0-.08-.03-.02-.02-.04-.05-.05-.08-.01-.04-.02-.08-.03-.13,0-.05-.01-.11-.01-.17,0-.08,0-.15.02-.2.01-.05.04-.09.07-.13.04-.04.1-.08.19-.13.09-.05.19-.09.32-.13.12-.04.25-.07.39-.1.14-.03.29-.04.44-.04.27,0,.5.03.69.08.19.06.35.14.47.26.12.11.21.26.27.44.06.18.08.4.08.64v2.43Zm-.95-1.55h-.37c-.16,0-.29.01-.4.04-.11.02-.2.06-.27.11-.07.05-.12.11-.15.18-.03.07-.05.15-.05.24,0,.15.05.27.14.36.09.09.22.13.38.13.14,0,.26-.04.38-.11.11-.07.23-.18.35-.32v-.62Z"/>
      </g>
      <g>
        <path class="cls-4" d="m122.58,98.01s0,.05-.02.07c-.02.02-.04.04-.08.05-.04.01-.09.02-.15.03-.06,0-.15.01-.25.01s-.18,0-.24-.01c-.07,0-.12-.02-.16-.03-.04-.01-.07-.03-.08-.05-.02-.02-.02-.05-.02-.07v-4.95s0-.05.02-.07c.02-.02.04-.04.08-.05.04-.01.09-.02.16-.03.06,0,.14-.01.24-.01s.18,0,.25.01c.06,0,.12.02.15.03.04.01.07.03.08.05s.02.05.02.07v4.95Z"/>
        <path class="cls-4" d="m126.74,98.02s0,.05-.02.07c-.02.02-.04.04-.08.05s-.09.02-.15.03c-.06,0-.14.01-.23.01s-.17,0-.24-.01c-.06,0-.11-.02-.15-.03-.04-.01-.06-.03-.08-.05s-.02-.04-.02-.07v-2.06c0-.18-.01-.31-.04-.41-.02-.1-.06-.19-.11-.26-.05-.07-.11-.13-.18-.17-.07-.04-.16-.06-.26-.06-.12,0-.25.05-.37.14-.13.09-.26.23-.39.41v2.4s0,.05-.02.07c-.02.02-.04.04-.08.05-.04.01-.09.02-.15.03-.06,0-.14.01-.23.01s-.17,0-.23-.01c-.06,0-.11-.02-.15-.03s-.06-.03-.08-.05c-.02-.02-.02-.04-.02-.07v-3.61s0-.05.02-.07c.01-.02.04-.04.07-.05.03-.01.08-.02.13-.03.05,0,.12-.01.2-.01s.15,0,.2.01c.05,0,.1.02.13.03.03.01.05.03.06.05.01.02.02.04.02.07v.42c.19-.22.38-.38.58-.49.2-.11.4-.16.61-.16.23,0,.43.04.59.12.16.08.29.19.39.33.1.14.17.3.21.49.04.19.07.41.07.67v2.23Z"/>
        <path class="cls-4" d="m130.13,97.44c0,.07,0,.13,0,.18,0,.05,0,.09-.02.12,0,.03-.01.06-.02.08,0,.02-.03.05-.06.08-.03.03-.08.07-.16.11-.07.04-.16.08-.25.12-.09.04-.2.06-.31.09-.11.02-.23.03-.34.03-.26,0-.5-.04-.7-.13-.2-.09-.38-.21-.51-.38-.14-.17-.24-.37-.31-.62-.07-.24-.11-.52-.11-.83,0-.36.04-.67.13-.94.09-.26.21-.48.36-.65.15-.17.34-.3.55-.38.21-.08.44-.13.69-.13.1,0,.2,0,.3.03.1.02.19.04.28.08.09.03.16.07.23.11.07.04.12.08.14.11.03.03.05.05.06.07.01.02.02.05.03.08,0,.03.01.07.02.12,0,.05,0,.1,0,.17,0,.16-.01.27-.04.33-.03.06-.06.1-.1.1-.04,0-.09-.02-.14-.06-.05-.04-.11-.08-.17-.13-.07-.05-.15-.09-.24-.13-.09-.04-.2-.06-.33-.06-.25,0-.44.1-.58.31-.13.2-.2.5-.2.9,0,.19.02.37.05.51.03.15.08.27.15.37.07.1.15.17.25.22.1.05.21.07.34.07s.25-.02.34-.06c.1-.04.18-.09.25-.14.07-.05.13-.1.18-.14.05-.04.09-.06.12-.06.02,0,.04,0,.06.02.02.01.03.04.04.07,0,.04.02.08.02.14,0,.06,0,.13,0,.22Z"/>
        <path class="cls-4" d="m131.65,98.02s0,.05-.02.07c-.02.02-.04.04-.08.05s-.09.02-.15.03c-.06,0-.14.01-.23.01s-.17,0-.23-.01c-.06,0-.11-.02-.15-.03s-.06-.03-.08-.05c-.02-.02-.02-.04-.02-.07v-5.33s0-.05.02-.07c.02-.02.04-.04.08-.05.04-.01.09-.03.15-.03.06,0,.14-.01.23-.01s.17,0,.23.01c.06,0,.11.02.15.03.04.01.06.03.08.05.02.02.02.05.02.07v5.33Z"/>
        <path class="cls-4" d="m135.72,98.02s0,.05-.02.07c-.01.02-.04.04-.07.05s-.07.02-.13.03c-.05,0-.12.01-.2.01-.08,0-.15,0-.21-.01-.05,0-.09-.02-.12-.03-.03-.01-.05-.03-.07-.05-.01-.02-.02-.04-.02-.07v-.42c-.19.22-.38.38-.58.49-.2.11-.4.16-.61.16-.24,0-.43-.04-.59-.12-.16-.08-.29-.19-.39-.33-.1-.14-.17-.3-.21-.49-.04-.19-.06-.42-.06-.69v-2.21s0-.05.02-.07c.01-.02.04-.04.08-.05s.09-.02.15-.03c.06,0,.14-.01.23-.01s.17,0,.23.01c.06,0,.11.02.15.03.04.01.06.03.08.05.02.02.02.04.02.07v2.04c0,.19.01.33.03.43.02.1.06.19.11.26.05.07.11.13.18.17.07.04.16.06.26.06.12,0,.25-.05.37-.14.12-.09.26-.23.4-.41v-2.4s0-.05.02-.07c.01-.02.04-.04.08-.05s.09-.02.15-.03c.06,0,.14-.01.23-.01s.17,0,.23.01c.06,0,.11.02.15.03.04.01.06.03.08.05.02.02.02.04.02.07v3.61Z"/>
        <path class="cls-4" d="m138.96,97c0,.21-.04.39-.11.54-.07.16-.18.29-.31.39-.13.11-.29.18-.47.24-.18.05-.38.08-.59.08-.13,0-.25-.01-.37-.03-.12-.02-.22-.05-.31-.08-.09-.03-.17-.06-.23-.1-.06-.03-.11-.06-.13-.09-.03-.03-.05-.07-.07-.13-.02-.06-.02-.15-.02-.27,0-.08,0-.14,0-.19,0-.05.01-.09.02-.11.01-.03.02-.05.04-.06.02,0,.03-.01.06-.01.03,0,.07.02.13.05.06.03.12.07.21.11.08.04.18.08.29.11.11.04.23.05.37.05.09,0,.16,0,.23-.03.07-.02.13-.05.18-.08.05-.04.09-.08.11-.13.03-.05.04-.12.04-.19,0-.08-.02-.15-.07-.21-.05-.06-.11-.11-.19-.15-.08-.04-.17-.08-.27-.12-.1-.04-.2-.08-.3-.13-.1-.05-.21-.1-.3-.16-.1-.06-.19-.13-.27-.22s-.14-.19-.19-.31c-.05-.12-.07-.27-.07-.44s.03-.33.1-.48c.06-.14.16-.27.28-.37.12-.1.27-.18.44-.24.17-.06.37-.09.58-.09.11,0,.21,0,.31.02.1.02.19.04.27.06.08.02.15.05.21.08.06.03.1.05.12.07.02.02.04.04.05.06.01.02.02.04.02.07,0,.03,0,.06.01.11,0,.04,0,.09,0,.16,0,.07,0,.13,0,.18,0,.05-.01.08-.02.11,0,.03-.02.05-.04.05-.02,0-.03.01-.05.01-.02,0-.06-.01-.11-.04-.05-.03-.11-.06-.18-.09-.07-.03-.16-.06-.25-.09-.1-.03-.21-.04-.33-.04-.09,0-.16,0-.23.03-.06.02-.12.05-.16.08-.04.04-.07.08-.09.12-.02.05-.03.1-.03.15,0,.08.02.15.07.21.05.06.11.11.19.15.08.04.17.08.27.12.1.04.2.08.31.12.1.04.21.1.31.16.1.06.19.13.27.22.08.09.14.19.19.31.05.12.07.26.07.43Z"/>
        <path class="cls-4" d="m140.58,93.18c0,.21-.04.35-.12.43-.08.08-.23.12-.44.12s-.37-.04-.44-.11c-.08-.08-.11-.21-.11-.41s.04-.35.12-.43c.08-.08.23-.12.44-.12s.36.04.44.12c.08.08.12.21.12.41Zm-.07,4.84s0,.05-.02.07c-.02.02-.04.04-.08.05-.04.01-.09.02-.15.03-.06,0-.14.01-.23.01s-.17,0-.23-.01c-.06,0-.11-.02-.15-.03s-.06-.03-.08-.05c-.02-.02-.02-.04-.02-.07v-3.61s0-.05.02-.07c.02-.02.04-.04.08-.05s.09-.03.15-.03c.06,0,.14-.01.23-.01s.17,0,.23.01c.06,0,.11.02.15.03.04.01.06.03.08.05.02.02.02.04.02.07v3.61Z"/>
        <path class="cls-4" d="m144.79,96.18c0,.31-.04.59-.12.84-.08.25-.19.47-.35.66-.16.18-.35.33-.59.43-.24.1-.51.15-.83.15s-.57-.04-.8-.13c-.23-.09-.41-.22-.56-.39-.15-.17-.26-.38-.33-.63-.07-.25-.11-.53-.11-.85s.04-.59.12-.84c.08-.26.2-.47.35-.66.16-.18.35-.32.59-.42.23-.1.51-.15.83-.15s.57.04.8.13c.23.09.41.22.56.39.15.17.26.38.33.63.07.25.11.53.11.85Zm-1,.04c0-.18-.01-.34-.04-.49-.03-.15-.07-.28-.14-.39-.06-.11-.15-.2-.26-.26-.11-.06-.24-.09-.4-.09-.14,0-.27.03-.38.08-.11.06-.2.14-.27.24-.07.11-.12.24-.16.39-.03.15-.05.32-.05.51,0,.18.01.34.04.49.03.15.07.28.14.39.06.11.15.2.26.26.11.06.24.09.4.09.15,0,.27-.03.38-.08.11-.06.2-.14.27-.24.07-.11.12-.23.15-.38.03-.15.05-.32.05-.51Zm-.65-3.59s.04-.06.07-.08c.03-.02.06-.04.1-.05.04-.01.09-.02.15-.03.06,0,.13,0,.22,0,.12,0,.21,0,.28.02.07.01.12.03.15.05.03.02.04.04.04.07,0,.03-.02.06-.04.09l-.75.94s-.04.05-.06.07c-.02.02-.05.03-.08.04-.03.01-.07.02-.12.02-.05,0-.11,0-.18,0-.09,0-.16,0-.21-.01-.05,0-.09-.02-.11-.04-.02-.02-.03-.04-.03-.07,0-.03.02-.06.04-.09l.55-.93Z"/>
        <path class="cls-4" d="m148.68,98.02s0,.05-.02.07c-.02.02-.04.04-.08.05-.04.01-.09.02-.15.03-.06,0-.14.01-.23.01s-.17,0-.24-.01c-.06,0-.11-.02-.15-.03-.04-.01-.06-.03-.08-.05s-.02-.04-.02-.07v-2.06c0-.18-.01-.31-.04-.41-.02-.1-.06-.19-.11-.26-.05-.07-.11-.13-.18-.17-.07-.04-.16-.06-.26-.06-.12,0-.25.05-.37.14-.13.09-.26.23-.39.41v2.4s0,.05-.02.07c-.02.02-.04.04-.08.05-.04.01-.09.02-.15.03-.06,0-.14.01-.23.01s-.17,0-.23-.01c-.06,0-.11-.02-.15-.03-.04-.01-.06-.03-.08-.05-.02-.02-.02-.04-.02-.07v-3.61s0-.05.02-.07c.01-.02.04-.04.07-.05.03-.01.08-.02.13-.03.05,0,.12-.01.2-.01s.15,0,.2.01c.05,0,.1.02.13.03.03.01.05.03.06.05.01.02.02.04.02.07v.42c.19-.22.38-.38.58-.49.2-.11.4-.16.61-.16.23,0,.43.04.59.12.16.08.29.19.39.33.1.14.17.3.21.49.04.19.07.41.07.67v2.23Z"/>
        <path class="cls-4" d="m154.12,96.59c0,.28-.05.52-.15.73-.1.21-.23.38-.4.52-.17.14-.36.24-.58.31-.22.07-.46.11-.72.11-.17,0-.33-.01-.48-.04-.15-.03-.28-.07-.39-.11-.11-.04-.21-.09-.28-.13-.08-.05-.13-.09-.16-.12-.03-.04-.06-.09-.07-.15-.01-.07-.02-.16-.02-.29,0-.08,0-.15,0-.21,0-.06.01-.1.03-.14.01-.04.03-.06.05-.07.02-.01.04-.02.07-.02.04,0,.09.02.15.07.07.04.15.09.25.15.1.05.23.1.37.15.14.04.31.07.49.07.12,0,.23-.02.33-.05.1-.03.18-.08.25-.13.07-.06.12-.13.16-.21.04-.08.05-.18.05-.28,0-.12-.03-.22-.09-.31-.06-.09-.14-.16-.24-.23-.1-.07-.21-.13-.34-.19-.13-.06-.26-.12-.39-.18-.13-.06-.26-.14-.39-.22-.13-.08-.24-.18-.34-.3-.1-.11-.18-.25-.24-.41-.06-.16-.09-.34-.09-.56,0-.25.04-.47.13-.66.09-.19.21-.35.36-.47.15-.13.33-.22.53-.28.2-.06.42-.09.65-.09.12,0,.24,0,.35.03.12.02.23.04.33.08.1.03.19.07.27.11.08.04.13.07.16.1.03.03.04.05.05.07,0,.02.02.04.02.07,0,.03.01.07.01.12,0,.05,0,.11,0,.18,0,.08,0,.14,0,.2,0,.05-.01.1-.02.13,0,.04-.02.06-.04.08-.02.02-.04.02-.07.02s-.07-.02-.13-.06c-.06-.04-.14-.08-.23-.12-.09-.04-.19-.09-.31-.12-.12-.04-.25-.05-.39-.05-.11,0-.21.01-.29.04-.08.03-.15.07-.21.12-.06.05-.1.11-.12.18-.03.07-.04.14-.04.22,0,.12.03.22.09.3.06.09.14.16.24.23.1.07.22.13.34.19.13.06.26.12.39.18.13.06.26.14.39.22.13.08.24.18.34.3.1.11.18.25.24.41.06.16.09.34.09.55Z"/>
        <path class="cls-4" d="m158.15,96.18c0,.31-.04.59-.12.84-.08.25-.19.47-.35.66-.16.18-.35.33-.59.43-.24.1-.51.15-.83.15s-.57-.04-.8-.13c-.23-.09-.41-.22-.56-.39-.15-.17-.26-.38-.33-.63-.07-.25-.11-.53-.11-.85s.04-.59.12-.84c.08-.26.2-.47.35-.66.16-.18.35-.32.59-.42.23-.1.51-.15.83-.15s.57.04.8.13c.23.09.41.22.56.39.15.17.26.38.33.63.07.25.11.53.11.85Zm-1,.04c0-.18-.01-.34-.04-.49-.03-.15-.07-.28-.14-.39-.06-.11-.15-.2-.26-.26-.11-.06-.24-.09-.4-.09-.14,0-.27.03-.38.08-.11.06-.2.14-.27.24-.07.11-.12.24-.16.39-.03.15-.05.32-.05.51,0,.18.01.34.04.49.03.15.07.28.14.39.06.11.15.2.26.26.11.06.24.09.4.09.15,0,.27-.03.38-.08.11-.06.2-.14.27-.24.07-.11.12-.23.15-.38.03-.15.05-.32.05-.51Z"/>
        <path class="cls-4" d="m161.37,97.44c0,.07,0,.13,0,.18,0,.05,0,.09-.02.12,0,.03-.01.06-.02.08,0,.02-.03.05-.06.08-.03.03-.08.07-.16.11-.07.04-.16.08-.25.12-.09.04-.2.06-.31.09-.11.02-.23.03-.34.03-.26,0-.5-.04-.7-.13s-.38-.21-.51-.38c-.14-.17-.24-.37-.31-.62-.07-.24-.11-.52-.11-.83,0-.36.04-.67.13-.94.09-.26.21-.48.36-.65.15-.17.34-.3.55-.38.21-.08.44-.13.69-.13.1,0,.2,0,.3.03.1.02.19.04.28.08.09.03.16.07.23.11.07.04.12.08.14.11.03.03.05.05.06.07.01.02.02.05.03.08,0,.03.01.07.02.12,0,.05,0,.1,0,.17,0,.16-.01.27-.04.33-.03.06-.06.1-.1.1-.04,0-.09-.02-.14-.06-.05-.04-.11-.08-.17-.13-.07-.05-.15-.09-.24-.13-.09-.04-.2-.06-.33-.06-.25,0-.44.1-.58.31-.13.2-.2.5-.2.9,0,.19.02.37.05.51.03.15.08.27.15.37.07.1.15.17.25.22.1.05.21.07.34.07s.25-.02.34-.06c.1-.04.18-.09.25-.14.07-.05.13-.1.18-.14.05-.04.09-.06.12-.06.02,0,.04,0,.06.02.02.01.03.04.04.07,0,.04.02.08.02.14,0,.06,0,.13,0,.22Z"/>
        <path class="cls-4" d="m162.95,93.18c0,.21-.04.35-.12.43-.08.08-.23.12-.44.12s-.36-.04-.44-.11c-.08-.08-.11-.21-.11-.41s.04-.35.12-.43c.08-.08.23-.12.44-.12s.36.04.44.12c.08.08.12.21.12.41Zm-.07,4.84s0,.05-.02.07c-.02.02-.04.04-.08.05-.04.01-.09.02-.15.03-.06,0-.14.01-.23.01s-.17,0-.23-.01c-.06,0-.11-.02-.15-.03s-.06-.03-.08-.05c-.02-.02-.02-.04-.02-.07v-3.61s0-.05.02-.07c.02-.02.04-.04.08-.05s.09-.03.15-.03c.06,0,.14-.01.23-.01s.17,0,.23.01c.06,0,.11.02.15.03.04.01.06.03.08.05.02.02.02.04.02.07v3.61Z"/>
        <path class="cls-4" d="m166.62,98.03s-.01.07-.04.09c-.03.02-.07.04-.12.05-.06,0-.14.01-.24.01-.12,0-.2,0-.25-.01-.05,0-.09-.02-.11-.05-.02-.02-.03-.05-.03-.09v-.29c-.14.16-.3.28-.48.37-.18.09-.38.13-.6.13-.18,0-.35-.03-.5-.08-.15-.05-.28-.12-.4-.22-.11-.1-.2-.22-.26-.37-.06-.15-.09-.32-.09-.51,0-.21.04-.39.12-.55.08-.16.19-.28.35-.38.16-.1.35-.18.58-.22.23-.05.5-.07.8-.07h.33v-.22c0-.11-.01-.21-.03-.3-.02-.09-.06-.16-.11-.21-.05-.06-.12-.1-.2-.13-.08-.03-.19-.04-.31-.04-.16,0-.31.02-.43.06-.13.04-.24.08-.34.13-.1.05-.18.09-.24.13-.07.04-.12.06-.16.06-.03,0-.05,0-.08-.03-.02-.02-.04-.05-.05-.08-.01-.04-.02-.08-.03-.13,0-.05-.01-.11-.01-.17,0-.08,0-.15.02-.2.01-.05.04-.09.07-.13.04-.04.1-.08.19-.13.09-.05.19-.09.32-.13.12-.04.25-.07.39-.1.14-.03.29-.04.44-.04.27,0,.5.03.69.08.19.06.35.14.47.26.12.11.21.26.27.44.06.18.08.4.08.64v2.43Zm-.95-1.55h-.37c-.16,0-.29.01-.4.04-.11.02-.2.06-.27.11-.07.05-.12.11-.15.18-.03.07-.05.15-.05.24,0,.15.05.27.14.36.09.09.22.13.38.13.14,0,.26-.04.38-.11.11-.07.23-.18.35-.32v-.62Z"/>
        <path class="cls-4" d="m168.4,98.02s0,.05-.02.07c-.02.02-.04.04-.08.05-.04.01-.09.02-.15.03-.06,0-.14.01-.23.01s-.17,0-.23-.01c-.06,0-.11-.02-.15-.03s-.06-.03-.08-.05c-.02-.02-.02-.04-.02-.07v-5.33s0-.05.02-.07c.02-.02.04-.04.08-.05.04-.01.09-.03.15-.03.06,0,.14-.01.23-.01s.17,0,.23.01c.06,0,.11.02.15.03.04.01.06.03.08.05.02.02.02.05.02.07v5.33Z"/>
      </g>
      <g>
        <path class="cls-5" d="m53.43,72.76c-.18.89-1.73,1.69-3.46,1.69-1.72,0-3.34-.7-3.55-1.69v21.43c0,2.29,1.08,4.12,3.7,4.13,2.67.01,3.31-1.7,3.31-4.2v-21.37Z"/>
        <path class="cls-3" d="m19.11,77.59c-.16-2.84-2.08-8.29-9.19-8.99-8.18,0-8.13,7.18-8.16,9.73v18.16l-1.76,1.77h10.63s-1.81-1.76-1.81-1.76v-8.8c5.17.66,10.64-3.89,10.29-10.12m-12.07.51c0-1.8,1.45-3.25,3.23-3.25s3.23,1.46,3.23,3.25-1.45,3.25-3.23,3.25-3.23-1.46-3.23-3.25"/>
      </g>
    </g>
  </g>
</svg>