<?xml version="1.0" encoding="UTF-8"?>
<svg id="Capa_2" data-name="Capa 2" xmlns="http://www.w3.org/2000/svg" viewBox="0 0 221.22 60.04">
  <defs>
    <style>
      .cls-1 {
        fill: #292929;
      }

      .cls-2 {
        fill: #4c4c4c;
        fill-rule: evenodd;
      }
    </style>
  </defs>
  <g id="Capa_1-2" data-name="Capa 1">
    <g>
      <path class="cls-1" d="m143.55,39.28v-13.26c0-1.56-.17-2.59-.51-3.08-.35-.49-1.07-.76-2.19-.84v-1.23h9.72v3.95c.58-1.01,1.3-1.9,2.18-2.66,1.5-1.27,3.23-1.9,5.22-1.9s3.68.67,4.96,2c1.29,1.33,1.93,3.05,1.93,5.16v11.85c0,1.56.15,2.59.46,3.09.32.48.98.76,1.98.83v1.23h-12.25v-1.23c1.12-.07,1.84-.35,2.19-.85.34-.49.51-1.52.51-3.06v-10.37c0-2.03-.2-3.41-.59-4.13-.4-.72-1.18-1.08-2.31-1.08-.83,0-1.69.36-2.59,1.07-.65.52-1.19,1.11-1.6,1.77v12.75c0,1.55.17,2.57.51,3.06.35.5,1.08.78,2.19.85v1.23h-12.51v-1.23c1.12-.07,1.85-.35,2.2-.85.34-.47.51-1.5.51-3.06m-20.88-21.82h0l7.38-8.23.43-.42c.63-.52,1.32-.77,2.08-.77s1.35.25,1.78.75c.36.44.55.91.55,1.44l-.04.45c-.16.7-.57,1.33-1.25,1.89l-.5.35-7.58,4.55h-2.84Zm4.36,26.09c1.52,0,2.55-.77,3.14-2.31.58-1.54.87-4.32.87-8.36s-.29-7.05-.87-8.64c-.59-1.59-1.62-2.38-3.14-2.38s-2.55.79-3.14,2.38c-.58,1.59-.87,4.46-.87,8.64s.28,6.83.87,8.36c.59,1.54,1.63,2.31,3.14,2.31m0,1.58c-3.3,0-6.05-1.15-8.24-3.48-2.19-2.32-3.28-5.24-3.28-8.75s1.09-6.64,3.28-9.03c2.19-2.4,4.94-3.6,8.24-3.6s6.05,1.2,8.24,3.6c2.19,2.39,3.28,5.4,3.28,9.03s-1.09,6.43-3.28,8.75c-2.19,2.32-4.92,3.48-8.24,3.48m-19.9-35.94c1.11,0,2.04.38,2.8,1.15.76.76,1.15,1.69,1.15,2.81s-.39,2.05-1.15,2.81c-.76.77-1.69,1.15-2.8,1.15s-2.06-.38-2.81-1.15c-.76-.76-1.15-1.69-1.15-2.81s.39-2.05,1.15-2.81c.76-.77,1.69-1.15,2.81-1.15m-3.56,30.09v-13.26c0-1.55-.16-2.57-.51-3.06-.34-.5-1.07-.78-2.19-.85v-1.23h9.81v18.4c0,1.55.17,2.57.5,3.06.35.5,1.09.78,2.2.85v1.23h-12.51v-1.23c1.13-.07,1.86-.35,2.2-.85.34-.49.5-1.52.5-3.06m-7.26-11.45c-.51-1.84-1.31-3.28-2.43-4.32-1.12-1.04-2.42-1.56-3.91-1.56-.99,0-1.79.28-2.39.83-.61.56-.92,1.29-.92,2.19,0,.85.33,1.57.97,2.17.65.61,1.86,1.3,3.61,2.08,2.79,1.27,4.72,2.49,5.8,3.67,1.08,1.17,1.62,2.63,1.62,4.4,0,2.35-.74,4.24-2.22,5.68-1.49,1.44-3.44,2.16-5.88,2.16-1.43,0-3.13-.35-5.1-1.07-.7-.26-1.21-.36-1.54-.27-.34.08-.66.38-.98.89l-.27.45h-1.21v-8.47h1.37c.35,2.03,1.2,3.65,2.52,4.89,1.33,1.23,2.9,1.85,4.7,1.85,1.12,0,2.02-.31,2.7-.91.67-.61,1.02-1.41,1.02-2.41,0-.86-.36-1.62-1.08-2.27-.72-.63-2.05-1.38-4-2.24-2.67-1.19-4.52-2.36-5.55-3.49-1.01-1.11-1.52-2.52-1.52-4.22,0-2.28.74-4.12,2.21-5.51,1.47-1.39,3.4-2.09,5.8-2.09,1.27-.01,2.77.3,4.49.96.52.19.97.23,1.37.12.39-.11.71-.38.93-.79l.1-.18h1.13v7.46h-1.33Zm-40.75,11.45v-13.26c0-1.56-.18-2.59-.51-3.08-.34-.49-1.07-.76-2.2-.84v-1.23h9.73v3.95c.57-1.01,1.29-1.9,2.17-2.66,1.5-1.27,3.24-1.9,5.22-1.9s3.69.67,4.97,2c1.28,1.33,1.91,3.05,1.91,5.16v11.85c0,1.56.15,2.59.47,3.09.31.48.98.76,1.98.83v1.23h-12.25v-1.23c1.13-.07,1.84-.35,2.19-.85.34-.49.51-1.52.51-3.06v-10.37c0-2.03-.19-3.41-.59-4.13-.4-.72-1.17-1.08-2.3-1.08-.83,0-1.7.36-2.6,1.07-.64.52-1.18,1.11-1.6,1.77v12.75c0,1.55.17,2.57.51,3.06.34.5,1.08.78,2.19.85v1.23h-12.51v-1.23c1.13-.07,1.86-.35,2.21-.85.33-.47.5-1.5.5-3.06m-11.19-9.21h0v-.45c0-2.83-.23-4.84-.7-6.02-.48-1.17-1.29-1.75-2.44-1.75-1.21,0-2.13.58-2.73,1.77-.61,1.17-.91,2.93-.91,5.25v1.2h6.78Zm-3.36,15.06c-3.25,0-5.84-1.11-7.75-3.31-1.91-2.2-2.86-5.18-2.86-8.93s1-6.64,3-9.03c2.01-2.39,4.52-3.59,7.53-3.59,3.31,0,5.76,1.13,7.36,3.4,1.36,1.86,2.13,4.63,2.32,8.3h-12.91c.19,2.79.69,4.95,1.49,6.49,1.06,2.01,2.74,3.01,5.03,3.01.98,0,1.93-.28,2.83-.85.92-.57,1.81-1.44,2.71-2.62l1.11.71c-1.2,2.09-2.64,3.68-4.31,4.78-1.69,1.1-3.53,1.65-5.55,1.65"/>
      <path class="cls-1" d="m15.26,42.06c1.75,0,3.01-.74,3.81-2.21.79-1.47,1.19-3.83,1.19-7.1s-.34-5.83-1.04-7.35c-.69-1.52-1.81-2.28-3.36-2.28s-2.8.71-3.88,2.11c-.35.46-.67.95-.95,1.47v12.32l.83,1.25c.95,1.2,2.08,1.79,3.39,1.79M3.17,25.97c0-1.54-.19-2.55-.57-3.04-.39-.48-1.19-.76-2.43-.82v-1.21h10.86v3.47c.35-.57.72-1.09,1.1-1.55,1.48-1.68,3.5-2.52,6.08-2.52,2.96,0,5.43,1.09,7.4,3.28,1.97,2.18,2.95,4.93,2.95,8.23,0,3.91-.97,7.06-2.91,9.44-1.94,2.39-4.52,3.58-7.72,3.58-2.32,0-4.43-.89-6.32-2.68l-.59-.54v7.83c0,1.49.28,2.48.81,2.97.55.49,1.71.78,3.49.88v1.21H0v-1.21c1.32-.07,2.17-.35,2.57-.84.4-.49.6-1.49.6-3.02v-23.46Z"/>
      <path class="cls-2" d="m182.95,22.31c3.47,0,6.36,4.39,6.45,9.81.08,5.42-2.66,9.82-6.13,9.82s-6.35-4.4-6.44-9.82c-.09-5.42,2.66-9.81,6.13-9.81m-12.17,2.73c-.08,1.1-.23,3.11-.2,4.1.23,3.14.55,5.01,1.7,7.91,1.2,3.08,4.23,5.99,7.45,6.78,3.61.68,8.72.28,12.46-3.42,4.54-4.49,5.74-13.64.91-18.44-3.24-3.23-7.57-3.64-11.41-2.09-1.96.72-2.38,1.06-3.17,1.37.12-5.34,6.85-14.25,11.95-16.26.74-.29,2.3-.75,2.3-1.8,0-.35-.4-.76-.76-.76h-.61c-3.66,0-10,4.61-12.32,6.94-1.91,1.94-2.83,3.01-4.37,5.33-1.92,2.88-3.67,6.92-3.92,10.34m32.43-8.08l-.76.03.31-1.37.9-6.22h14.08c.98,0,3.34-7.44,3.34-8.65,0-.54-.69-.76-1.22-.76-.75,0-1.07,2.33-2.4,2.9-1.48.65-2.78.43-4.87.43h-10.76l-2.61,18.95v.15c0,.34.12.33.31.61,7.33,0,13.52,1.72,13.52,8.97,0,4.5-2.94,8.95-7.87,8.95h-1.67c-2.38,0-4.17-2.28-6.22-2.28-1.26.02-1.94.88-1.82,2.13,0,1.83,4.36,3.18,6.51,3.18,7.82.43,15.85-3.27,17.13-13.66,0-3.94-1-7.81-4.31-10.26-3.46-2.57-7.5-2.79-11.61-3.13"/>
      <path class="cls-1" d="m215.77,56.08h1.83c.03.25.11.43.28.55.16.12.4.18.71.18.27,0,.47-.05.61-.14.16-.1.23-.23.23-.4,0-.22-.28-.4-.87-.54-.3-.08-.56-.15-.74-.21-.7-.23-1.18-.47-1.44-.71-.26-.25-.38-.58-.38-.99,0-.57.21-1.01.64-1.34.44-.32,1.04-.49,1.79-.49.81,0,1.44.14,1.88.42.44.28.69.69.74,1.24h-1.76c-.04-.19-.12-.33-.26-.42-.14-.09-.32-.14-.56-.14-.22,0-.38.04-.5.13-.12.09-.18.2-.18.36,0,.22.3.41.9.57.15.04.26.07.34.09.55.16.94.28,1.15.36.22.08.38.16.47.23.2.15.36.32.45.52.1.2.15.43.15.68,0,.61-.24,1.08-.71,1.43-.49.35-1.14.52-1.99.52s-1.49-.16-1.97-.49c-.48-.33-.74-.8-.79-1.39m-6.64-1.1c0-.94.27-1.67.79-2.2.51-.53,1.25-.79,2.17-.79s1.66.27,2.18.79c.53.53.8,1.26.8,2.2s-.27,1.67-.8,2.2c-.52.53-1.25.8-2.18.8s-1.66-.26-2.18-.79c-.52-.53-.78-1.26-.78-2.21m1.88,0c0,.52.09.91.28,1.18.18.27.46.41.8.41s.62-.14.82-.42c.18-.27.28-.67.28-1.18s-.1-.89-.28-1.17c-.19-.28-.47-.41-.82-.41s-.62.13-.81.41c-.18.27-.28.66-.28,1.17m-8.15,2.81v-5.6h1.79v.77c.19-.31.42-.54.71-.68.27-.15.6-.22.99-.22.66,0,1.14.17,1.42.49.29.33.45.86.45,1.61v3.64h-1.84v-2.82c0-.66-.05-1.08-.16-1.26-.1-.18-.31-.27-.6-.27-.32,0-.56.11-.71.32-.15.21-.22.56-.22,1.03v2.99h-1.82Zm-.95,0h-1.87c-.01-.09-.03-.18-.05-.28-.01-.1-.03-.19-.04-.3-.26.26-.54.44-.82.57-.28.12-.6.18-.96.18-.54,0-.97-.14-1.28-.44-.31-.3-.47-.7-.47-1.2,0-.47.12-.84.37-1.13.24-.29.61-.49,1.11-.61.28-.06.62-.13,1.05-.2.63-.1.95-.26.95-.46v-.13c0-.16-.07-.29-.18-.37-.13-.08-.31-.13-.55-.13-.26,0-.46.05-.62.16-.15.11-.24.27-.28.47h-1.69c.09-.63.34-1.1.78-1.41.44-.31,1.05-.47,1.86-.47.49,0,.92.06,1.26.18.33.12.6.3.8.55.13.17.22.38.28.63.05.24.08.63.08,1.16v2.13c0,.25.03.45.08.6.04.14.11.24.2.28v.21Zm-2.01-2.63c-.14.09-.39.17-.75.24-.17.04-.3.07-.39.09-.22.06-.38.14-.47.23-.09.1-.13.22-.13.39,0,.19.06.36.18.48.13.12.29.18.49.18.32,0,.57-.09.76-.27.2-.18.3-.42.3-.71v-.64Zm-4.47-2.97v5.6h-1.79v-.77c-.22.31-.47.54-.74.69-.28.14-.59.22-.96.22-.61,0-1.09-.16-1.39-.48-.32-.32-.48-.79-.48-1.41v-3.85h1.84v3.14c0,.46.06.78.17.95.11.18.31.26.6.26.32,0,.55-.1.7-.32.15-.21.22-.56.22-1.04v-3h1.83Zm-9.76,5.6v-5.6h1.76v.98c.2-.38.45-.67.74-.84.28-.18.66-.27,1.11-.28v1.82c-.08-.01-.16-.02-.23-.02-.08,0-.15,0-.22,0-.28,0-.51.04-.7.13-.19.08-.33.21-.44.38-.07.12-.11.29-.15.51-.03.22-.04.57-.04,1.06v1.88h-1.83Zm-2.79-1.76h1.75c-.16.61-.49,1.09-.97,1.43-.48.34-1.08.51-1.8.51-.87,0-1.55-.26-2.06-.79-.5-.53-.76-1.25-.76-2.16s.26-1.66.77-2.2c.5-.54,1.19-.81,2.05-.81s1.58.28,2.09.82c.51.55.77,1.31.77,2.28v.2s0,.09,0,.12h-3.79c0,.39.09.69.26.9.17.21.42.31.75.31.24,0,.44-.05.6-.16.16-.1.27-.25.34-.46m-2-1.64h2.09c0-.36-.1-.64-.29-.85-.18-.2-.43-.3-.76-.3-.3,0-.54.1-.72.3-.17.2-.28.48-.32.85m-4.37.67c0-.51-.09-.89-.28-1.16-.19-.26-.45-.4-.81-.4s-.61.13-.79.39c-.18.26-.27.65-.27,1.16,0,.47.1.83.29,1.08.19.26.46.38.81.38.33,0,.59-.13.77-.39.19-.26.28-.62.28-1.07m-3.95,4.98v-7.85h1.83v.75c.21-.31.44-.53.72-.68.27-.14.58-.22.94-.22.7,0,1.27.27,1.71.81.44.54.65,1.25.65,2.12s-.22,1.6-.66,2.16c-.44.56-1,.84-1.69.84-.37,0-.69-.07-.98-.22-.29-.15-.53-.36-.71-.65v2.95h-1.83Zm-9.58-3.96h1.83c.02.25.11.43.28.55.16.12.39.18.71.18.26,0,.46-.05.61-.14.15-.1.22-.23.22-.4,0-.22-.29-.4-.87-.54-.31-.08-.56-.15-.74-.21-.71-.23-1.19-.47-1.44-.71-.26-.25-.39-.58-.39-.99,0-.57.22-1.01.65-1.34.44-.32,1.03-.49,1.79-.49.81,0,1.43.14,1.87.42.44.28.69.69.74,1.24h-1.76c-.03-.19-.12-.33-.26-.42-.13-.09-.32-.14-.55-.14-.22,0-.39.04-.51.13-.12.09-.18.2-.18.36,0,.22.3.41.89.57.14.04.26.07.33.09.56.16.94.28,1.16.36.22.08.37.16.47.23.2.15.35.32.44.52.1.2.15.43.15.68,0,.61-.23,1.08-.71,1.43-.47.35-1.13.52-1.97.52s-1.49-.16-1.97-.49c-.48-.33-.75-.8-.79-1.39m-1.87-6.47l-1.68,1.9h-.8l.99-1.9h1.48Zm1.19,8.18h-1.86c-.03-.09-.04-.18-.06-.28-.01-.1-.03-.19-.04-.3-.26.26-.53.44-.83.57-.29.12-.61.18-.95.18-.54,0-.97-.14-1.28-.44-.32-.3-.47-.7-.47-1.2,0-.47.12-.84.37-1.13.24-.29.62-.49,1.11-.61.28-.06.62-.13,1.04-.2.64-.1.95-.26.95-.46v-.13c0-.16-.06-.29-.19-.37-.12-.08-.3-.13-.54-.13-.27,0-.47.05-.62.16-.15.11-.25.27-.29.47h-1.69c.09-.63.35-1.1.79-1.41.43-.31,1.04-.47,1.85-.47.5,0,.92.06,1.26.18.35.12.61.3.81.55.12.17.22.38.27.63.05.24.09.63.09,1.16v2.13c0,.25.02.45.06.6.05.14.12.24.21.28v.21Zm-2.01-2.63c-.15.09-.39.17-.74.24-.18.04-.3.07-.39.09-.22.06-.38.14-.47.23-.09.1-.14.22-.14.39,0,.19.07.36.19.48.12.12.29.18.49.18.32,0,.57-.09.77-.27.2-.18.3-.42.3-.71v-.64Zm-12.96,2.63v-5.6h1.76v.77c.19-.31.42-.54.69-.68.28-.15.6-.22.99-.22.41,0,.74.08,1,.22.27.15.47.38.6.68.19-.3.41-.53.7-.68.28-.15.61-.23.98-.23.6,0,1.06.17,1.36.5.31.33.46.83.46,1.48v3.76h-1.79v-3.2c0-.43-.06-.73-.18-.9-.12-.17-.33-.25-.62-.25-.3,0-.51.11-.66.33-.14.22-.21.56-.21,1.02v2.99h-1.62v-3.2c0-.43-.06-.73-.18-.9-.12-.17-.33-.25-.62-.25s-.5.11-.65.33c-.14.22-.21.56-.21,1.02v2.99h-1.79Zm-4.06,0h-1.86c-.02-.09-.04-.18-.05-.28,0-.1-.03-.19-.05-.3-.25.26-.53.44-.82.57-.29.12-.61.18-.95.18-.55,0-.97-.14-1.29-.44-.31-.3-.47-.7-.47-1.2,0-.47.12-.84.37-1.13.24-.29.62-.49,1.11-.61.28-.06.63-.13,1.05-.2.64-.1.95-.26.95-.46v-.13c0-.16-.06-.29-.18-.37-.12-.08-.31-.13-.55-.13s-.46.05-.61.16c-.16.11-.25.27-.28.47h-1.69c.09-.63.35-1.1.78-1.41.44-.31,1.06-.47,1.85-.47.5,0,.92.06,1.26.18.34.12.6.3.8.55.13.17.23.38.28.63.05.24.08.63.08,1.16v2.13c0,.25.02.45.07.6.05.14.11.24.2.28v.21Zm-2.01-2.63c-.14.09-.38.17-.74.24-.17.04-.3.07-.39.09-.22.06-.38.14-.47.23-.09.1-.13.22-.13.39,0,.19.06.36.18.48.13.12.29.18.5.18.31,0,.56-.09.76-.27.2-.18.29-.42.29-.71v-.64Zm-7.64,2.63v-5.6h1.76v.98c.2-.38.44-.67.74-.84.29-.18.66-.27,1.11-.28v1.82c-.08-.01-.16-.02-.23-.02-.08,0-.16,0-.22,0-.28,0-.51.04-.7.13-.18.08-.33.21-.44.38-.06.12-.11.29-.15.51-.02.22-.04.57-.04,1.06v1.88h-1.83Zm-.94,0h-1.87c-.02-.09-.03-.18-.05-.28-.02-.1-.03-.19-.05-.3-.26.26-.53.44-.82.57-.29.12-.6.18-.96.18-.54,0-.96-.14-1.28-.44-.31-.3-.47-.7-.47-1.2,0-.47.13-.84.37-1.13.25-.29.61-.49,1.12-.61.27-.06.62-.13,1.04-.2.63-.1.95-.26.95-.46v-.13c0-.16-.07-.29-.19-.37-.12-.08-.31-.13-.55-.13-.26,0-.46.05-.62.16-.15.11-.24.27-.28.47h-1.69c.1-.63.35-1.1.78-1.41.43-.31,1.05-.47,1.85-.47.5,0,.92.06,1.26.18.34.12.61.3.8.55.14.17.23.38.28.63.06.24.09.63.09,1.16v2.13c0,.25.02.45.07.6.04.14.11.24.2.28v.21Zm-2.01-2.63c-.14.09-.39.17-.75.24-.17.04-.31.07-.39.09-.23.06-.38.14-.47.23-.09.1-.13.22-.13.39,0,.19.06.36.18.48.12.12.29.18.49.18.31,0,.57-.09.76-.27.2-.18.3-.42.3-.71v-.64Zm-6.05-.1c0-.51-.1-.89-.28-1.16-.19-.26-.46-.4-.82-.4s-.61.13-.79.39c-.18.26-.27.65-.27,1.16,0,.47.1.83.29,1.08.19.26.46.38.82.38.33,0,.58-.13.77-.39.18-.26.28-.62.28-1.07m-3.95,4.98v-7.85h1.83v.75c.21-.31.44-.53.71-.68.27-.14.59-.22.94-.22.71,0,1.27.27,1.71.81.44.54.66,1.25.66,2.12s-.22,1.6-.66,2.16c-.44.56-.99.84-1.68.84-.37,0-.69-.07-.98-.22-.29-.15-.52-.36-.71-.65v2.95h-1.82Zm-8.37-5.11c0,.51.1.89.28,1.15.19.27.45.4.8.4s.62-.13.8-.39c.18-.26.27-.65.27-1.16,0-.47-.1-.83-.28-1.09-.19-.26-.46-.39-.81-.39s-.59.13-.77.4c-.19.26-.29.63-.29,1.08m3.96-4.73v7.59h-1.84v-.74c-.21.31-.44.53-.71.68-.27.15-.58.22-.94.22-.71,0-1.27-.27-1.7-.81-.44-.54-.66-1.25-.66-2.13s.22-1.6.66-2.16c.43-.56,1-.83,1.68-.83.37,0,.7.07.99.22.28.15.52.37.7.66v-2.69h1.83Zm-6.51,7.59h-1.86c-.02-.09-.04-.18-.06-.28-.01-.1-.02-.19-.04-.3-.26.26-.53.44-.82.57-.28.12-.6.18-.95.18-.54,0-.97-.14-1.28-.44-.31-.3-.47-.7-.47-1.2,0-.47.12-.84.37-1.13.24-.29.62-.49,1.11-.61.27-.06.63-.13,1.05-.2.63-.1.95-.26.95-.46v-.13c0-.16-.06-.29-.18-.37-.12-.08-.3-.13-.55-.13-.26,0-.47.05-.62.16-.16.11-.25.27-.29.47h-1.68c.09-.63.35-1.1.78-1.41.44-.31,1.06-.47,1.86-.47.49,0,.92.06,1.26.18.34.12.61.3.8.55.13.17.23.38.28.63.05.24.08.63.08,1.16v2.13c0,.25.02.45.07.6.04.14.11.24.2.28v.21Zm-2.01-2.63c-.14.09-.38.17-.75.24-.17.04-.3.07-.39.09-.22.06-.38.14-.46.23-.1.1-.14.22-.14.39,0,.19.06.36.18.48.13.12.29.18.5.18.31,0,.56-.09.76-.27.2-.18.3-.42.3-.71v-.64Zm-8.42-.22c0,.51.1.89.28,1.15.18.27.45.4.8.4s.61-.13.79-.39c.18-.26.27-.65.27-1.16,0-.47-.1-.83-.29-1.09-.19-.26-.45-.39-.8-.39-.33,0-.58.13-.77.4-.19.26-.29.63-.29,1.08m3.95-4.73v7.59h-1.84v-.74c-.21.31-.44.53-.71.68-.27.15-.58.22-.94.22-.7,0-1.28-.27-1.7-.81-.44-.54-.66-1.25-.66-2.13s.22-1.6.66-2.16c.44-.56,1-.83,1.68-.83.37,0,.7.07.98.22.29.15.53.37.71.66v-2.69h1.82Zm-8.67,1.98h1.82v5.61h-1.82v-5.61Zm0-1.98h1.82v1.48h-1.82v-1.48Zm-3.12,0h1.83v7.59h-1.83v-7.59Zm-3.1,1.98h1.82v5.61h-1.82v-5.61Zm0-1.98h1.82v1.48h-1.82v-1.48Zm-1.28,1.98v5.6h-1.79v-.77c-.22.31-.47.54-.75.69-.27.14-.59.22-.95.22-.62,0-1.09-.16-1.4-.48-.31-.32-.47-.79-.47-1.41v-3.85h1.84v3.14c0,.46.05.78.17.95.12.18.31.26.6.26.32,0,.55-.1.7-.32.15-.21.21-.56.21-1.04v-3h1.84Zm-10.57,2.87c0,.45.09.81.28,1.07.19.26.45.39.78.39.34,0,.62-.13.8-.38.19-.26.28-.62.28-1.08,0-.51-.09-.9-.27-1.16-.18-.26-.45-.39-.8-.39s-.61.13-.8.4c-.19.27-.28.65-.28,1.16m3.96,4.98h-1.83v-2.95c-.19.29-.42.5-.71.65-.28.15-.62.22-.98.22-.68,0-1.24-.28-1.67-.83-.44-.56-.66-1.28-.66-2.16s.22-1.59.65-2.13c.44-.54,1-.81,1.7-.81.36,0,.68.07.95.22.27.15.51.37.71.68v-.75h1.84v7.85Zm-12.12-2.25v-5.6h1.79v.77c.19-.31.43-.54.71-.68.28-.15.61-.22.99-.22.66,0,1.13.17,1.43.49.29.33.44.86.44,1.61v3.64h-1.84v-2.82c0-.66-.06-1.08-.17-1.26-.11-.18-.31-.27-.6-.27-.32,0-.56.11-.7.32-.15.21-.23.56-.23,1.03v2.99h-1.82Zm-.95,0h-1.87c-.01-.09-.03-.18-.05-.28-.01-.1-.03-.19-.04-.3-.26.26-.53.44-.82.57-.28.12-.6.18-.95.18-.55,0-.97-.14-1.28-.44-.32-.3-.48-.7-.48-1.2,0-.47.12-.84.37-1.13.24-.29.62-.49,1.12-.61.27-.06.62-.13,1.04-.2.63-.1.95-.26.95-.46v-.13c0-.16-.06-.29-.18-.37-.12-.08-.3-.13-.54-.13s-.47.05-.62.16c-.15.11-.25.27-.28.47h-1.69c.09-.63.35-1.1.78-1.41.44-.31,1.05-.47,1.85-.47.5,0,.93.06,1.26.18.34.12.61.3.8.55.13.17.22.38.28.63.05.24.08.63.08,1.16v2.13c0,.25.02.45.07.6.04.14.11.24.21.28v.21Zm-2.02-2.63c-.14.09-.38.17-.74.24-.18.04-.31.07-.4.09-.22.06-.38.14-.47.23-.09.1-.13.22-.13.39,0,.19.05.36.18.48.12.12.28.18.49.18.32,0,.57-.09.77-.27.2-.18.29-.42.29-.71v-.64Zm-7.63,2.63v-5.6h1.76v.98c.2-.38.44-.67.73-.84.29-.18.66-.27,1.11-.28v1.82c-.07-.01-.15-.02-.23-.02-.08,0-.15,0-.22,0-.28,0-.52.04-.7.13-.19.08-.34.21-.45.38-.06.12-.11.29-.14.51-.03.22-.05.57-.05,1.06v1.88h-1.82Zm-4.37-4.49v-1.11h.75v-1.58h1.83v1.58h.94v1.11h-.94v2.43c0,.37.05.62.14.74.1.12.28.18.55.18.06,0,.1,0,.14,0,.03,0,.06,0,.09,0v1.17c-.18.04-.38.06-.55.08-.19.02-.37.03-.54.03-.64,0-1.07-.16-1.3-.47-.24-.31-.35-.97-.35-1.98v-2.17h-.75Z"/>
    </g>
  </g>
</svg>