<?xml version="1.0" encoding="UTF-8"?>
<svg id="Capa_2" data-name="Capa 2" xmlns="http://www.w3.org/2000/svg" viewBox="0 0 221.22 46.96">
  <defs>
    <style>
      .cls-1 {
        fill: #e30613;
      }

      .cls-2 {
        fill: #1d1d1b;
      }
    </style>
  </defs>
  <g id="Capa_1-2" data-name="Capa 1" style="filter:drop-shadow(1px 1px 3px #888); height: 85px;">
    <g>
      <path class="cls-1" d="m25.96,33l-2.26-2.67c-2.17,1.31-4.73,1.84-7.78,1.84C6.82,32.17.23,25.7.23,16.52.23,7.94,7.76,1.93,15.92,1.93c8.83,0,15.69,5.98,15.69,15.2,0,3.76-1.28,7.04-3.66,9.97l4.79,4.85-6.77,1.06Zm-3.34-11.67c.86-1.2,1.31-2.75,1.31-4.18,0-4.25-3.52-8.09-7.97-8.09s-8.06,3.58-8.06,7.49c0,4.89,3.66,8.47,8.06,8.47.75,0,1.5-.12,2.25-.38l-4.55-4.51,6.96-.86,2,2.06Z"/>
      <path class="cls-1" d="m55.84,31.23h-6.84v-2.14h-.08c-1.2,1.92-3.57,2.78-5.84,2.78-5.72,0-9.73-4.77-9.73-10.31s3.95-10.27,9.66-10.27c2.23,0,4.55.83,5.98,2.52v-1.88h6.84v19.3Zm-15.42-9.63c0,2.44,1.61,4.33,4.4,4.33s4.4-1.88,4.4-4.33-1.62-4.36-4.4-4.36-4.4,2-4.4,4.36"/>
      <rect class="cls-1" x="59.77" width="6.85" height="31.23"/>
      <path class="cls-1" d="m77.73,4.52c0,2.11-1.73,3.84-3.84,3.84s-3.83-1.73-3.83-3.84,1.73-3.83,3.83-3.83,3.84,1.72,3.84,3.83m-.41,26.71h-6.85V11.93h6.85v19.3Z"/>
      <polygon class="cls-1" points="91.37 21.19 91.44 21.19 97.39 2.86 103.25 2.86 108.83 21.19 108.9 21.19 114.24 2.86 121.91 2.86 112.85 31.23 105.33 31.23 100.36 14.79 100.29 14.79 94.71 31.23 87.23 31.23 78.76 2.86 86.44 2.86 91.37 21.19"/>
      <path class="cls-1" d="m142.78,31.23h-6.85v-2.14h-.08c-1.21,1.92-3.57,2.78-5.83,2.78-5.73,0-9.74-4.77-9.74-10.31s3.95-10.27,9.66-10.27c2.23,0,4.56.83,5.99,2.52v-1.88h6.85v19.3Zm-15.43-9.63c0,2.44,1.62,4.33,4.41,4.33s4.39-1.88,4.39-4.33-1.61-4.36-4.39-4.36-4.41,2-4.41,4.36"/>
      <path class="cls-1" d="m153.57,15.09h.07c1.31-2.37,3.56-3.42,6.24-3.42h1.32v6.58c-.94-.53-1.84-.64-2.91-.64-3.8,0-4.73,2.52-4.73,5.83v7.79h-6.86V11.93h6.86v3.16Z"/>
      <path class="cls-1" d="m169.97,14.34h.08c1.62-2.15,3.62-3.05,6.09-3.05,2.79,0,5.2,1.13,6.59,3.68,1.31-2.41,3.9-3.68,6.54-3.68,4.9,0,6.59,3.2,6.59,7.64v12.3h-6.85v-9.21c0-2,.08-5.26-2.82-5.26-3.17,0-3.27,2.97-3.27,5.26v9.21h-6.84v-9.21c0-2.15,0-5.42-3.05-5.42s-3.05,3.28-3.05,5.42v9.21h-6.84V11.93h6.84v2.41Z"/>
      <path class="cls-1" d="m220.99,31.23h-6.84v-2.14h-.08c-1.21,1.92-3.57,2.78-5.83,2.78-5.71,0-9.74-4.77-9.74-10.31s3.94-10.27,9.66-10.27c2.23,0,4.56.83,5.99,2.52v-1.88h6.84v19.3Zm-15.43-9.63c0,2.44,1.62,4.33,4.4,4.33s4.4-1.88,4.4-4.33-1.62-4.36-4.4-4.36-4.4,2-4.4,4.36"/>
      <path class="cls-2" d="m3.46,41.98c0,.61-.2,1.07-.61,1.38-.41.31-1,.47-1.78.47h-.31v2.95h-.75v-6.66h1.07c.8,0,1.4.15,1.8.47.4.31.6.78.6,1.4m-.75,0c0-.41-.13-.71-.38-.89-.25-.18-.66-.28-1.24-.28h-.33v2.32h.33c.59,0,1.01-.09,1.25-.27.24-.18.36-.48.36-.89"/>
      <path class="cls-2" d="m8.33,46.78h-.92l-2.08-3.15h-.22v3.15h-.76v-6.66h1.41c.72,0,1.27.15,1.65.46.38.31.57.75.57,1.33,0,.52-.16.92-.49,1.22-.32.3-.77.46-1.35.47l2.17,3.17Zm-1.1-4.84c0-.39-.13-.67-.37-.85-.25-.18-.64-.27-1.16-.27h-.58v2.18h.58c.54,0,.93-.08,1.17-.25.24-.16.36-.44.36-.81"/>
      <path class="cls-2" d="m15.8,43.44c0,.98-.34,1.8-1.03,2.47-.69.67-1.53,1-2.52,1s-1.85-.34-2.53-1c-.68-.67-1.02-1.49-1.02-2.46s.34-1.81,1.02-2.47c.68-.66,1.52-.99,2.54-.99s1.85.33,2.53.99c.68.66,1.02,1.49,1.02,2.47m-.75,0c0-.78-.27-1.44-.8-1.97-.53-.53-1.2-.8-1.99-.8-.84,0-1.52.27-2.03.81-.51.54-.77,1.19-.77,1.95s.27,1.44.8,1.97c.53.53,1.2.8,2,.8s1.45-.27,1.99-.8c.54-.53.81-1.19.81-1.97"/>
      <path class="cls-2" d="m23.17,43.4c0,1.07-.29,1.92-.88,2.56-.59.63-1.39.95-2.41.95s-1.81-.33-2.46-.98c-.65-.66-.98-1.48-.98-2.49s.32-1.81.97-2.48c.65-.66,1.46-.99,2.43-.99.62,0,1.17.11,1.65.35.48.23.87.57,1.18,1.02l-.57.44c-.24-.36-.56-.63-.94-.82-.38-.19-.81-.29-1.29-.29-.78,0-1.42.27-1.92.8-.51.53-.76,1.2-.76,2.02,0,.77.26,1.41.77,1.94.51.52,1.15.79,1.91.79.67,0,1.24-.2,1.7-.6.46-.4.72-.91.77-1.52h-2.12v-.69h2.95Z"/>
      <path class="cls-2" d="m28.17,46.78h-.92l-2.08-3.15h-.22v3.15h-.75v-6.66h1.41c.72,0,1.27.15,1.65.46.38.31.57.75.57,1.33,0,.52-.16.92-.49,1.22-.32.3-.77.46-1.35.47l2.17,3.17Zm-1.1-4.84c0-.39-.12-.67-.37-.85-.25-.18-.64-.27-1.16-.27h-.58v2.18h.58c.54,0,.93-.08,1.17-.25.24-.16.36-.44.36-.81"/>
      <path class="cls-2" d="m34.73,46.78h-.83l-.88-2.02h-2.82l-.87,2.02h-.83l3.12-6.85,3.12,6.85Zm-1.99-2.65l-1.13-2.57-1.12,2.57h2.25Z"/>
      <polygon class="cls-2" points="42.46 46.78 41.7 46.78 41.05 42.23 38.82 46.96 36.6 42.23 35.95 46.78 35.18 46.78 36.27 39.92 38.84 45.38 41.39 39.92 42.46 46.78"/>
      <path class="cls-2" d="m49.07,46.78h-.83l-.88-2.02h-2.82l-.87,2.02h-.84l3.12-6.85,3.12,6.85Zm-1.99-2.65l-1.13-2.57-1.12,2.57h2.25Z"/>
      <polygon class="cls-2" points="58.67 46.96 53.41 41.71 53.41 46.78 52.66 46.78 52.66 39.92 57.91 45.17 57.91 40.11 58.67 40.11 58.67 46.96"/>
      <path class="cls-2" d="m65.52,46.78h-.83l-.88-2.02h-2.82l-.87,2.02h-.84l3.12-6.85,3.12,6.85Zm-1.99-2.65l-1.13-2.57-1.12,2.57h2.25Z"/>
      <path class="cls-2" d="m71.29,46.34c-.25.16-.59.29-1.01.4-.42.11-.8.17-1.15.17-1.04,0-1.9-.33-2.58-.98-.68-.65-1.02-1.49-1.02-2.49s.35-1.8,1.04-2.46c.69-.66,1.55-1,2.57-1,.42,0,.82.05,1.2.16.37.1.69.24.95.43v.84c-.28-.22-.6-.4-.97-.53-.37-.13-.73-.19-1.09-.19-.84,0-1.54.26-2.1.79-.57.53-.85,1.18-.85,1.97s.27,1.46.81,1.98c.54.53,1.22.79,2.02.79.4,0,.79-.07,1.18-.2.39-.13.72-.3,1-.52v.85Z"/>
      <rect class="cls-2" x="72.35" y="40.11" width=".75" height="6.66"/>
      <path class="cls-2" d="m81.23,43.44c0,.98-.34,1.8-1.03,2.47-.69.67-1.53,1-2.53,1s-1.84-.34-2.53-1c-.68-.67-1.03-1.49-1.03-2.46s.34-1.81,1.02-2.47c.68-.66,1.52-.99,2.54-.99s1.85.33,2.53.99c.68.66,1.02,1.49,1.02,2.47m-.76,0c0-.78-.27-1.44-.8-1.97-.54-.53-1.2-.8-1.99-.8-.84,0-1.52.27-2.03.81-.51.54-.77,1.19-.77,1.95s.27,1.44.8,1.97c.53.53,1.2.8,2,.8s1.45-.27,1.99-.8c.54-.53.81-1.19.81-1.97"/>
      <polygon class="cls-2" points="88.3 46.96 83.05 41.71 83.05 46.78 82.29 46.78 82.29 39.92 87.55 45.17 87.55 40.11 88.3 40.11 88.3 46.96"/>
      <path class="cls-2" d="m95.16,46.78h-.83l-.88-2.02h-2.81l-.87,2.02h-.83l3.12-6.85,3.12,6.85Zm-1.99-2.65l-1.13-2.57-1.13,2.57h2.25Z"/>
      <polygon class="cls-2" points="98.49 46.78 95.93 46.78 95.93 40.11 96.68 40.11 96.68 46.09 98.49 46.09 98.49 46.78"/>
      <path class="cls-2" d="m107.14,43.45c0,1.1-.32,1.92-.96,2.48-.64.56-1.58.84-2.82.84h-1.29v-6.66h1.33c1.21,0,2.13.29,2.78.87.64.58.97,1.4.97,2.47m-.76,0c0-.86-.25-1.51-.75-1.96-.5-.45-1.22-.67-2.18-.67h-.64v5.27h.56c1.03,0,1.79-.22,2.28-.65.49-.43.73-1.09.73-1.99"/>
      <polygon class="cls-2" points="111.67 46.78 108.23 46.78 108.23 40.11 111.67 40.11 111.67 40.81 108.99 40.81 108.99 42.84 111.67 42.84 111.67 43.53 108.99 43.53 108.99 46.08 111.67 46.08 111.67 46.78"/>
      <path class="cls-2" d="m121.33,46.78h-.83l-.88-2.02h-2.82l-.87,2.02h-.83l3.12-6.85,3.12,6.85Zm-2-2.65l-1.12-2.57-1.12,2.57h2.25Z"/>
      <polygon class="cls-2" points="124.66 46.78 122.1 46.78 122.1 40.11 122.85 40.11 122.85 46.09 124.66 46.09 124.66 46.78"/>
      <rect class="cls-2" x="125.47" y="40.11" width=".76" height="6.66"/>
      <polygon class="cls-2" points="134.59 46.78 133.82 46.78 133.17 42.23 130.95 46.96 128.72 42.23 128.07 46.78 127.3 46.78 128.39 39.92 130.96 45.38 133.51 39.92 134.59 46.78"/>
      <polygon class="cls-2" points="139.11 46.78 135.68 46.78 135.68 40.11 139.11 40.11 139.11 40.81 136.43 40.81 136.43 42.84 139.11 42.84 139.11 43.53 136.43 43.53 136.43 46.08 139.11 46.08 139.11 46.78"/>
      <polygon class="cls-2" points="146.53 46.96 141.28 41.71 141.28 46.78 140.52 46.78 140.52 39.92 145.78 45.17 145.78 40.11 146.53 40.11 146.53 46.96"/>
      <polygon class="cls-2" points="151.37 40.78 149.77 40.78 149.77 46.78 149.01 46.78 149.01 40.78 147.42 40.78 147.42 40.11 151.37 40.11 151.37 40.78"/>
      <path class="cls-2" d="m157.12,46.78h-.83l-.88-2.02h-2.82l-.87,2.02h-.83l3.12-6.85,3.12,6.85Zm-2-2.65l-1.12-2.57-1.13,2.57h2.25Z"/>
      <path class="cls-2" d="m162.89,46.34c-.25.16-.59.29-1,.4-.42.11-.81.17-1.15.17-1.04,0-1.9-.33-2.58-.98-.68-.65-1.02-1.49-1.02-2.49s.35-1.8,1.04-2.46c.7-.66,1.55-1,2.58-1,.42,0,.82.05,1.2.16.37.1.69.24.95.43v.84c-.28-.22-.6-.4-.97-.53-.37-.13-.73-.19-1.09-.19-.84,0-1.54.26-2.1.79-.57.53-.85,1.18-.85,1.97s.27,1.46.81,1.98c.54.53,1.22.79,2.02.79.39,0,.79-.07,1.18-.2.39-.13.72-.3.99-.52v.85Z"/>
      <rect class="cls-2" x="163.95" y="40.11" width=".75" height="6.66"/>
      <path class="cls-2" d="m172.82,43.44c0,.98-.34,1.8-1.03,2.47-.69.67-1.53,1-2.53,1s-1.84-.34-2.53-1c-.68-.67-1.03-1.49-1.03-2.46s.34-1.81,1.02-2.47c.68-.66,1.52-.99,2.54-.99s1.86.33,2.54.99c.68.66,1.02,1.49,1.02,2.47m-.75,0c0-.78-.27-1.44-.8-1.97-.54-.53-1.2-.8-2-.8-.84,0-1.52.27-2.03.81-.51.54-.77,1.19-.77,1.95s.27,1.44.8,1.97c.53.53,1.2.8,2,.8s1.46-.27,1.99-.8c.54-.53.81-1.19.81-1.97m-1.8-4.99l-1.29,1.17-.27-.29,1.18-1.3.38.42Z"/>
      <polygon class="cls-2" points="179.9 46.96 174.65 41.71 174.65 46.78 173.89 46.78 173.89 39.92 179.15 45.17 179.15 40.11 179.9 40.11 179.9 46.96"/>
      <polygon class="cls-2" points="187.56 46.78 184.12 46.78 184.12 40.11 187.56 40.11 187.56 40.81 184.88 40.81 184.88 42.84 187.56 42.84 187.56 43.53 184.88 43.53 184.88 46.08 187.56 46.08 187.56 46.78"/>
      <path class="cls-2" d="m192.3,45c0,.59-.19,1.06-.56,1.4-.38.34-.89.51-1.54.51-.45,0-.84-.1-1.17-.31-.34-.2-.58-.48-.73-.83l.54-.46c.1.28.28.5.53.66.25.16.54.24.87.24.41,0,.73-.11.96-.31.23-.21.35-.5.35-.88,0-.3-.11-.57-.32-.8-.21-.22-.57-.46-1.08-.7-.6-.29-1.02-.58-1.26-.85-.23-.28-.35-.63-.35-1.05,0-.49.17-.89.51-1.19.34-.3.79-.45,1.35-.45.34,0,.64.07.9.2.26.13.48.33.66.59l-.51.47c-.1-.18-.24-.31-.43-.41-.19-.1-.4-.15-.64-.15-.33,0-.59.08-.78.25-.19.17-.29.39-.29.67,0,.25.07.47.22.64.15.18.43.37.86.6l.04.02c1.26.67,1.9,1.39,1.9,2.15"/>
      <path class="cls-2" d="m198.7,46.34c-.25.16-.58.29-1.01.4-.42.11-.81.17-1.15.17-1.04,0-1.9-.33-2.58-.98-.68-.65-1.02-1.49-1.02-2.49s.35-1.8,1.04-2.46c.69-.66,1.55-1,2.57-1,.42,0,.82.05,1.2.16.38.1.69.24.95.43v.84c-.28-.22-.6-.4-.97-.53-.37-.13-.73-.19-1.09-.19-.84,0-1.54.26-2.11.79-.56.53-.85,1.18-.85,1.97s.27,1.46.82,1.98c.54.53,1.22.79,2.02.79.4,0,.79-.07,1.18-.2.39-.13.72-.3,1-.52v.85Z"/>
      <path class="cls-2" d="m206.37,43.44c0,.98-.34,1.8-1.03,2.47-.68.67-1.52,1-2.52,1s-1.84-.34-2.53-1c-.68-.67-1.02-1.49-1.02-2.46s.34-1.81,1.02-2.47c.68-.66,1.52-.99,2.54-.99s1.86.33,2.53.99c.68.66,1.02,1.49,1.02,2.47m-.76,0c0-.78-.27-1.44-.8-1.97-.53-.53-1.2-.8-1.99-.8-.84,0-1.52.27-2.03.81-.51.54-.77,1.19-.77,1.95s.27,1.44.8,1.97c.53.53,1.2.8,2,.8s1.45-.27,1.99-.8c.54-.53.81-1.19.81-1.97"/>
      <polygon class="cls-2" points="209.95 46.78 207.39 46.78 207.39 40.11 208.15 40.11 208.15 46.09 209.95 46.09 209.95 46.78"/>
      <path class="cls-2" d="m216.48,46.78h-.83l-.88-2.02h-2.82l-.87,2.02h-.84l3.12-6.85,3.12,6.85Zm-1.99-2.65l-1.13-2.57-1.12,2.57h2.25Z"/>
      <path class="cls-2" d="m221.22,46.78h-.92l-2.08-3.15h-.22v3.15h-.76v-6.66h1.41c.72,0,1.27.15,1.65.46.38.31.57.75.57,1.33,0,.52-.16.92-.48,1.22-.32.3-.78.46-1.35.47l2.18,3.17Zm-1.1-4.84c0-.39-.12-.67-.37-.85-.25-.18-.63-.27-1.16-.27h-.58v2.18h.58c.54,0,.93-.08,1.17-.25.24-.16.36-.44.36-.81"/>
    </g>
  </g>
</svg>